  0
SECTION
  2
HEADER
  9
$ACADVER
  1
AC1024
  9
$ACADMAINTVER
 70
     6
  9
$DWGCODEPAGE
  3
UNDEFINED
  9
$INSBASE
 10
0.0
 20
0.0
 30
0.0
  9
$EXTMIN
 10
1.000000000000000E+20
 20
1.000000000000000E+20
 30
1.000000000000000E+20
  9
$EXTMAX
 10
-1.000000000000000E+20
 20
-1.000000000000000E+20
 30
-1.000000000000000E+20
  9
$LIMMIN
 10
0.0
 20
0.0
  9
$LIMMAX
 10
12.0
 20
9.0
  9
$ORTHOMODE
 70
     0
  9
$REGENMODE
 70
     1
  9
$FILLMODE
 70
     1
  9
$QTEXTMODE
 70
     0
  9
$MIRRTEXT
 70
     1
  9
$LTSCALE
 40
1.0
  9
$ATTMODE
 70
     1
  9
$TEXTSIZE
 40
0.2
  9
$TRACEWID
 40
0.05
  9
$TEXTSTYLE
  7
Standard
  9
$CLAYER
  8
0
  9
$CELTYPE
  6
ByLayer
  9
$CECOLOR
 62
   256
  9
$CELTSCALE
 40
1.0
  9
$DISPSILH
 70
     0
  9
$DIMSCALE
 40
1.0
  9
$DIMASZ
 40
0.18
  9
$DIMEXO
 40
0.0625
  9
$DIMDLI
 40
0.38
  9
$DIMRND
 40
0.0
  9
$DIMDLE
 40
0.0
  9
$DIMEXE
 40
0.18
  9
$DIMTP
 40
0.0
  9
$DIMTM
 40
0.0
  9
$DIMTXT
 40
0.18
  9
$DIMCEN
 40
0.09
  9
$DIMTSZ
 40
0.0
  9
$DIMTOL
 70
     0
  9
$DIMLIM
 70
     0
  9
$DIMTIH
 70
     1
  9
$DIMTOH
 70
     1
  9
$DIMSE1
 70
     0
  9
$DIMSE2
 70
     0
  9
$DIMTAD
 70
     0
  9
$DIMZIN
 70
     0
  9
$DIMBLK
  1

  9
$DIMASO
 70
     1
  9
$DIMSHO
 70
     1
  9
$DIMPOST
  1

  9
$DIMAPOST
  1

  9
$DIMALT
 70
     0
  9
$DIMALTD
 70
     2
  9
$DIMALTF
 40
25.4
  9
$DIMLFAC
 40
1.0
  9
$DIMTOFL
 70
     0
  9
$DIMTVP
 40
0.0
  9
$DIMTIX
 70
     0
  9
$DIMSOXD
 70
     0
  9
$DIMSAH
 70
     0
  9
$DIMBLK1
  1

  9
$DIMBLK2
  1

  9
$DIMSTYLE
  2
Standard
  9
$DIMCLRD
 70
     0
  9
$DIMCLRE
 70
     0
  9
$DIMCLRT
 70
     0
  9
$DIMTFAC
 40
1.0
  9
$DIMGAP
 40
0.09
  9
$DIMJUST
 70
     0
  9
$DIMSD1
 70
     0
  9
$DIMSD2
 70
     0
  9
$DIMTOLJ
 70
     1
  9
$DIMTZIN
 70
     0
  9
$DIMALTZ
 70
     0
  9
$DIMALTTZ
 70
     0
  9
$DIMUPT
 70
     0
  9
$DIMDEC
 70
     4
  9
$DIMTDEC
 70
     4
  9
$DIMALTU
 70
     2
  9
$DIMALTTD
 70
     2
  9
$DIMTXSTY
  7
Standard
  9
$DIMAUNIT
 70
     0
  9
$DIMADEC
 70
     0
  9
$DIMALTRND
 40
0.0
  9
$DIMAZIN
 70
     0
  9
$DIMDSEP
 70
    46
  9
$DIMATFIT
 70
     3
  9
$DIMFRAC
 70
     0
  9
$DIMLDRBLK
  1

  9
$DIMLUNIT
 70
     2
  9
$DIMLWD
 70
    -2
  9
$DIMLWE
 70
    -2
  9
$DIMTMOVE
 70
     0
  9
$DIMFXL
 40
1.0
  9
$DIMFXLON
 70
     0
  9
$DIMJOGANG
 40
0.7853981633974483
  9
$DIMTFILL
 70
     0
  9
$DIMTFILLCLR
 70
     0
  9
$DIMARCSYM
 70
     0
  9
$DIMLTYPE
  6

  9
$DIMLTEX1
  6

  9
$DIMLTEX2
  6

  9
$DIMTXTDIRECTION
 70
     0
  9
$LUNITS
 70
     2
  9
$LUPREC
 70
     4
  9
$SKETCHINC
 40
0.1
  9
$FILLETRAD
 40
0.5
  9
$AUNITS
 70
     0
  9
$AUPREC
 70
     0
  9
$MENU
  1
.
  9
$ELEVATION
 40
0.0
  9
$PELEVATION
 40
0.0
  9
$THICKNESS
 40
0.0
  9
$LIMCHECK
 70
     0
  9
$CHAMFERA
 40
0.5
  9
$CHAMFERB
 40
0.5
  9
$CHAMFERC
 40
1.0
  9
$CHAMFERD
 40
0.0
  9
$SKPOLY
 70
     0
  9
$TDCREATE
 40
2457932.480613414
  9
$TDUCREATE
 40
2457932.105613426
  9
$TDUPDATE
 40
2457932.480613414
  9
$TDUUPDATE
 40
2457932.105613426
  9
$TDINDWG
 40
0.0000000116
  9
$TDUSRTIMER
 40
0.0000000116
  9
$USRTIMER
 70
     1
  9
$ANGBASE
 50
0.0
  9
$ANGDIR
 70
     0
  9
$PDMODE
 70
     0
  9
$PDSIZE
 40
0.0
  9
$PLINEWID
 40
0.0
  9
$SPLFRAME
 70
     0
  9
$SPLINETYPE
 70
     6
  9
$SPLINESEGS
 70
     8
  9
$HANDSEED
  5
2CF
  9
$SURFTAB1
 70
     6
  9
$SURFTAB2
 70
     6
  9
$SURFTYPE
 70
     6
  9
$SURFU
 70
     6
  9
$SURFV
 70
     6
  9
$UCSBASE
  2

  9
$UCSNAME
  2

  9
$UCSORG
 10
0.0
 20
0.0
 30
0.0
  9
$UCSXDIR
 10
1.0
 20
0.0
 30
0.0
  9
$UCSYDIR
 10
0.0
 20
1.0
 30
0.0
  9
$UCSORTHOREF
  2

  9
$UCSORTHOVIEW
 70
     0
  9
$UCSORGTOP
 10
0.0
 20
0.0
 30
0.0
  9
$UCSORGBOTTOM
 10
0.0
 20
0.0
 30
0.0
  9
$UCSORGLEFT
 10
0.0
 20
0.0
 30
0.0
  9
$UCSORGRIGHT
 10
0.0
 20
0.0
 30
0.0
  9
$UCSORGFRONT
 10
0.0
 20
0.0
 30
0.0
  9
$UCSORGBACK
 10
0.0
 20
0.0
 30
0.0
  9
$PUCSBASE
  2

  9
$PUCSNAME
  2

  9
$PUCSORG
 10
0.0
 20
0.0
 30
0.0
  9
$PUCSXDIR
 10
1.0
 20
0.0
 30
0.0
  9
$PUCSYDIR
 10
0.0
 20
1.0
 30
0.0
  9
$PUCSORTHOREF
  2

  9
$PUCSORTHOVIEW
 70
     0
  9
$PUCSORGTOP
 10
0.0
 20
0.0
 30
0.0
  9
$PUCSORGBOTTOM
 10
0.0
 20
0.0
 30
0.0
  9
$PUCSORGLEFT
 10
0.0
 20
0.0
 30
0.0
  9
$PUCSORGRIGHT
 10
0.0
 20
0.0
 30
0.0
  9
$PUCSORGFRONT
 10
0.0
 20
0.0
 30
0.0
  9
$PUCSORGBACK
 10
0.0
 20
0.0
 30
0.0
  9
$USERI1
 70
     0
  9
$USERI2
 70
     0
  9
$USERI3
 70
     0
  9
$USERI4
 70
     0
  9
$USERI5
 70
     0
  9
$USERR1
 40
0.0
  9
$USERR2
 40
0.0
  9
$USERR3
 40
0.0
  9
$USERR4
 40
0.0
  9
$USERR5
 40
0.0
  9
$WORLDVIEW
 70
     1
  9
$SHADEDGE
 70
     3
  9
$SHADEDIF
 70
    70
  9
$TILEMODE
 70
     1
  9
$MAXACTVP
 70
    64
  9
$PINSBASE
 10
0.0
 20
0.0
 30
0.0
  9
$PLIMCHECK
 70
     0
  9
$PEXTMIN
 10
1.000000000000000E+20
 20
1.000000000000000E+20
 30
1.000000000000000E+20
  9
$PEXTMAX
 10
-1.000000000000000E+20
 20
-1.000000000000000E+20
 30
-1.000000000000000E+20
  9
$PLIMMIN
 10
0.0
 20
0.0
  9
$PLIMMAX
 10
12.0
 20
9.0
  9
$UNITMODE
 70
     0
  9
$VISRETAIN
 70
     1
  9
$PLINEGEN
 70
     0
  9
$PSLTSCALE
 70
     1
  9
$TREEDEPTH
 70
  3020
  9
$CMLSTYLE
  2
Standard
  9
$CMLJUST
 70
     0
  9
$CMLSCALE
 40
1.0
  9
$PROXYGRAPHICS
 70
     1
  9
$MEASUREMENT
 70
     0
  9
$CELWEIGHT
370
    -1
  9
$ENDCAPS
280
     0
  9
$JOINSTYLE
280
     0
  9
$LWDISPLAY
290
     1
  9
$INSUNITS
 70
     1
  9
$HYPERLINKBASE
  1

  9
$STYLESHEET
  1

  9
$XEDIT
290
     1
  9
$CEPSNTYPE
380
     0
  9
$PSTYLEMODE
290
     1
  9
$FINGERPRINTGUID
  2
{CEC51288-A948-3CE7-D037-70D1BC2DB6CA}
  9
$VERSIONGUID
  2
{FAEB1C32-E019-11D5-929B-00C0DF256EC4}
  9
$EXTNAMES
290
     1
  9
$PSVPSCALE
 40
0.0
  9
$OLESTARTUP
290
     0
  9
$SORTENTS
280
   127
  9
$INDEXCTL
280
     0
  9
$HIDETEXT
280
     1
  9
$XCLIPFRAME
280
     2
  9
$HALOGAP
280
     0
  9
$OBSCOLOR
 70
   257
  9
$OBSLTYPE
280
     0
  9
$INTERSECTIONDISPLAY
280
     0
  9
$INTERSECTIONCOLOR
 70
   257
  9
$DIMASSOC
280
     2
  9
$PROJECTNAME
  1

  9
$CAMERADISPLAY
290
     0
  9
$LENSLENGTH
 40
50.0
  9
$CAMERAHEIGHT
 40
0.0
  9
$STEPSPERSEC
 40
2.0
  9
$STEPSIZE
 40
6.0
  9
$3DDWFPREC
 40
2.0
  9
$PSOLWIDTH
 40
0.25
  9
$PSOLHEIGHT
 40
4.0
  9
$LOFTANG1
 40
1.570796326794897
  9
$LOFTANG2
 40
1.570796326794897
  9
$LOFTMAG1
 40
0.0
  9
$LOFTMAG2
 40
0.0
  9
$LOFTPARAM
 70
     7
  9
$LOFTNORMALS
280
     1
  9
$LATITUDE
 40
37.795
  9
$LONGITUDE
 40
-122.394
  9
$NORTHDIRECTION
 40
0.0
  9
$TIMEZONE
 70
 -8000
  9
$LIGHTGLYPHDISPLAY
280
     1
  9
$TILEMODELIGHTSYNCH
280
     1
  9
$CMATERIAL
347
3C
  9
$SOLIDHIST
280
     1
  9
$SHOWHIST
280
     1
  9
$DWFFRAME
280
     2
  9
$DGNFRAME
280
     2
  9
$REALWORLDSCALE
290
     1
  9
$INTERFERECOLOR
 62
   256
  9
$CSHADOW
280
     0
  9
$SHADOWPLANELOCATION
 40
0.0
  0
ENDSEC
  0
SECTION
  2
CLASSES
  0
CLASS
  1
ACDBDICTIONARYWDFLT
  2
AcDbDictionaryWithDefault
  3
ObjectDBX Classes
 90
        0
 91
        4
280
     0
281
     0
  0
CLASS
  1
VISUALSTYLE
  2
AcDbVisualStyle
  3
ObjectDBX Classes
 90
     4095
 91
        4
280
     0
281
     0
  0
CLASS
  1
MATERIAL
  2
AcDbMaterial
  3
ObjectDBX Classes
 90
     1153
 91
        4
280
     0
281
     0
  0
CLASS
  1
SUN
  2
AcDbSun
  3
SCENEOE
 90
     1024
 91
        4
280
     0
281
     0
  0
ENDSEC
  0
SECTION
  2
TABLES
  0
TABLE
  2
VPORT
  5
8
330
0
100
AcDbSymbolTable
 70
     1
  0
VPORT
  5
29
330
8
100
AcDbSymbolTableRecord
100
AcDbViewportTableRecord
  2
*Active
 70
     0
 10
0.0
 20
0.0
 11
1.0
 21
1.0
 12
0.0
 22
0.0
 13
0.0
 23
0.0
 14
0.5
 24
0.5
 15
0.5
 25
0.5
 16
0.0
 26
0.0
 36
1.0
 17
121.3500003087467
 27
52.34999689276933
 37
0.0
 40
104.6999937855387
 41
2.318051719416774
 42
50.0
 43
0.0
 44
0.0
 50
0.0
 51
0.0
 71
     0
 72
   100
 73
     1
 74
     3
 75
     0
 76
     0
 77
     0
 78
     0
281
     0
 65
     1
110
0.0
120
0.0
130
0.0
111
1.0
121
0.0
131
0.0
112
0.0
122
1.0
132
0.0
 79
     0
146
0.0
 60
     3
 61
     5
292
     1
282
     1
141
0.0
142
0.0
 63
   250
361
3F
  0
ENDTAB
  0
TABLE
  2
LTYPE
  5
5
330
0
100
AcDbSymbolTable
 70
     1
  0
LTYPE
  5
14
330
5
100
AcDbSymbolTableRecord
100
AcDbLinetypeTableRecord
  2
ByBlock
 70
     0
  3

 72
    65
 73
     0
 40
0.0
  0
LTYPE
  5
15
330
5
100
AcDbSymbolTableRecord
100
AcDbLinetypeTableRecord
  2
ByLayer
 70
     0
  3

 72
    65
 73
     0
 40
0.0
  0
LTYPE
  5
16
330
5
100
AcDbSymbolTableRecord
100
AcDbLinetypeTableRecord
  2
Continuous
 70
     0
  3
Solid line
 72
    65
 73
     0
 40
0.0
  0
ENDTAB
  0
TABLE
  2
LAYER
  5
2
330
0
100
AcDbSymbolTable
 70
     2
  0
LAYER
  5
10
330
2
100
AcDbSymbolTableRecord
100
AcDbLayerTableRecord
  2
0
 70
     0
 62
     7
  6
Continuous
370
    -3
390
F
347
3E
  0
LAYER
  5
40
330
2
100
AcDbSymbolTableRecord
100
AcDbLayerTableRecord
  2
_U+30EC_U+30A4_U+30E4_U+30FC 1
 70
     0
 62
     7
  6
Continuous
370
    -3
390
F
347
3E
  0
ENDTAB
  0
TABLE
  2
STYLE
  5
3
330
0
100
AcDbSymbolTable
 70
     1
  0
STYLE
  5
11
330
3
100
AcDbSymbolTableRecord
100
AcDbTextStyleTableRecord
  2
Standard
 70
     0
 40
0.0
 41
1.0
 50
0.0
 71
     0
 42
0.2
  3
txt
  4

  0
ENDTAB
  0
TABLE
  2
VIEW
  5
6
330
0
100
AcDbSymbolTable
 70
     0
  0
ENDTAB
  0
TABLE
  2
UCS
  5
7
330
0
100
AcDbSymbolTable
 70
     0
  0
ENDTAB
  0
TABLE
  2
APPID
  5
9
330
0
100
AcDbSymbolTable
 70
     1
  0
APPID
  5
12
330
9
100
AcDbSymbolTableRecord
100
AcDbRegAppTableRecord
  2
ACAD
 70
     0
  0
ENDTAB
  0
TABLE
  2
DIMSTYLE
  5
A
330
0
100
AcDbSymbolTable
 70
     1
100
AcDbDimStyleTable
  0
DIMSTYLE
105
27
330
A
100
AcDbSymbolTableRecord
100
AcDbDimStyleTableRecord
  2
Standard
 70
     0
178
     0
340
11
  0
ENDTAB
  0
TABLE
  2
BLOCK_RECORD
  5
1
330
0
100
AcDbSymbolTable
 70
     7
  0
BLOCK_RECORD
  5
1F
330
1
100
AcDbSymbolTableRecord
100
AcDbBlockTableRecord
  2
*Model_Space
340
22
 70
     0
280
     1
281
     0
  0
BLOCK_RECORD
  5
1B
330
1
100
AcDbSymbolTableRecord
100
AcDbBlockTableRecord
  2
*Paper_Space
340
1E
 70
     0
280
     1
281
     0
  0
BLOCK_RECORD
  5
23
330
1
100
AcDbSymbolTableRecord
100
AcDbBlockTableRecord
  2
*Paper_Space0
340
26
 70
     0
280
     1
281
     0
  0
BLOCK_RECORD
  5
41
330
1
100
AcDbSymbolTableRecord
100
AcDbBlockTableRecord
  2
block 2
340
0
102
{BLKREFS
331
42
102
}
 70
     0
280
     1
281
     0
  0
BLOCK_RECORD
  5
A4
330
1
100
AcDbSymbolTableRecord
100
AcDbBlockTableRecord
  2
block 3
340
0
102
{BLKREFS
331
A5
102
}
 70
     0
280
     1
281
     0
  0
BLOCK_RECORD
  5
107
330
1
100
AcDbSymbolTableRecord
100
AcDbBlockTableRecord
  2
block 4
340
0
102
{BLKREFS
331
108
102
}
 70
     0
280
     1
281
     0
  0
BLOCK_RECORD
  5
15A
330
1
100
AcDbSymbolTableRecord
100
AcDbBlockTableRecord
  2
block 5
340
0
102
{BLKREFS
331
15B
102
}
 70
     0
280
     1
281
     0
  0
BLOCK_RECORD
  5
1AD
330
1
100
AcDbSymbolTableRecord
100
AcDbBlockTableRecord
  2
block 6
340
0
102
{BLKREFS
331
1AE
102
}
 70
     0
280
     1
281
     0
  0
BLOCK_RECORD
  5
238
330
1
100
AcDbSymbolTableRecord
100
AcDbBlockTableRecord
  2
block 7
340
0
102
{BLKREFS
331
239
102
}
 70
     0
280
     1
281
     0
  0
ENDTAB
  0
ENDSEC
  0
SECTION
  2
BLOCKS
  0
BLOCK
  5
20
330
1F
100
AcDbEntity
  8
0
100
AcDbBlockBegin
  2
*Model_Space
 70
     0
 10
0.0
 20
0.0
 30
0.0
  3
*Model_Space
  1

  0
ENDBLK
  5
21
330
1F
100
AcDbEntity
  8
0
100
AcDbBlockEnd
  0
BLOCK
  5
1C
330
1B
100
AcDbEntity
 67
     1
  8
0
100
AcDbBlockBegin
  2
*Paper_Space
 70
     0
 10
0.0
 20
0.0
 30
0.0
  3
*Paper_Space
  1

  0
ENDBLK
  5
1D
330
1B
100
AcDbEntity
 67
     1
  8
0
100
AcDbBlockEnd
  0
BLOCK
  5
24
330
23
100
AcDbEntity
  8
0
100
AcDbBlockBegin
  2
*Paper_Space0
 70
     0
 10
0.0
 20
0.0
 30
0.0
  3
*Paper_Space0
  1

  0
ENDBLK
  5
25
330
23
100
AcDbEntity
  8
0
100
AcDbBlockEnd
  0
BLOCK
  5
43
330
41
100
AcDbEntity
  8
0
100
AcDbBlockBegin
  2
block 2
 70
     0
 10
0.0
 20
0.0
 30
0.0
  3
block 2
  1

  0
POLYLINE
  5
45
330
41
100
AcDbEntity
  8
_U+30EC_U+30A4_U+30E4_U+30FC 1
 62
     1
420
 16711680
370
    25
100
AcDb2dPolyline
 66
     1
 10
0.0
 20
0.0
 30
0.0
  0
VERTEX
  5
46
330
45
100
AcDbEntity
  8
_U+30EC_U+30A4_U+30E4_U+30FC 1
 62
     1
420
 16711680
370
    25
100
AcDbVertex
100
AcDb2dVertex
 10
2.469998870519202
 20
100.3499989989266
 30
0.0
  0
VERTEX
  5
47
330
45
100
AcDbEntity
  8
_U+30EC_U+30A4_U+30E4_U+30FC 1
 62
     1
420
 16711680
370
    25
100
AcDbVertex
100
AcDb2dVertex
 10
7.589998386040843
 20
100.3499989989266
 30
0.0
  0
VERTEX
  5
48
330
45
100
AcDbEntity
  8
_U+30EC_U+30A4_U+30E4_U+30FC 1
 62
     1
420
 16711680
370
    25
100
AcDbVertex
100
AcDb2dVertex
 10
7.589998386040843
 20
98.34999915453243
 30
0.0
  0
VERTEX
  5
49
330
45
100
AcDbEntity
  8
_U+30EC_U+30A4_U+30E4_U+30FC 1
 62
     1
420
 16711680
370
    25
100
AcDbVertex
100
AcDb2dVertex
 10
12.4699987653592
 20
98.34999915453243
 30
0.0
  0
VERTEX
  5
4A
330
45
100
AcDbEntity
  8
_U+30EC_U+30A4_U+30E4_U+30FC 1
 62
     1
420
 16711680
370
    25
100
AcDbVertex
100
AcDb2dVertex
 10
12.4699987653592
 20
100.3499989989266
 30
0.0
  0
VERTEX
  5
4B
330
45
100
AcDbEntity
  8
_U+30EC_U+30A4_U+30E4_U+30FC 1
 62
     1
420
 16711680
370
    25
100
AcDbVertex
100
AcDb2dVertex
 10
16.58999775310099
 20
100.3499989989266
 30
0.0
  0
VERTEX
  5
4C
330
45
100
AcDbEntity
  8
_U+30EC_U+30A4_U+30E4_U+30FC 1
 62
     1
420
 16711680
370
    25
100
AcDbVertex
100
AcDb2dVertex
 10
16.58999775310099
 20
98.34999915453243
 30
0.0
  0
VERTEX
  5
4D
330
45
100
AcDbEntity
  8
_U+30EC_U+30A4_U+30E4_U+30FC 1
 62
     1
420
 16711680
370
    25
100
AcDbVertex
100
AcDb2dVertex
 10
20.46999760463982
 20
98.34999915453243
 30
0.0
  0
VERTEX
  5
4E
330
45
100
AcDbEntity
  8
_U+30EC_U+30A4_U+30E4_U+30FC 1
 62
     1
420
 16711680
370
    25
100
AcDbVertex
100
AcDb2dVertex
 10
20.46999760463982
 20
100.3499989989266
 30
0.0
  0
VERTEX
  5
4F
330
45
100
AcDbEntity
  8
_U+30EC_U+30A4_U+30E4_U+30FC 1
 62
     1
420
 16711680
370
    25
100
AcDbVertex
100
AcDb2dVertex
 10
24.58999659238161
 20
100.3499989989266
 30
0.0
  0
VERTEX
  5
50
330
45
100
AcDbEntity
  8
_U+30EC_U+30A4_U+30E4_U+30FC 1
 62
     1
420
 16711680
370
    25
100
AcDbVertex
100
AcDb2dVertex
 10
24.58999659238161
 20
98.34999915453243
 30
0.0
  0
VERTEX
  5
51
330
45
100
AcDbEntity
  8
_U+30EC_U+30A4_U+30E4_U+30FC 1
 62
     1
420
 16711680
370
    25
100
AcDbVertex
100
AcDb2dVertex
 10
28.46999752051175
 20
98.34999915453243
 30
0.0
  0
VERTEX
  5
52
330
45
100
AcDbEntity
  8
_U+30EC_U+30A4_U+30E4_U+30FC 1
 62
     1
420
 16711680
370
    25
100
AcDbVertex
100
AcDb2dVertex
 10
28.46999752051175
 20
100.3499989989266
 30
0.0
  0
VERTEX
  5
53
330
45
100
AcDbEntity
  8
_U+30EC_U+30A4_U+30E4_U+30FC 1
 62
     1
420
 16711680
370
    25
100
AcDbVertex
100
AcDb2dVertex
 10
32.58999650825355
 20
100.3499989989266
 30
0.0
  0
VERTEX
  5
54
330
45
100
AcDbEntity
  8
_U+30EC_U+30A4_U+30E4_U+30FC 1
 62
     1
420
 16711680
370
    25
100
AcDbVertex
100
AcDb2dVertex
 10
32.58999650825355
 20
98.34999915453243
 30
0.0
  0
VERTEX
  5
55
330
45
100
AcDbEntity
  8
_U+30EC_U+30A4_U+30E4_U+30FC 1
 62
     1
420
 16711680
370
    25
100
AcDbVertex
100
AcDb2dVertex
 10
36.46999743638369
 20
98.34999915453243
 30
0.0
  0
VERTEX
  5
56
330
45
100
AcDbEntity
  8
_U+30EC_U+30A4_U+30E4_U+30FC 1
 62
     1
420
 16711680
370
    25
100
AcDbVertex
100
AcDb2dVertex
 10
36.46999743638369
 20
100.3499989989266
 30
0.0
  0
VERTEX
  5
57
330
45
100
AcDbEntity
  8
_U+30EC_U+30A4_U+30E4_U+30FC 1
 62
     1
420
 16711680
370
    25
100
AcDbVertex
100
AcDb2dVertex
 10
40.58999857730811
 20
100.3499989989266
 30
0.0
  0
VERTEX
  5
58
330
45
100
AcDbEntity
  8
_U+30EC_U+30A4_U+30E4_U+30FC 1
 62
     1
420
 16711680
370
    25
100
AcDbVertex
100
AcDb2dVertex
 10
40.58999857730811
 20
98.34999915453243
 30
0.0
  0
VERTEX
  5
59
330
45
100
AcDbEntity
  8
_U+30EC_U+30A4_U+30E4_U+30FC 1
 62
     1
420
 16711680
370
    25
100
AcDbVertex
100
AcDb2dVertex
 10
44.46999519907268
 20
98.34999915453243
 30
0.0
  0
VERTEX
  5
5A
330
45
100
AcDbEntity
  8
_U+30EC_U+30A4_U+30E4_U+30FC 1
 62
     1
420
 16711680
370
    25
100
AcDbVertex
100
AcDb2dVertex
 10
44.46999519907268
 20
100.3499989989266
 30
0.0
  0
VERTEX
  5
5B
330
45
100
AcDbEntity
  8
_U+30EC_U+30A4_U+30E4_U+30FC 1
 62
     1
420
 16711680
370
    25
100
AcDbVertex
100
AcDb2dVertex
 10
48.58999418681447
 20
100.3499989989266
 30
0.0
  0
VERTEX
  5
5C
330
45
100
AcDbEntity
  8
_U+30EC_U+30A4_U+30E4_U+30FC 1
 62
     1
420
 16711680
370
    25
100
AcDbVertex
100
AcDb2dVertex
 10
48.58999418681447
 20
98.34999915453243
 30
0.0
  0
VERTEX
  5
5D
330
45
100
AcDbEntity
  8
_U+30EC_U+30A4_U+30E4_U+30FC 1
 62
     1
420
 16711680
370
    25
100
AcDbVertex
100
AcDb2dVertex
 10
52.46999511494461
 20
98.34999915453243
 30
0.0
  0
VERTEX
  5
5E
330
45
100
AcDbEntity
  8
_U+30EC_U+30A4_U+30E4_U+30FC 1
 62
     1
420
 16711680
370
    25
100
AcDbVertex
100
AcDb2dVertex
 10
52.46999511494461
 20
100.3499989989266
 30
0.0
  0
VERTEX
  5
5F
330
45
100
AcDbEntity
  8
_U+30EC_U+30A4_U+30E4_U+30FC 1
 62
     1
420
 16711680
370
    25
100
AcDbVertex
100
AcDb2dVertex
 10
56.5899941026864
 20
100.3499989989266
 30
0.0
  0
VERTEX
  5
60
330
45
100
AcDbEntity
  8
_U+30EC_U+30A4_U+30E4_U+30FC 1
 62
     1
420
 16711680
370
    25
100
AcDbVertex
100
AcDb2dVertex
 10
56.5899941026864
 20
98.34999915453243
 30
0.0
  0
VERTEX
  5
61
330
45
100
AcDbEntity
  8
_U+30EC_U+30A4_U+30E4_U+30FC 1
 62
     1
420
 16711680
370
    25
100
AcDbVertex
100
AcDb2dVertex
 10
60.46999503081655
 20
98.34999915453243
 30
0.0
  0
VERTEX
  5
62
330
45
100
AcDbEntity
  8
_U+30EC_U+30A4_U+30E4_U+30FC 1
 62
     1
420
 16711680
370
    25
100
AcDbVertex
100
AcDb2dVertex
 10
60.46999503081655
 20
100.3499989989266
 30
0.0
  0
VERTEX
  5
63
330
45
100
AcDbEntity
  8
_U+30EC_U+30A4_U+30E4_U+30FC 1
 62
     1
420
 16711680
370
    25
100
AcDbVertex
100
AcDb2dVertex
 10
64.58999401855834
 20
100.3499989989266
 30
0.0
  0
VERTEX
  5
64
330
45
100
AcDbEntity
  8
_U+30EC_U+30A4_U+30E4_U+30FC 1
 62
     1
420
 16711680
370
    25
100
AcDbVertex
100
AcDb2dVertex
 10
64.58999401855834
 20
98.34999915453243
 30
0.0
  0
VERTEX
  5
65
330
45
100
AcDbEntity
  8
_U+30EC_U+30A4_U+30E4_U+30FC 1
 62
     1
420
 16711680
370
    25
100
AcDbVertex
100
AcDb2dVertex
 10
68.46999494668847
 20
98.34999915453243
 30
0.0
  0
VERTEX
  5
66
330
45
100
AcDbEntity
  8
_U+30EC_U+30A4_U+30E4_U+30FC 1
 62
     1
420
 16711680
370
    25
100
AcDbVertex
100
AcDb2dVertex
 10
68.46999494668847
 20
100.3499989989266
 30
0.0
  0
VERTEX
  5
67
330
45
100
AcDbEntity
  8
_U+30EC_U+30A4_U+30E4_U+30FC 1
 62
     1
420
 16711680
370
    25
100
AcDbVertex
100
AcDb2dVertex
 10
72.58999393443027
 20
100.3499989989266
 30
0.0
  0
VERTEX
  5
68
330
45
100
AcDbEntity
  8
_U+30EC_U+30A4_U+30E4_U+30FC 1
 62
     1
420
 16711680
370
    25
100
AcDbVertex
100
AcDb2dVertex
 10
72.58999393443027
 20
98.34999915453243
 30
0.0
  0
VERTEX
  5
69
330
45
100
AcDbEntity
  8
_U+30EC_U+30A4_U+30E4_U+30FC 1
 62
     1
420
 16711680
370
    25
100
AcDbVertex
100
AcDb2dVertex
 10
77.4699975435229
 20
98.34999915453243
 30
0.0
  0
VERTEX
  5
6A
330
45
100
AcDbEntity
  8
_U+30EC_U+30A4_U+30E4_U+30FC 1
 62
     1
420
 16711680
370
    25
100
AcDbVertex
100
AcDb2dVertex
 10
77.4699975435229
 20
100.3499989989266
 30
0.0
  0
VERTEX
  5
6B
330
45
100
AcDbEntity
  8
_U+30EC_U+30A4_U+30E4_U+30FC 1
 62
     1
420
 16711680
370
    25
100
AcDbVertex
100
AcDb2dVertex
 10
82.58999059949602
 20
100.3499989989266
 30
0.0
  0
VERTEX
  5
6C
330
45
100
AcDbEntity
  8
_U+30EC_U+30A4_U+30E4_U+30FC 1
 62
     1
420
 16711680
370
    25
100
AcDbVertex
100
AcDb2dVertex
 10
82.58999059949602
 20
95.82999947709544
 30
0.0
  0
VERTEX
  5
6D
330
45
100
AcDbEntity
  8
_U+30EC_U+30A4_U+30E4_U+30FC 1
 62
     1
420
 16711680
370
    25
100
AcDbVertex
100
AcDb2dVertex
 10
80.5899938503022
 20
95.82999947709544
 30
0.0
  0
VERTEX
  5
6E
330
45
100
AcDbEntity
  8
_U+30EC_U+30A4_U+30E4_U+30FC 1
 62
     1
420
 16711680
370
    25
100
AcDbVertex
100
AcDb2dVertex
 10
80.5899938503022
 20
91.54999962976294
 30
0.0
  0
VERTEX
  5
6F
330
45
100
AcDbEntity
  8
_U+30EC_U+30A4_U+30E4_U+30FC 1
 62
     1
420
 16711680
370
    25
100
AcDbVertex
100
AcDb2dVertex
 10
82.58999059949602
 20
91.54999962976294
 30
0.0
  0
VERTEX
  5
70
330
45
100
AcDbEntity
  8
_U+30EC_U+30A4_U+30E4_U+30FC 1
 62
     1
420
 16711680
370
    25
100
AcDbVertex
100
AcDb2dVertex
 10
82.58999059949602
 20
87.03000010793214
 30
0.0
  0
VERTEX
  5
71
330
45
100
AcDbEntity
  8
_U+30EC_U+30A4_U+30E4_U+30FC 1
 62
     1
420
 16711680
370
    25
100
AcDbVertex
100
AcDb2dVertex
 10
80.5899938503022
 20
87.03000010793214
 30
0.0
  0
VERTEX
  5
72
330
45
100
AcDbEntity
  8
_U+30EC_U+30A4_U+30E4_U+30FC 1
 62
     1
420
 16711680
370
    25
100
AcDbVertex
100
AcDb2dVertex
 10
80.5899938503022
 20
82.75000026059963
 30
0.0
  0
VERTEX
  5
73
330
45
100
AcDbEntity
  8
_U+30EC_U+30A4_U+30E4_U+30FC 1
 62
     1
420
 16711680
370
    25
100
AcDbVertex
100
AcDb2dVertex
 10
82.58999059949602
 20
82.75000026059963
 30
0.0
  0
VERTEX
  5
74
330
45
100
AcDbEntity
  8
_U+30EC_U+30A4_U+30E4_U+30FC 1
 62
     1
420
 16711680
370
    25
100
AcDbVertex
100
AcDb2dVertex
 10
82.58999059949602
 20
78.23000127706416
 30
0.0
  0
VERTEX
  5
75
330
45
100
AcDbEntity
  8
_U+30EC_U+30A4_U+30E4_U+30FC 1
 62
     1
420
 16711680
370
    25
100
AcDbVertex
100
AcDb2dVertex
 10
77.4699975435229
 20
78.23000127706416
 30
0.0
  0
VERTEX
  5
76
330
45
100
AcDbEntity
  8
_U+30EC_U+30A4_U+30E4_U+30FC 1
 62
     1
420
 16711680
370
    25
100
AcDbVertex
100
AcDb2dVertex
 10
77.4699975435229
 20
80.2300001794409
 30
0.0
  0
VERTEX
  5
77
330
45
100
AcDbEntity
  8
_U+30EC_U+30A4_U+30E4_U+30FC 1
 62
     1
420
 16711680
370
    25
100
AcDbVertex
100
AcDb2dVertex
 10
72.58999393443027
 20
80.2300001794409
 30
0.0
  0
VERTEX
  5
78
330
45
100
AcDbEntity
  8
_U+30EC_U+30A4_U+30E4_U+30FC 1
 62
     1
420
 16711680
370
    25
100
AcDbVertex
100
AcDb2dVertex
 10
72.58999393443027
 20
78.23000127706416
 30
0.0
  0
VERTEX
  5
79
330
45
100
AcDbEntity
  8
_U+30EC_U+30A4_U+30E4_U+30FC 1
 62
     1
420
 16711680
370
    25
100
AcDbVertex
100
AcDb2dVertex
 10
68.46999494668847
 20
78.23000127706416
 30
0.0
  0
VERTEX
  5
7A
330
45
100
AcDbEntity
  8
_U+30EC_U+30A4_U+30E4_U+30FC 1
 62
     1
420
 16711680
370
    25
100
AcDbVertex
100
AcDb2dVertex
 10
68.46999494668847
 20
80.2300001794409
 30
0.0
  0
VERTEX
  5
7B
330
45
100
AcDbEntity
  8
_U+30EC_U+30A4_U+30E4_U+30FC 1
 62
     1
420
 16711680
370
    25
100
AcDbVertex
100
AcDb2dVertex
 10
64.58999401855834
 20
80.2300001794409
 30
0.0
  0
VERTEX
  5
7C
330
45
100
AcDbEntity
  8
_U+30EC_U+30A4_U+30E4_U+30FC 1
 62
     1
420
 16711680
370
    25
100
AcDbVertex
100
AcDb2dVertex
 10
64.58999401855834
 20
78.23000127706416
 30
0.0
  0
VERTEX
  5
7D
330
45
100
AcDbEntity
  8
_U+30EC_U+30A4_U+30E4_U+30FC 1
 62
     1
420
 16711680
370
    25
100
AcDbVertex
100
AcDb2dVertex
 10
60.46999503081655
 20
78.23000127706416
 30
0.0
  0
VERTEX
  5
7E
330
45
100
AcDbEntity
  8
_U+30EC_U+30A4_U+30E4_U+30FC 1
 62
     1
420
 16711680
370
    25
100
AcDbVertex
100
AcDb2dVertex
 10
60.46999503081655
 20
80.2300001794409
 30
0.0
  0
VERTEX
  5
7F
330
45
100
AcDbEntity
  8
_U+30EC_U+30A4_U+30E4_U+30FC 1
 62
     1
420
 16711680
370
    25
100
AcDbVertex
100
AcDb2dVertex
 10
56.5899941026864
 20
80.2300001794409
 30
0.0
  0
VERTEX
  5
80
330
45
100
AcDbEntity
  8
_U+30EC_U+30A4_U+30E4_U+30FC 1
 62
     1
420
 16711680
370
    25
100
AcDbVertex
100
AcDb2dVertex
 10
56.5899941026864
 20
78.23000127706416
 30
0.0
  0
VERTEX
  5
81
330
45
100
AcDbEntity
  8
_U+30EC_U+30A4_U+30E4_U+30FC 1
 62
     1
420
 16711680
370
    25
100
AcDbVertex
100
AcDb2dVertex
 10
52.46999511494461
 20
78.23000127706416
 30
0.0
  0
VERTEX
  5
82
330
45
100
AcDbEntity
  8
_U+30EC_U+30A4_U+30E4_U+30FC 1
 62
     1
420
 16711680
370
    25
100
AcDbVertex
100
AcDb2dVertex
 10
52.46999511494461
 20
80.2300001794409
 30
0.0
  0
VERTEX
  5
83
330
45
100
AcDbEntity
  8
_U+30EC_U+30A4_U+30E4_U+30FC 1
 62
     1
420
 16711680
370
    25
100
AcDbVertex
100
AcDb2dVertex
 10
48.58999418681447
 20
80.2300001794409
 30
0.0
  0
VERTEX
  5
84
330
45
100
AcDbEntity
  8
_U+30EC_U+30A4_U+30E4_U+30FC 1
 62
     1
420
 16711680
370
    25
100
AcDbVertex
100
AcDb2dVertex
 10
48.58999418681447
 20
78.23000127706416
 30
0.0
  0
VERTEX
  5
85
330
45
100
AcDbEntity
  8
_U+30EC_U+30A4_U+30E4_U+30FC 1
 62
     1
420
 16711680
370
    25
100
AcDbVertex
100
AcDb2dVertex
 10
44.46999519907268
 20
78.23000127706416
 30
0.0
  0
VERTEX
  5
86
330
45
100
AcDbEntity
  8
_U+30EC_U+30A4_U+30E4_U+30FC 1
 62
     1
420
 16711680
370
    25
100
AcDbVertex
100
AcDb2dVertex
 10
44.46999519907268
 20
80.2300001794409
 30
0.0
  0
VERTEX
  5
87
330
45
100
AcDbEntity
  8
_U+30EC_U+30A4_U+30E4_U+30FC 1
 62
     1
420
 16711680
370
    25
100
AcDbVertex
100
AcDb2dVertex
 10
40.58999857730811
 20
80.2300001794409
 30
0.0
  0
VERTEX
  5
88
330
45
100
AcDbEntity
  8
_U+30EC_U+30A4_U+30E4_U+30FC 1
 62
     1
420
 16711680
370
    25
100
AcDbVertex
100
AcDb2dVertex
 10
40.58999857730811
 20
78.23000127706416
 30
0.0
  0
VERTEX
  5
89
330
45
100
AcDbEntity
  8
_U+30EC_U+30A4_U+30E4_U+30FC 1
 62
     1
420
 16711680
370
    25
100
AcDbVertex
100
AcDb2dVertex
 10
36.46999743638369
 20
78.23000127706416
 30
0.0
  0
VERTEX
  5
8A
330
45
100
AcDbEntity
  8
_U+30EC_U+30A4_U+30E4_U+30FC 1
 62
     1
420
 16711680
370
    25
100
AcDbVertex
100
AcDb2dVertex
 10
36.46999743638369
 20
80.2300001794409
 30
0.0
  0
VERTEX
  5
8B
330
45
100
AcDbEntity
  8
_U+30EC_U+30A4_U+30E4_U+30FC 1
 62
     1
420
 16711680
370
    25
100
AcDbVertex
100
AcDb2dVertex
 10
32.58999650825355
 20
80.2300001794409
 30
0.0
  0
VERTEX
  5
8C
330
45
100
AcDbEntity
  8
_U+30EC_U+30A4_U+30E4_U+30FC 1
 62
     1
420
 16711680
370
    25
100
AcDbVertex
100
AcDb2dVertex
 10
32.58999650825355
 20
78.23000127706416
 30
0.0
  0
VERTEX
  5
8D
330
45
100
AcDbEntity
  8
_U+30EC_U+30A4_U+30E4_U+30FC 1
 62
     1
420
 16711680
370
    25
100
AcDbVertex
100
AcDb2dVertex
 10
28.46999752051175
 20
78.23000127706416
 30
0.0
  0
VERTEX
  5
8E
330
45
100
AcDbEntity
  8
_U+30EC_U+30A4_U+30E4_U+30FC 1
 62
     1
420
 16711680
370
    25
100
AcDbVertex
100
AcDb2dVertex
 10
28.46999752051175
 20
80.2300001794409
 30
0.0
  0
VERTEX
  5
8F
330
45
100
AcDbEntity
  8
_U+30EC_U+30A4_U+30E4_U+30FC 1
 62
     1
420
 16711680
370
    25
100
AcDbVertex
100
AcDb2dVertex
 10
24.58999659238161
 20
80.2300001794409
 30
0.0
  0
VERTEX
  5
90
330
45
100
AcDbEntity
  8
_U+30EC_U+30A4_U+30E4_U+30FC 1
 62
     1
420
 16711680
370
    25
100
AcDbVertex
100
AcDb2dVertex
 10
24.58999659238161
 20
78.23000127706416
 30
0.0
  0
VERTEX
  5
91
330
45
100
AcDbEntity
  8
_U+30EC_U+30A4_U+30E4_U+30FC 1
 62
     1
420
 16711680
370
    25
100
AcDbVertex
100
AcDb2dVertex
 10
20.46999760463982
 20
78.23000127706416
 30
0.0
  0
VERTEX
  5
92
330
45
100
AcDbEntity
  8
_U+30EC_U+30A4_U+30E4_U+30FC 1
 62
     1
420
 16711680
370
    25
100
AcDbVertex
100
AcDb2dVertex
 10
20.46999760463982
 20
80.2300001794409
 30
0.0
  0
VERTEX
  5
93
330
45
100
AcDbEntity
  8
_U+30EC_U+30A4_U+30E4_U+30FC 1
 62
     1
420
 16711680
370
    25
100
AcDbVertex
100
AcDb2dVertex
 10
16.58999775310099
 20
80.2300001794409
 30
0.0
  0
VERTEX
  5
94
330
45
100
AcDbEntity
  8
_U+30EC_U+30A4_U+30E4_U+30FC 1
 62
     1
420
 16711680
370
    25
100
AcDbVertex
100
AcDb2dVertex
 10
16.58999775310099
 20
78.23000127706416
 30
0.0
  0
VERTEX
  5
95
330
45
100
AcDbEntity
  8
_U+30EC_U+30A4_U+30E4_U+30FC 1
 62
     1
420
 16711680
370
    25
100
AcDbVertex
100
AcDb2dVertex
 10
12.4699987653592
 20
78.23000127706416
 30
0.0
  0
VERTEX
  5
96
330
45
100
AcDbEntity
  8
_U+30EC_U+30A4_U+30E4_U+30FC 1
 62
     1
420
 16711680
370
    25
100
AcDbVertex
100
AcDb2dVertex
 10
12.4699987653592
 20
80.2300001794409
 30
0.0
  0
VERTEX
  5
97
330
45
100
AcDbEntity
  8
_U+30EC_U+30A4_U+30E4_U+30FC 1
 62
     1
420
 16711680
370
    25
100
AcDbVertex
100
AcDb2dVertex
 10
7.589998386040843
 20
80.2300001794409
 30
0.0
  0
VERTEX
  5
98
330
45
100
AcDbEntity
  8
_U+30EC_U+30A4_U+30E4_U+30FC 1
 62
     1
420
 16711680
370
    25
100
AcDbVertex
100
AcDb2dVertex
 10
7.589998386040843
 20
78.23000127706416
 30
0.0
  0
VERTEX
  5
99
330
45
100
AcDbEntity
  8
_U+30EC_U+30A4_U+30E4_U+30FC 1
 62
     1
420
 16711680
370
    25
100
AcDbVertex
100
AcDb2dVertex
 10
2.469998870519202
 20
78.23000127706416
 30
0.0
  0
VERTEX
  5
9A
330
45
100
AcDbEntity
  8
_U+30EC_U+30A4_U+30E4_U+30FC 1
 62
     1
420
 16711680
370
    25
100
AcDbVertex
100
AcDb2dVertex
 10
2.469998870519202
 20
82.75000026059963
 30
0.0
  0
VERTEX
  5
9B
330
45
100
AcDbEntity
  8
_U+30EC_U+30A4_U+30E4_U+30FC 1
 62
     1
420
 16711680
370
    25
100
AcDbVertex
100
AcDb2dVertex
 10
4.469998714913352
 20
82.75000026059963
 30
0.0
  0
VERTEX
  5
9C
330
45
100
AcDbEntity
  8
_U+30EC_U+30A4_U+30E4_U+30FC 1
 62
     1
420
 16711680
370
    25
100
AcDbVertex
100
AcDb2dVertex
 10
4.469998714913352
 20
87.03000010793214
 30
0.0
  0
VERTEX
  5
9D
330
45
100
AcDbEntity
  8
_U+30EC_U+30A4_U+30E4_U+30FC 1
 62
     1
420
 16711680
370
    25
100
AcDbVertex
100
AcDb2dVertex
 10
2.469998870519202
 20
87.03000010793214
 30
0.0
  0
VERTEX
  5
9E
330
45
100
AcDbEntity
  8
_U+30EC_U+30A4_U+30E4_U+30FC 1
 62
     1
420
 16711680
370
    25
100
AcDbVertex
100
AcDb2dVertex
 10
2.469998870519202
 20
91.54999962976294
 30
0.0
  0
VERTEX
  5
9F
330
45
100
AcDbEntity
  8
_U+30EC_U+30A4_U+30E4_U+30FC 1
 62
     1
420
 16711680
370
    25
100
AcDbVertex
100
AcDb2dVertex
 10
4.469998714913352
 20
91.54999962976294
 30
0.0
  0
VERTEX
  5
A0
330
45
100
AcDbEntity
  8
_U+30EC_U+30A4_U+30E4_U+30FC 1
 62
     1
420
 16711680
370
    25
100
AcDbVertex
100
AcDb2dVertex
 10
4.469998714913352
 20
95.82999947709544
 30
0.0
  0
VERTEX
  5
A1
330
45
100
AcDbEntity
  8
_U+30EC_U+30A4_U+30E4_U+30FC 1
 62
     1
420
 16711680
370
    25
100
AcDbVertex
100
AcDb2dVertex
 10
2.469998870519202
 20
95.82999947709544
 30
0.0
  0
VERTEX
  5
A2
330
45
100
AcDbEntity
  8
_U+30EC_U+30A4_U+30E4_U+30FC 1
 62
     1
420
 16711680
370
    25
100
AcDbVertex
100
AcDb2dVertex
 10
2.469998870519202
 20
100.3499989989266
 30
0.0
  0
SEQEND
  5
A3
330
45
100
AcDbEntity
  8
_U+30EC_U+30A4_U+30E4_U+30FC 1
 62
     1
420
 16711680
370
    25
  0
ENDBLK
  5
44
330
41
100
AcDbEntity
  8
0
100
AcDbBlockEnd
  0
BLOCK
  5
A6
330
A4
100
AcDbEntity
  8
0
100
AcDbBlockBegin
  2
block 3
 70
     0
 10
0.0
 20
0.0
 30
0.0
  3
block 3
  1

  0
POLYLINE
  5
A8
330
A4
100
AcDbEntity
  8
_U+30EC_U+30A4_U+30E4_U+30FC 1
 62
     1
420
 16711680
370
    25
100
AcDb2dPolyline
 66
     1
 10
0.0
 20
0.0
 30
0.0
  0
VERTEX
  5
A9
330
A8
100
AcDbEntity
  8
_U+30EC_U+30A4_U+30E4_U+30FC 1
 62
     1
420
 16711680
370
    25
100
AcDbVertex
100
AcDb2dVertex
 10
86.46999475740041
 20
100.3499989989266
 30
0.0
  0
VERTEX
  5
AA
330
A8
100
AcDbEntity
  8
_U+30EC_U+30A4_U+30E4_U+30FC 1
 62
     1
420
 16711680
370
    25
100
AcDbVertex
100
AcDb2dVertex
 10
91.58999427292206
 20
100.3499989989266
 30
0.0
  0
VERTEX
  5
AB
330
A8
100
AcDbEntity
  8
_U+30EC_U+30A4_U+30E4_U+30FC 1
 62
     1
420
 16711680
370
    25
100
AcDbVertex
100
AcDb2dVertex
 10
91.58999427292206
 20
98.34999915453243
 30
0.0
  0
VERTEX
  5
AC
330
A8
100
AcDbEntity
  8
_U+30EC_U+30A4_U+30E4_U+30FC 1
 62
     1
420
 16711680
370
    25
100
AcDbVertex
100
AcDb2dVertex
 10
96.46999465224042
 20
98.34999915453243
 30
0.0
  0
VERTEX
  5
AD
330
A8
100
AcDbEntity
  8
_U+30EC_U+30A4_U+30E4_U+30FC 1
 62
     1
420
 16711680
370
    25
100
AcDbVertex
100
AcDb2dVertex
 10
96.46999465224042
 20
100.3499989989266
 30
0.0
  0
VERTEX
  5
AE
330
A8
100
AcDbEntity
  8
_U+30EC_U+30A4_U+30E4_U+30FC 1
 62
     1
420
 16711680
370
    25
100
AcDbVertex
100
AcDb2dVertex
 10
100.5899936399822
 20
100.3499989989266
 30
0.0
  0
VERTEX
  5
AF
330
A8
100
AcDbEntity
  8
_U+30EC_U+30A4_U+30E4_U+30FC 1
 62
     1
420
 16711680
370
    25
100
AcDbVertex
100
AcDb2dVertex
 10
100.5899936399822
 20
98.34999915453243
 30
0.0
  0
VERTEX
  5
B0
330
A8
100
AcDbEntity
  8
_U+30EC_U+30A4_U+30E4_U+30FC 1
 62
     1
420
 16711680
370
    25
100
AcDbVertex
100
AcDb2dVertex
 10
104.4699934915207
 20
98.34999915453243
 30
0.0
  0
VERTEX
  5
B1
330
A8
100
AcDbEntity
  8
_U+30EC_U+30A4_U+30E4_U+30FC 1
 62
     1
420
 16711680
370
    25
100
AcDbVertex
100
AcDb2dVertex
 10
104.4699934915207
 20
100.3499989989266
 30
0.0
  0
VERTEX
  5
B2
330
A8
100
AcDbEntity
  8
_U+30EC_U+30A4_U+30E4_U+30FC 1
 62
     1
420
 16711680
370
    25
100
AcDbVertex
100
AcDb2dVertex
 10
108.5899924792628
 20
100.3499989989266
 30
0.0
  0
VERTEX
  5
B3
330
A8
100
AcDbEntity
  8
_U+30EC_U+30A4_U+30E4_U+30FC 1
 62
     1
420
 16711680
370
    25
100
AcDbVertex
100
AcDb2dVertex
 10
108.5899924792628
 20
98.34999915453243
 30
0.0
  0
VERTEX
  5
B4
330
A8
100
AcDbEntity
  8
_U+30EC_U+30A4_U+30E4_U+30FC 1
 62
     1
420
 16711680
370
    25
100
AcDbVertex
100
AcDb2dVertex
 10
112.469993407393
 20
98.34999915453243
 30
0.0
  0
VERTEX
  5
B5
330
A8
100
AcDbEntity
  8
_U+30EC_U+30A4_U+30E4_U+30FC 1
 62
     1
420
 16711680
370
    25
100
AcDbVertex
100
AcDb2dVertex
 10
112.469993407393
 20
100.3499989989266
 30
0.0
  0
VERTEX
  5
B6
330
A8
100
AcDbEntity
  8
_U+30EC_U+30A4_U+30E4_U+30FC 1
 62
     1
420
 16711680
370
    25
100
AcDbVertex
100
AcDb2dVertex
 10
116.5899923951344
 20
100.3499989989266
 30
0.0
  0
VERTEX
  5
B7
330
A8
100
AcDbEntity
  8
_U+30EC_U+30A4_U+30E4_U+30FC 1
 62
     1
420
 16711680
370
    25
100
AcDbVertex
100
AcDb2dVertex
 10
116.5899923951344
 20
98.34999915453243
 30
0.0
  0
VERTEX
  5
B8
330
A8
100
AcDbEntity
  8
_U+30EC_U+30A4_U+30E4_U+30FC 1
 62
     1
420
 16711680
370
    25
100
AcDbVertex
100
AcDb2dVertex
 10
120.4699933232646
 20
98.34999915453243
 30
0.0
  0
VERTEX
  5
B9
330
A8
100
AcDbEntity
  8
_U+30EC_U+30A4_U+30E4_U+30FC 1
 62
     1
420
 16711680
370
    25
100
AcDbVertex
100
AcDb2dVertex
 10
120.4699933232646
 20
100.3499989989266
 30
0.0
  0
VERTEX
  5
BA
330
A8
100
AcDbEntity
  8
_U+30EC_U+30A4_U+30E4_U+30FC 1
 62
     1
420
 16711680
370
    25
100
AcDbVertex
100
AcDb2dVertex
 10
124.5899944641893
 20
100.3499989989266
 30
0.0
  0
VERTEX
  5
BB
330
A8
100
AcDbEntity
  8
_U+30EC_U+30A4_U+30E4_U+30FC 1
 62
     1
420
 16711680
370
    25
100
AcDbVertex
100
AcDb2dVertex
 10
124.5899944641893
 20
98.34999915453243
 30
0.0
  0
VERTEX
  5
BC
330
A8
100
AcDbEntity
  8
_U+30EC_U+30A4_U+30E4_U+30FC 1
 62
     1
420
 16711680
370
    25
100
AcDbVertex
100
AcDb2dVertex
 10
128.4699910859542
 20
98.34999915453243
 30
0.0
  0
VERTEX
  5
BD
330
A8
100
AcDbEntity
  8
_U+30EC_U+30A4_U+30E4_U+30FC 1
 62
     1
420
 16711680
370
    25
100
AcDbVertex
100
AcDb2dVertex
 10
128.4699910859542
 20
100.3499989989266
 30
0.0
  0
VERTEX
  5
BE
330
A8
100
AcDbEntity
  8
_U+30EC_U+30A4_U+30E4_U+30FC 1
 62
     1
420
 16711680
370
    25
100
AcDbVertex
100
AcDb2dVertex
 10
132.5899900736957
 20
100.3499989989266
 30
0.0
  0
VERTEX
  5
BF
330
A8
100
AcDbEntity
  8
_U+30EC_U+30A4_U+30E4_U+30FC 1
 62
     1
420
 16711680
370
    25
100
AcDbVertex
100
AcDb2dVertex
 10
132.5899900736957
 20
98.34999915453243
 30
0.0
  0
VERTEX
  5
C0
330
A8
100
AcDbEntity
  8
_U+30EC_U+30A4_U+30E4_U+30FC 1
 62
     1
420
 16711680
370
    25
100
AcDbVertex
100
AcDb2dVertex
 10
136.4699910018258
 20
98.34999915453243
 30
0.0
  0
VERTEX
  5
C1
330
A8
100
AcDbEntity
  8
_U+30EC_U+30A4_U+30E4_U+30FC 1
 62
     1
420
 16711680
370
    25
100
AcDbVertex
100
AcDb2dVertex
 10
136.4699910018258
 20
100.3499989989266
 30
0.0
  0
VERTEX
  5
C2
330
A8
100
AcDbEntity
  8
_U+30EC_U+30A4_U+30E4_U+30FC 1
 62
     1
420
 16711680
370
    25
100
AcDbVertex
100
AcDb2dVertex
 10
140.5899899895673
 20
100.3499989989266
 30
0.0
  0
VERTEX
  5
C3
330
A8
100
AcDbEntity
  8
_U+30EC_U+30A4_U+30E4_U+30FC 1
 62
     1
420
 16711680
370
    25
100
AcDbVertex
100
AcDb2dVertex
 10
140.5899899895673
 20
98.34999915453243
 30
0.0
  0
VERTEX
  5
C4
330
A8
100
AcDbEntity
  8
_U+30EC_U+30A4_U+30E4_U+30FC 1
 62
     1
420
 16711680
370
    25
100
AcDbVertex
100
AcDb2dVertex
 10
144.4699909176974
 20
98.34999915453243
 30
0.0
  0
VERTEX
  5
C5
330
A8
100
AcDbEntity
  8
_U+30EC_U+30A4_U+30E4_U+30FC 1
 62
     1
420
 16711680
370
    25
100
AcDbVertex
100
AcDb2dVertex
 10
144.4699909176974
 20
100.3499989989266
 30
0.0
  0
VERTEX
  5
C6
330
A8
100
AcDbEntity
  8
_U+30EC_U+30A4_U+30E4_U+30FC 1
 62
     1
420
 16711680
370
    25
100
AcDbVertex
100
AcDb2dVertex
 10
148.5899899054396
 20
100.3499989989266
 30
0.0
  0
VERTEX
  5
C7
330
A8
100
AcDbEntity
  8
_U+30EC_U+30A4_U+30E4_U+30FC 1
 62
     1
420
 16711680
370
    25
100
AcDbVertex
100
AcDb2dVertex
 10
148.5899899054396
 20
98.34999915453243
 30
0.0
  0
VERTEX
  5
C8
330
A8
100
AcDbEntity
  8
_U+30EC_U+30A4_U+30E4_U+30FC 1
 62
     1
420
 16711680
370
    25
100
AcDbVertex
100
AcDb2dVertex
 10
152.4699908335697
 20
98.34999915453243
 30
0.0
  0
VERTEX
  5
C9
330
A8
100
AcDbEntity
  8
_U+30EC_U+30A4_U+30E4_U+30FC 1
 62
     1
420
 16711680
370
    25
100
AcDbVertex
100
AcDb2dVertex
 10
152.4699908335697
 20
100.3499989989266
 30
0.0
  0
VERTEX
  5
CA
330
A8
100
AcDbEntity
  8
_U+30EC_U+30A4_U+30E4_U+30FC 1
 62
     1
420
 16711680
370
    25
100
AcDbVertex
100
AcDb2dVertex
 10
156.5899898213118
 20
100.3499989989266
 30
0.0
  0
VERTEX
  5
CB
330
A8
100
AcDbEntity
  8
_U+30EC_U+30A4_U+30E4_U+30FC 1
 62
     1
420
 16711680
370
    25
100
AcDbVertex
100
AcDb2dVertex
 10
156.5899898213118
 20
98.34999915453243
 30
0.0
  0
VERTEX
  5
CC
330
A8
100
AcDbEntity
  8
_U+30EC_U+30A4_U+30E4_U+30FC 1
 62
     1
420
 16711680
370
    25
100
AcDbVertex
100
AcDb2dVertex
 10
161.4699934304041
 20
98.34999915453243
 30
0.0
  0
VERTEX
  5
CD
330
A8
100
AcDbEntity
  8
_U+30EC_U+30A4_U+30E4_U+30FC 1
 62
     1
420
 16711680
370
    25
100
AcDbVertex
100
AcDb2dVertex
 10
161.4699934304041
 20
100.3499989989266
 30
0.0
  0
VERTEX
  5
CE
330
A8
100
AcDbEntity
  8
_U+30EC_U+30A4_U+30E4_U+30FC 1
 62
     1
420
 16711680
370
    25
100
AcDbVertex
100
AcDb2dVertex
 10
166.5899864863772
 20
100.3499989989266
 30
0.0
  0
VERTEX
  5
CF
330
A8
100
AcDbEntity
  8
_U+30EC_U+30A4_U+30E4_U+30FC 1
 62
     1
420
 16711680
370
    25
100
AcDbVertex
100
AcDb2dVertex
 10
166.5899864863772
 20
95.82999947709544
 30
0.0
  0
VERTEX
  5
D0
330
A8
100
AcDbEntity
  8
_U+30EC_U+30A4_U+30E4_U+30FC 1
 62
     1
420
 16711680
370
    25
100
AcDbVertex
100
AcDb2dVertex
 10
164.5899897371834
 20
95.82999947709544
 30
0.0
  0
VERTEX
  5
D1
330
A8
100
AcDbEntity
  8
_U+30EC_U+30A4_U+30E4_U+30FC 1
 62
     1
420
 16711680
370
    25
100
AcDbVertex
100
AcDb2dVertex
 10
164.5899897371834
 20
91.54999962976294
 30
0.0
  0
VERTEX
  5
D2
330
A8
100
AcDbEntity
  8
_U+30EC_U+30A4_U+30E4_U+30FC 1
 62
     1
420
 16711680
370
    25
100
AcDbVertex
100
AcDb2dVertex
 10
166.5899864863772
 20
91.54999962976294
 30
0.0
  0
VERTEX
  5
D3
330
A8
100
AcDbEntity
  8
_U+30EC_U+30A4_U+30E4_U+30FC 1
 62
     1
420
 16711680
370
    25
100
AcDbVertex
100
AcDb2dVertex
 10
166.5899864863772
 20
87.03000010793214
 30
0.0
  0
VERTEX
  5
D4
330
A8
100
AcDbEntity
  8
_U+30EC_U+30A4_U+30E4_U+30FC 1
 62
     1
420
 16711680
370
    25
100
AcDbVertex
100
AcDb2dVertex
 10
164.5899897371834
 20
87.03000010793214
 30
0.0
  0
VERTEX
  5
D5
330
A8
100
AcDbEntity
  8
_U+30EC_U+30A4_U+30E4_U+30FC 1
 62
     1
420
 16711680
370
    25
100
AcDbVertex
100
AcDb2dVertex
 10
164.5899897371834
 20
82.75000026059963
 30
0.0
  0
VERTEX
  5
D6
330
A8
100
AcDbEntity
  8
_U+30EC_U+30A4_U+30E4_U+30FC 1
 62
     1
420
 16711680
370
    25
100
AcDbVertex
100
AcDb2dVertex
 10
166.5899864863772
 20
82.75000026059963
 30
0.0
  0
VERTEX
  5
D7
330
A8
100
AcDbEntity
  8
_U+30EC_U+30A4_U+30E4_U+30FC 1
 62
     1
420
 16711680
370
    25
100
AcDbVertex
100
AcDb2dVertex
 10
166.5899864863772
 20
78.23000127706416
 30
0.0
  0
VERTEX
  5
D8
330
A8
100
AcDbEntity
  8
_U+30EC_U+30A4_U+30E4_U+30FC 1
 62
     1
420
 16711680
370
    25
100
AcDbVertex
100
AcDb2dVertex
 10
161.4699934304041
 20
78.23000127706416
 30
0.0
  0
VERTEX
  5
D9
330
A8
100
AcDbEntity
  8
_U+30EC_U+30A4_U+30E4_U+30FC 1
 62
     1
420
 16711680
370
    25
100
AcDbVertex
100
AcDb2dVertex
 10
161.4699934304041
 20
80.2300001794409
 30
0.0
  0
VERTEX
  5
DA
330
A8
100
AcDbEntity
  8
_U+30EC_U+30A4_U+30E4_U+30FC 1
 62
     1
420
 16711680
370
    25
100
AcDbVertex
100
AcDb2dVertex
 10
156.5899898213118
 20
80.2300001794409
 30
0.0
  0
VERTEX
  5
DB
330
A8
100
AcDbEntity
  8
_U+30EC_U+30A4_U+30E4_U+30FC 1
 62
     1
420
 16711680
370
    25
100
AcDbVertex
100
AcDb2dVertex
 10
156.5899898213118
 20
78.23000127706416
 30
0.0
  0
VERTEX
  5
DC
330
A8
100
AcDbEntity
  8
_U+30EC_U+30A4_U+30E4_U+30FC 1
 62
     1
420
 16711680
370
    25
100
AcDbVertex
100
AcDb2dVertex
 10
152.4699908335697
 20
78.23000127706416
 30
0.0
  0
VERTEX
  5
DD
330
A8
100
AcDbEntity
  8
_U+30EC_U+30A4_U+30E4_U+30FC 1
 62
     1
420
 16711680
370
    25
100
AcDbVertex
100
AcDb2dVertex
 10
152.4699908335697
 20
80.2300001794409
 30
0.0
  0
VERTEX
  5
DE
330
A8
100
AcDbEntity
  8
_U+30EC_U+30A4_U+30E4_U+30FC 1
 62
     1
420
 16711680
370
    25
100
AcDbVertex
100
AcDb2dVertex
 10
148.5899899054396
 20
80.2300001794409
 30
0.0
  0
VERTEX
  5
DF
330
A8
100
AcDbEntity
  8
_U+30EC_U+30A4_U+30E4_U+30FC 1
 62
     1
420
 16711680
370
    25
100
AcDbVertex
100
AcDb2dVertex
 10
148.5899899054396
 20
78.23000127706416
 30
0.0
  0
VERTEX
  5
E0
330
A8
100
AcDbEntity
  8
_U+30EC_U+30A4_U+30E4_U+30FC 1
 62
     1
420
 16711680
370
    25
100
AcDbVertex
100
AcDb2dVertex
 10
144.4699909176974
 20
78.23000127706416
 30
0.0
  0
VERTEX
  5
E1
330
A8
100
AcDbEntity
  8
_U+30EC_U+30A4_U+30E4_U+30FC 1
 62
     1
420
 16711680
370
    25
100
AcDbVertex
100
AcDb2dVertex
 10
144.4699909176974
 20
80.2300001794409
 30
0.0
  0
VERTEX
  5
E2
330
A8
100
AcDbEntity
  8
_U+30EC_U+30A4_U+30E4_U+30FC 1
 62
     1
420
 16711680
370
    25
100
AcDbVertex
100
AcDb2dVertex
 10
140.5899899895673
 20
80.2300001794409
 30
0.0
  0
VERTEX
  5
E3
330
A8
100
AcDbEntity
  8
_U+30EC_U+30A4_U+30E4_U+30FC 1
 62
     1
420
 16711680
370
    25
100
AcDbVertex
100
AcDb2dVertex
 10
140.5899899895673
 20
78.23000127706416
 30
0.0
  0
VERTEX
  5
E4
330
A8
100
AcDbEntity
  8
_U+30EC_U+30A4_U+30E4_U+30FC 1
 62
     1
420
 16711680
370
    25
100
AcDbVertex
100
AcDb2dVertex
 10
136.4699910018258
 20
78.23000127706416
 30
0.0
  0
VERTEX
  5
E5
330
A8
100
AcDbEntity
  8
_U+30EC_U+30A4_U+30E4_U+30FC 1
 62
     1
420
 16711680
370
    25
100
AcDbVertex
100
AcDb2dVertex
 10
136.4699910018258
 20
80.2300001794409
 30
0.0
  0
VERTEX
  5
E6
330
A8
100
AcDbEntity
  8
_U+30EC_U+30A4_U+30E4_U+30FC 1
 62
     1
420
 16711680
370
    25
100
AcDbVertex
100
AcDb2dVertex
 10
132.5899900736957
 20
80.2300001794409
 30
0.0
  0
VERTEX
  5
E7
330
A8
100
AcDbEntity
  8
_U+30EC_U+30A4_U+30E4_U+30FC 1
 62
     1
420
 16711680
370
    25
100
AcDbVertex
100
AcDb2dVertex
 10
132.5899900736957
 20
78.23000127706416
 30
0.0
  0
VERTEX
  5
E8
330
A8
100
AcDbEntity
  8
_U+30EC_U+30A4_U+30E4_U+30FC 1
 62
     1
420
 16711680
370
    25
100
AcDbVertex
100
AcDb2dVertex
 10
128.4699910859542
 20
78.23000127706416
 30
0.0
  0
VERTEX
  5
E9
330
A8
100
AcDbEntity
  8
_U+30EC_U+30A4_U+30E4_U+30FC 1
 62
     1
420
 16711680
370
    25
100
AcDbVertex
100
AcDb2dVertex
 10
128.4699910859542
 20
80.2300001794409
 30
0.0
  0
VERTEX
  5
EA
330
A8
100
AcDbEntity
  8
_U+30EC_U+30A4_U+30E4_U+30FC 1
 62
     1
420
 16711680
370
    25
100
AcDbVertex
100
AcDb2dVertex
 10
124.5899944641893
 20
80.2300001794409
 30
0.0
  0
VERTEX
  5
EB
330
A8
100
AcDbEntity
  8
_U+30EC_U+30A4_U+30E4_U+30FC 1
 62
     1
420
 16711680
370
    25
100
AcDbVertex
100
AcDb2dVertex
 10
124.5899944641893
 20
78.23000127706416
 30
0.0
  0
VERTEX
  5
EC
330
A8
100
AcDbEntity
  8
_U+30EC_U+30A4_U+30E4_U+30FC 1
 62
     1
420
 16711680
370
    25
100
AcDbVertex
100
AcDb2dVertex
 10
120.4699933232646
 20
78.23000127706416
 30
0.0
  0
VERTEX
  5
ED
330
A8
100
AcDbEntity
  8
_U+30EC_U+30A4_U+30E4_U+30FC 1
 62
     1
420
 16711680
370
    25
100
AcDbVertex
100
AcDb2dVertex
 10
120.4699933232646
 20
80.2300001794409
 30
0.0
  0
VERTEX
  5
EE
330
A8
100
AcDbEntity
  8
_U+30EC_U+30A4_U+30E4_U+30FC 1
 62
     1
420
 16711680
370
    25
100
AcDbVertex
100
AcDb2dVertex
 10
116.5899923951344
 20
80.2300001794409
 30
0.0
  0
VERTEX
  5
EF
330
A8
100
AcDbEntity
  8
_U+30EC_U+30A4_U+30E4_U+30FC 1
 62
     1
420
 16711680
370
    25
100
AcDbVertex
100
AcDb2dVertex
 10
116.5899923951344
 20
78.23000127706416
 30
0.0
  0
VERTEX
  5
F0
330
A8
100
AcDbEntity
  8
_U+30EC_U+30A4_U+30E4_U+30FC 1
 62
     1
420
 16711680
370
    25
100
AcDbVertex
100
AcDb2dVertex
 10
112.469993407393
 20
78.23000127706416
 30
0.0
  0
VERTEX
  5
F1
330
A8
100
AcDbEntity
  8
_U+30EC_U+30A4_U+30E4_U+30FC 1
 62
     1
420
 16711680
370
    25
100
AcDbVertex
100
AcDb2dVertex
 10
112.469993407393
 20
80.2300001794409
 30
0.0
  0
VERTEX
  5
F2
330
A8
100
AcDbEntity
  8
_U+30EC_U+30A4_U+30E4_U+30FC 1
 62
     1
420
 16711680
370
    25
100
AcDbVertex
100
AcDb2dVertex
 10
108.5899924792628
 20
80.2300001794409
 30
0.0
  0
VERTEX
  5
F3
330
A8
100
AcDbEntity
  8
_U+30EC_U+30A4_U+30E4_U+30FC 1
 62
     1
420
 16711680
370
    25
100
AcDbVertex
100
AcDb2dVertex
 10
108.5899924792628
 20
78.23000127706416
 30
0.0
  0
VERTEX
  5
F4
330
A8
100
AcDbEntity
  8
_U+30EC_U+30A4_U+30E4_U+30FC 1
 62
     1
420
 16711680
370
    25
100
AcDbVertex
100
AcDb2dVertex
 10
104.4699934915207
 20
78.23000127706416
 30
0.0
  0
VERTEX
  5
F5
330
A8
100
AcDbEntity
  8
_U+30EC_U+30A4_U+30E4_U+30FC 1
 62
     1
420
 16711680
370
    25
100
AcDbVertex
100
AcDb2dVertex
 10
104.4699934915207
 20
80.2300001794409
 30
0.0
  0
VERTEX
  5
F6
330
A8
100
AcDbEntity
  8
_U+30EC_U+30A4_U+30E4_U+30FC 1
 62
     1
420
 16711680
370
    25
100
AcDbVertex
100
AcDb2dVertex
 10
100.5899936399822
 20
80.2300001794409
 30
0.0
  0
VERTEX
  5
F7
330
A8
100
AcDbEntity
  8
_U+30EC_U+30A4_U+30E4_U+30FC 1
 62
     1
420
 16711680
370
    25
100
AcDbVertex
100
AcDb2dVertex
 10
100.5899936399822
 20
78.23000127706416
 30
0.0
  0
VERTEX
  5
F8
330
A8
100
AcDbEntity
  8
_U+30EC_U+30A4_U+30E4_U+30FC 1
 62
     1
420
 16711680
370
    25
100
AcDbVertex
100
AcDb2dVertex
 10
96.46999465224042
 20
78.23000127706416
 30
0.0
  0
VERTEX
  5
F9
330
A8
100
AcDbEntity
  8
_U+30EC_U+30A4_U+30E4_U+30FC 1
 62
     1
420
 16711680
370
    25
100
AcDbVertex
100
AcDb2dVertex
 10
96.46999465224042
 20
80.2300001794409
 30
0.0
  0
VERTEX
  5
FA
330
A8
100
AcDbEntity
  8
_U+30EC_U+30A4_U+30E4_U+30FC 1
 62
     1
420
 16711680
370
    25
100
AcDbVertex
100
AcDb2dVertex
 10
91.58999427292206
 20
80.2300001794409
 30
0.0
  0
VERTEX
  5
FB
330
A8
100
AcDbEntity
  8
_U+30EC_U+30A4_U+30E4_U+30FC 1
 62
     1
420
 16711680
370
    25
100
AcDbVertex
100
AcDb2dVertex
 10
91.58999427292206
 20
78.23000127706416
 30
0.0
  0
VERTEX
  5
FC
330
A8
100
AcDbEntity
  8
_U+30EC_U+30A4_U+30E4_U+30FC 1
 62
     1
420
 16711680
370
    25
100
AcDbVertex
100
AcDb2dVertex
 10
86.46999475740041
 20
78.23000127706416
 30
0.0
  0
VERTEX
  5
FD
330
A8
100
AcDbEntity
  8
_U+30EC_U+30A4_U+30E4_U+30FC 1
 62
     1
420
 16711680
370
    25
100
AcDbVertex
100
AcDb2dVertex
 10
86.46999475740041
 20
82.75000026059963
 30
0.0
  0
VERTEX
  5
FE
330
A8
100
AcDbEntity
  8
_U+30EC_U+30A4_U+30E4_U+30FC 1
 62
     1
420
 16711680
370
    25
100
AcDbVertex
100
AcDb2dVertex
 10
88.46999460179457
 20
82.75000026059963
 30
0.0
  0
VERTEX
  5
FF
330
A8
100
AcDbEntity
  8
_U+30EC_U+30A4_U+30E4_U+30FC 1
 62
     1
420
 16711680
370
    25
100
AcDbVertex
100
AcDb2dVertex
 10
88.46999460179457
 20
87.03000010793214
 30
0.0
  0
VERTEX
  5
100
330
A8
100
AcDbEntity
  8
_U+30EC_U+30A4_U+30E4_U+30FC 1
 62
     1
420
 16711680
370
    25
100
AcDbVertex
100
AcDb2dVertex
 10
86.46999475740041
 20
87.03000010793214
 30
0.0
  0
VERTEX
  5
101
330
A8
100
AcDbEntity
  8
_U+30EC_U+30A4_U+30E4_U+30FC 1
 62
     1
420
 16711680
370
    25
100
AcDbVertex
100
AcDb2dVertex
 10
86.46999475740041
 20
91.54999962976294
 30
0.0
  0
VERTEX
  5
102
330
A8
100
AcDbEntity
  8
_U+30EC_U+30A4_U+30E4_U+30FC 1
 62
     1
420
 16711680
370
    25
100
AcDbVertex
100
AcDb2dVertex
 10
88.46999460179457
 20
91.54999962976294
 30
0.0
  0
VERTEX
  5
103
330
A8
100
AcDbEntity
  8
_U+30EC_U+30A4_U+30E4_U+30FC 1
 62
     1
420
 16711680
370
    25
100
AcDbVertex
100
AcDb2dVertex
 10
88.46999460179457
 20
95.82999947709544
 30
0.0
  0
VERTEX
  5
104
330
A8
100
AcDbEntity
  8
_U+30EC_U+30A4_U+30E4_U+30FC 1
 62
     1
420
 16711680
370
    25
100
AcDbVertex
100
AcDb2dVertex
 10
86.46999475740041
 20
95.82999947709544
 30
0.0
  0
VERTEX
  5
105
330
A8
100
AcDbEntity
  8
_U+30EC_U+30A4_U+30E4_U+30FC 1
 62
     1
420
 16711680
370
    25
100
AcDbVertex
100
AcDb2dVertex
 10
86.46999475740041
 20
100.3499989989266
 30
0.0
  0
SEQEND
  5
106
330
A8
100
AcDbEntity
  8
_U+30EC_U+30A4_U+30E4_U+30FC 1
 62
     1
420
 16711680
370
    25
  0
ENDBLK
  5
A7
330
A4
100
AcDbEntity
  8
0
100
AcDbBlockEnd
  0
BLOCK
  5
109
330
107
100
AcDbEntity
  8
0
100
AcDbBlockBegin
  2
block 4
 70
     0
 10
0.0
 20
0.0
 30
0.0
  3
block 4
  1

  0
POLYLINE
  5
10B
330
107
100
AcDbEntity
  8
_U+30EC_U+30A4_U+30E4_U+30FC 1
 62
     1
420
 16711680
370
    25
100
AcDb2dPolyline
 66
     1
 10
0.0
 20
0.0
 30
0.0
  0
VERTEX
  5
10C
330
10B
100
AcDbEntity
  8
_U+30EC_U+30A4_U+30E4_U+30FC 1
 62
     1
420
 16711680
370
    25
100
AcDbVertex
100
AcDb2dVertex
 10
170.6694483945834
 20
100.3499989989266
 30
0.0
  0
VERTEX
  5
10D
330
10B
100
AcDbEntity
  8
_U+30EC_U+30A4_U+30E4_U+30FC 1
 62
     1
420
 16711680
370
    25
100
AcDbVertex
100
AcDb2dVertex
 10
175.2894483190846
 20
100.3499989989266
 30
0.0
  0
VERTEX
  5
10E
330
10B
100
AcDbEntity
  8
_U+30EC_U+30A4_U+30E4_U+30FC 1
 62
     1
420
 16711680
370
    25
100
AcDbVertex
100
AcDb2dVertex
 10
175.2894483190846
 20
98.34999915453243
 30
0.0
  0
VERTEX
  5
10F
330
10B
100
AcDbEntity
  8
_U+30EC_U+30A4_U+30E4_U+30FC 1
 62
     1
420
 16711680
370
    25
100
AcDbVertex
100
AcDb2dVertex
 10
181.6694478751855
 20
98.34999915453243
 30
0.0
  0
VERTEX
  5
110
330
10B
100
AcDbEntity
  8
_U+30EC_U+30A4_U+30E4_U+30FC 1
 62
     1
420
 16711680
370
    25
100
AcDbVertex
100
AcDb2dVertex
 10
181.6694478751855
 20
100.3499989989266
 30
0.0
  0
VERTEX
  5
111
330
10B
100
AcDbEntity
  8
_U+30EC_U+30A4_U+30E4_U+30FC 1
 62
     1
420
 16711680
370
    25
100
AcDbVertex
100
AcDb2dVertex
 10
185.7894479395183
 20
100.3499989989266
 30
0.0
  0
VERTEX
  5
112
330
10B
100
AcDbEntity
  8
_U+30EC_U+30A4_U+30E4_U+30FC 1
 62
     1
420
 16711680
370
    25
100
AcDbVertex
100
AcDb2dVertex
 10
185.7894479395183
 20
98.34999915453243
 30
0.0
  0
VERTEX
  5
113
330
10B
100
AcDbEntity
  8
_U+30EC_U+30A4_U+30E4_U+30FC 1
 62
     1
420
 16711680
370
    25
100
AcDbVertex
100
AcDb2dVertex
 10
189.6694467144659
 20
98.34999915453243
 30
0.0
  0
VERTEX
  5
114
330
10B
100
AcDbEntity
  8
_U+30EC_U+30A4_U+30E4_U+30FC 1
 62
     1
420
 16711680
370
    25
100
AcDbVertex
100
AcDb2dVertex
 10
189.6694467144659
 20
100.3499989989266
 30
0.0
  0
VERTEX
  5
115
330
10B
100
AcDbEntity
  8
_U+30EC_U+30A4_U+30E4_U+30FC 1
 62
     1
420
 16711680
370
    25
100
AcDbVertex
100
AcDb2dVertex
 10
193.7894478553899
 20
100.3499989989266
 30
0.0
  0
VERTEX
  5
116
330
10B
100
AcDbEntity
  8
_U+30EC_U+30A4_U+30E4_U+30FC 1
 62
     1
420
 16711680
370
    25
100
AcDbVertex
100
AcDb2dVertex
 10
193.7894478553899
 20
98.34999915453243
 30
0.0
  0
VERTEX
  5
117
330
10B
100
AcDbEntity
  8
_U+30EC_U+30A4_U+30E4_U+30FC 1
 62
     1
420
 16711680
370
    25
100
AcDbVertex
100
AcDb2dVertex
 10
197.6694466303375
 20
98.34999915453243
 30
0.0
  0
VERTEX
  5
118
330
10B
100
AcDbEntity
  8
_U+30EC_U+30A4_U+30E4_U+30FC 1
 62
     1
420
 16711680
370
    25
100
AcDbVertex
100
AcDb2dVertex
 10
197.6694466303375
 20
100.3499989989266
 30
0.0
  0
VERTEX
  5
119
330
10B
100
AcDbEntity
  8
_U+30EC_U+30A4_U+30E4_U+30FC 1
 62
     1
420
 16711680
370
    25
100
AcDbVertex
100
AcDb2dVertex
 10
201.7894456180796
 20
100.3499989989266
 30
0.0
  0
VERTEX
  5
11A
330
10B
100
AcDbEntity
  8
_U+30EC_U+30A4_U+30E4_U+30FC 1
 62
     1
420
 16711680
370
    25
100
AcDbVertex
100
AcDb2dVertex
 10
201.7894456180796
 20
98.34999915453243
 30
0.0
  0
VERTEX
  5
11B
330
10B
100
AcDbEntity
  8
_U+30EC_U+30A4_U+30E4_U+30FC 1
 62
     1
420
 16711680
370
    25
100
AcDbVertex
100
AcDb2dVertex
 10
205.6694443930271
 20
98.34999915453243
 30
0.0
  0
VERTEX
  5
11C
330
10B
100
AcDbEntity
  8
_U+30EC_U+30A4_U+30E4_U+30FC 1
 62
     1
420
 16711680
370
    25
100
AcDbVertex
100
AcDb2dVertex
 10
205.6694443930271
 20
100.3499989989266
 30
0.0
  0
VERTEX
  5
11D
330
10B
100
AcDbEntity
  8
_U+30EC_U+30A4_U+30E4_U+30FC 1
 62
     1
420
 16711680
370
    25
100
AcDbVertex
100
AcDb2dVertex
 10
209.7894476871345
 20
100.3499989989266
 30
0.0
  0
VERTEX
  5
11E
330
10B
100
AcDbEntity
  8
_U+30EC_U+30A4_U+30E4_U+30FC 1
 62
     1
420
 16711680
370
    25
100
AcDbVertex
100
AcDb2dVertex
 10
209.7894476871345
 20
98.34999915453243
 30
0.0
  0
VERTEX
  5
11F
330
10B
100
AcDbEntity
  8
_U+30EC_U+30A4_U+30E4_U+30FC 1
 62
     1
420
 16711680
370
    25
100
AcDbVertex
100
AcDb2dVertex
 10
213.6694443088987
 20
98.34999915453243
 30
0.0
  0
VERTEX
  5
120
330
10B
100
AcDbEntity
  8
_U+30EC_U+30A4_U+30E4_U+30FC 1
 62
     1
420
 16711680
370
    25
100
AcDbVertex
100
AcDb2dVertex
 10
213.6694443088987
 20
100.3499989989266
 30
0.0
  0
VERTEX
  5
121
330
10B
100
AcDbEntity
  8
_U+30EC_U+30A4_U+30E4_U+30FC 1
 62
     1
420
 16711680
370
    25
100
AcDbVertex
100
AcDb2dVertex
 10
217.7894476030061
 20
100.3499989989266
 30
0.0
  0
VERTEX
  5
122
330
10B
100
AcDbEntity
  8
_U+30EC_U+30A4_U+30E4_U+30FC 1
 62
     1
420
 16711680
370
    25
100
AcDbVertex
100
AcDb2dVertex
 10
217.7894476030061
 20
98.34999915453243
 30
0.0
  0
VERTEX
  5
123
330
10B
100
AcDbEntity
  8
_U+30EC_U+30A4_U+30E4_U+30FC 1
 62
     1
420
 16711680
370
    25
100
AcDbVertex
100
AcDb2dVertex
 10
221.6694442247703
 20
98.34999915453243
 30
0.0
  0
VERTEX
  5
124
330
10B
100
AcDbEntity
  8
_U+30EC_U+30A4_U+30E4_U+30FC 1
 62
     1
420
 16711680
370
    25
100
AcDbVertex
100
AcDb2dVertex
 10
221.6694442247703
 20
100.3499989989266
 30
0.0
  0
VERTEX
  5
125
330
10B
100
AcDbEntity
  8
_U+30EC_U+30A4_U+30E4_U+30FC 1
 62
     1
420
 16711680
370
    25
100
AcDbVertex
100
AcDb2dVertex
 10
225.7894432125124
 20
100.3499989989266
 30
0.0
  0
VERTEX
  5
126
330
10B
100
AcDbEntity
  8
_U+30EC_U+30A4_U+30E4_U+30FC 1
 62
     1
420
 16711680
370
    25
100
AcDbVertex
100
AcDb2dVertex
 10
225.7894432125124
 20
98.34999915453243
 30
0.0
  0
VERTEX
  5
127
330
10B
100
AcDbEntity
  8
_U+30EC_U+30A4_U+30E4_U+30FC 1
 62
     1
420
 16711680
370
    25
100
AcDbVertex
100
AcDb2dVertex
 10
232.1694443835004
 20
98.34999915453243
 30
0.0
  0
VERTEX
  5
128
330
10B
100
AcDbEntity
  8
_U+30EC_U+30A4_U+30E4_U+30FC 1
 62
     1
420
 16711680
370
    25
100
AcDbVertex
100
AcDb2dVertex
 10
232.1694443835004
 20
100.3499989989266
 30
0.0
  0
VERTEX
  5
129
330
10B
100
AcDbEntity
  8
_U+30EC_U+30A4_U+30E4_U+30FC 1
 62
     1
420
 16711680
370
    25
100
AcDbVertex
100
AcDb2dVertex
 10
236.7894425585407
 20
100.3499989989266
 30
0.0
  0
VERTEX
  5
12A
330
10B
100
AcDbEntity
  8
_U+30EC_U+30A4_U+30E4_U+30FC 1
 62
     1
420
 16711680
370
    25
100
AcDbVertex
100
AcDb2dVertex
 10
236.7894425585407
 20
95.94999931434492
 30
0.0
  0
VERTEX
  5
12B
330
10B
100
AcDbEntity
  8
_U+30EC_U+30A4_U+30E4_U+30FC 1
 62
     1
420
 16711680
370
    25
100
AcDbVertex
100
AcDb2dVertex
 10
238.7894436141003
 20
95.94999931434492
 30
0.0
  0
VERTEX
  5
12C
330
10B
100
AcDbEntity
  8
_U+30EC_U+30A4_U+30E4_U+30FC 1
 62
     1
420
 16711680
370
    25
100
AcDbVertex
100
AcDb2dVertex
 10
238.7894436141003
 20
91.42999952336596
 30
0.0
  0
VERTEX
  5
12D
330
10B
100
AcDbEntity
  8
_U+30EC_U+30A4_U+30E4_U+30FC 1
 62
     1
420
 16711680
370
    25
100
AcDbVertex
100
AcDb2dVertex
 10
236.7894425585407
 20
91.42999952336596
 30
0.0
  0
VERTEX
  5
12E
330
10B
100
AcDbEntity
  8
_U+30EC_U+30A4_U+30E4_U+30FC 1
 62
     1
420
 16711680
370
    25
100
AcDbVertex
100
AcDb2dVertex
 10
236.7894425585407
 20
87.15000021432911
 30
0.0
  0
VERTEX
  5
12F
330
10B
100
AcDbEntity
  8
_U+30EC_U+30A4_U+30E4_U+30FC 1
 62
     1
420
 16711680
370
    25
100
AcDbVertex
100
AcDb2dVertex
 10
238.7894436141003
 20
87.15000021432911
 30
0.0
  0
VERTEX
  5
130
330
10B
100
AcDbEntity
  8
_U+30EC_U+30A4_U+30E4_U+30FC 1
 62
     1
420
 16711680
370
    25
100
AcDbVertex
100
AcDb2dVertex
 10
238.7894436141003
 20
82.63000015420234
 30
0.0
  0
VERTEX
  5
131
330
10B
100
AcDbEntity
  8
_U+30EC_U+30A4_U+30E4_U+30FC 1
 62
     1
420
 16711680
370
    25
100
AcDbVertex
100
AcDb2dVertex
 10
236.7894425585407
 20
82.63000015420234
 30
0.0
  0
VERTEX
  5
132
330
10B
100
AcDbEntity
  8
_U+30EC_U+30A4_U+30E4_U+30FC 1
 62
     1
420
 16711680
370
    25
100
AcDbVertex
100
AcDb2dVertex
 10
236.7894425585407
 20
78.23000127706416
 30
0.0
  0
VERTEX
  5
133
330
10B
100
AcDbEntity
  8
_U+30EC_U+30A4_U+30E4_U+30FC 1
 62
     1
420
 16711680
370
    25
100
AcDbVertex
100
AcDb2dVertex
 10
232.1694443835004
 20
78.23000127706416
 30
0.0
  0
VERTEX
  5
134
330
10B
100
AcDbEntity
  8
_U+30EC_U+30A4_U+30E4_U+30FC 1
 62
     1
420
 16711680
370
    25
100
AcDbVertex
100
AcDb2dVertex
 10
232.1694443835004
 20
80.2300001794409
 30
0.0
  0
VERTEX
  5
135
330
10B
100
AcDbEntity
  8
_U+30EC_U+30A4_U+30E4_U+30FC 1
 62
     1
420
 16711680
370
    25
100
AcDbVertex
100
AcDb2dVertex
 10
225.7894432125124
 20
80.2300001794409
 30
0.0
  0
VERTEX
  5
136
330
10B
100
AcDbEntity
  8
_U+30EC_U+30A4_U+30E4_U+30FC 1
 62
     1
420
 16711680
370
    25
100
AcDbVertex
100
AcDb2dVertex
 10
225.7894432125124
 20
78.23000127706416
 30
0.0
  0
VERTEX
  5
137
330
10B
100
AcDbEntity
  8
_U+30EC_U+30A4_U+30E4_U+30FC 1
 62
     1
420
 16711680
370
    25
100
AcDbVertex
100
AcDb2dVertex
 10
221.6694442247703
 20
78.23000127706416
 30
0.0
  0
VERTEX
  5
138
330
10B
100
AcDbEntity
  8
_U+30EC_U+30A4_U+30E4_U+30FC 1
 62
     1
420
 16711680
370
    25
100
AcDbVertex
100
AcDb2dVertex
 10
221.6694442247703
 20
80.2300001794409
 30
0.0
  0
VERTEX
  5
139
330
10B
100
AcDbEntity
  8
_U+30EC_U+30A4_U+30E4_U+30FC 1
 62
     1
420
 16711680
370
    25
100
AcDbVertex
100
AcDb2dVertex
 10
217.7894476030061
 20
80.2300001794409
 30
0.0
  0
VERTEX
  5
13A
330
10B
100
AcDbEntity
  8
_U+30EC_U+30A4_U+30E4_U+30FC 1
 62
     1
420
 16711680
370
    25
100
AcDbVertex
100
AcDb2dVertex
 10
217.7894476030061
 20
78.23000127706416
 30
0.0
  0
VERTEX
  5
13B
330
10B
100
AcDbEntity
  8
_U+30EC_U+30A4_U+30E4_U+30FC 1
 62
     1
420
 16711680
370
    25
100
AcDbVertex
100
AcDb2dVertex
 10
213.6694443088987
 20
78.23000127706416
 30
0.0
  0
VERTEX
  5
13C
330
10B
100
AcDbEntity
  8
_U+30EC_U+30A4_U+30E4_U+30FC 1
 62
     1
420
 16711680
370
    25
100
AcDbVertex
100
AcDb2dVertex
 10
213.6694443088987
 20
80.2300001794409
 30
0.0
  0
VERTEX
  5
13D
330
10B
100
AcDbEntity
  8
_U+30EC_U+30A4_U+30E4_U+30FC 1
 62
     1
420
 16711680
370
    25
100
AcDbVertex
100
AcDb2dVertex
 10
209.7894476871345
 20
80.2300001794409
 30
0.0
  0
VERTEX
  5
13E
330
10B
100
AcDbEntity
  8
_U+30EC_U+30A4_U+30E4_U+30FC 1
 62
     1
420
 16711680
370
    25
100
AcDbVertex
100
AcDb2dVertex
 10
209.7894476871345
 20
78.23000127706416
 30
0.0
  0
VERTEX
  5
13F
330
10B
100
AcDbEntity
  8
_U+30EC_U+30A4_U+30E4_U+30FC 1
 62
     1
420
 16711680
370
    25
100
AcDbVertex
100
AcDb2dVertex
 10
205.6694443930271
 20
78.23000127706416
 30
0.0
  0
VERTEX
  5
140
330
10B
100
AcDbEntity
  8
_U+30EC_U+30A4_U+30E4_U+30FC 1
 62
     1
420
 16711680
370
    25
100
AcDbVertex
100
AcDb2dVertex
 10
205.6694443930271
 20
80.2300001794409
 30
0.0
  0
VERTEX
  5
141
330
10B
100
AcDbEntity
  8
_U+30EC_U+30A4_U+30E4_U+30FC 1
 62
     1
420
 16711680
370
    25
100
AcDbVertex
100
AcDb2dVertex
 10
201.7894456180796
 20
80.2300001794409
 30
0.0
  0
VERTEX
  5
142
330
10B
100
AcDbEntity
  8
_U+30EC_U+30A4_U+30E4_U+30FC 1
 62
     1
420
 16711680
370
    25
100
AcDbVertex
100
AcDb2dVertex
 10
201.7894456180796
 20
78.23000127706416
 30
0.0
  0
VERTEX
  5
143
330
10B
100
AcDbEntity
  8
_U+30EC_U+30A4_U+30E4_U+30FC 1
 62
     1
420
 16711680
370
    25
100
AcDbVertex
100
AcDb2dVertex
 10
197.6694466303375
 20
78.23000127706416
 30
0.0
  0
VERTEX
  5
144
330
10B
100
AcDbEntity
  8
_U+30EC_U+30A4_U+30E4_U+30FC 1
 62
     1
420
 16711680
370
    25
100
AcDbVertex
100
AcDb2dVertex
 10
197.6694466303375
 20
80.2300001794409
 30
0.0
  0
VERTEX
  5
145
330
10B
100
AcDbEntity
  8
_U+30EC_U+30A4_U+30E4_U+30FC 1
 62
     1
420
 16711680
370
    25
100
AcDbVertex
100
AcDb2dVertex
 10
193.7894478553899
 20
80.2300001794409
 30
0.0
  0
VERTEX
  5
146
330
10B
100
AcDbEntity
  8
_U+30EC_U+30A4_U+30E4_U+30FC 1
 62
     1
420
 16711680
370
    25
100
AcDbVertex
100
AcDb2dVertex
 10
193.7894478553899
 20
78.23000127706416
 30
0.0
  0
VERTEX
  5
147
330
10B
100
AcDbEntity
  8
_U+30EC_U+30A4_U+30E4_U+30FC 1
 62
     1
420
 16711680
370
    25
100
AcDbVertex
100
AcDb2dVertex
 10
189.6694467144659
 20
78.23000127706416
 30
0.0
  0
VERTEX
  5
148
330
10B
100
AcDbEntity
  8
_U+30EC_U+30A4_U+30E4_U+30FC 1
 62
     1
420
 16711680
370
    25
100
AcDbVertex
100
AcDb2dVertex
 10
189.6694467144659
 20
80.2300001794409
 30
0.0
  0
VERTEX
  5
149
330
10B
100
AcDbEntity
  8
_U+30EC_U+30A4_U+30E4_U+30FC 1
 62
     1
420
 16711680
370
    25
100
AcDbVertex
100
AcDb2dVertex
 10
185.7894479395183
 20
80.2300001794409
 30
0.0
  0
VERTEX
  5
14A
330
10B
100
AcDbEntity
  8
_U+30EC_U+30A4_U+30E4_U+30FC 1
 62
     1
420
 16711680
370
    25
100
AcDbVertex
100
AcDb2dVertex
 10
185.7894479395183
 20
78.23000127706416
 30
0.0
  0
VERTEX
  5
14B
330
10B
100
AcDbEntity
  8
_U+30EC_U+30A4_U+30E4_U+30FC 1
 62
     1
420
 16711680
370
    25
100
AcDbVertex
100
AcDb2dVertex
 10
181.6694478751855
 20
78.23000127706416
 30
0.0
  0
VERTEX
  5
14C
330
10B
100
AcDbEntity
  8
_U+30EC_U+30A4_U+30E4_U+30FC 1
 62
     1
420
 16711680
370
    25
100
AcDbVertex
100
AcDb2dVertex
 10
181.6694478751855
 20
80.2300001794409
 30
0.0
  0
VERTEX
  5
14D
330
10B
100
AcDbEntity
  8
_U+30EC_U+30A4_U+30E4_U+30FC 1
 62
     1
420
 16711680
370
    25
100
AcDbVertex
100
AcDb2dVertex
 10
175.2894483190846
 20
80.2300001794409
 30
0.0
  0
VERTEX
  5
14E
330
10B
100
AcDbEntity
  8
_U+30EC_U+30A4_U+30E4_U+30FC 1
 62
     1
420
 16711680
370
    25
100
AcDbVertex
100
AcDb2dVertex
 10
175.2894483190846
 20
78.23000127706416
 30
0.0
  0
VERTEX
  5
14F
330
10B
100
AcDbEntity
  8
_U+30EC_U+30A4_U+30E4_U+30FC 1
 62
     1
420
 16711680
370
    25
100
AcDbVertex
100
AcDb2dVertex
 10
170.6694483945834
 20
78.23000127706416
 30
0.0
  0
VERTEX
  5
150
330
10B
100
AcDbEntity
  8
_U+30EC_U+30A4_U+30E4_U+30FC 1
 62
     1
420
 16711680
370
    25
100
AcDbVertex
100
AcDb2dVertex
 10
170.6694483945834
 20
82.63000015420234
 30
0.0
  0
VERTEX
  5
151
330
10B
100
AcDbEntity
  8
_U+30EC_U+30A4_U+30E4_U+30FC 1
 62
     1
420
 16711680
370
    25
100
AcDbVertex
100
AcDb2dVertex
 10
168.6694485501889
 20
82.63000015420234
 30
0.0
  0
VERTEX
  5
152
330
10B
100
AcDbEntity
  8
_U+30EC_U+30A4_U+30E4_U+30FC 1
 62
     1
420
 16711680
370
    25
100
AcDbVertex
100
AcDb2dVertex
 10
168.6694485501889
 20
87.15000021432911
 30
0.0
  0
VERTEX
  5
153
330
10B
100
AcDbEntity
  8
_U+30EC_U+30A4_U+30E4_U+30FC 1
 62
     1
420
 16711680
370
    25
100
AcDbVertex
100
AcDb2dVertex
 10
170.6694483945834
 20
87.15000021432911
 30
0.0
  0
VERTEX
  5
154
330
10B
100
AcDbEntity
  8
_U+30EC_U+30A4_U+30E4_U+30FC 1
 62
     1
420
 16711680
370
    25
100
AcDbVertex
100
AcDb2dVertex
 10
170.6694483945834
 20
91.42999952336596
 30
0.0
  0
VERTEX
  5
155
330
10B
100
AcDbEntity
  8
_U+30EC_U+30A4_U+30E4_U+30FC 1
 62
     1
420
 16711680
370
    25
100
AcDbVertex
100
AcDb2dVertex
 10
168.6694485501889
 20
91.42999952336596
 30
0.0
  0
VERTEX
  5
156
330
10B
100
AcDbEntity
  8
_U+30EC_U+30A4_U+30E4_U+30FC 1
 62
     1
420
 16711680
370
    25
100
AcDbVertex
100
AcDb2dVertex
 10
168.6694485501889
 20
95.94999931434492
 30
0.0
  0
VERTEX
  5
157
330
10B
100
AcDbEntity
  8
_U+30EC_U+30A4_U+30E4_U+30FC 1
 62
     1
420
 16711680
370
    25
100
AcDbVertex
100
AcDb2dVertex
 10
170.6694483945834
 20
95.94999931434492
 30
0.0
  0
VERTEX
  5
158
330
10B
100
AcDbEntity
  8
_U+30EC_U+30A4_U+30E4_U+30FC 1
 62
     1
420
 16711680
370
    25
100
AcDbVertex
100
AcDb2dVertex
 10
170.6694483945834
 20
100.3499989989266
 30
0.0
  0
SEQEND
  5
159
330
10B
100
AcDbEntity
  8
_U+30EC_U+30A4_U+30E4_U+30FC 1
 62
     1
420
 16711680
370
    25
  0
ENDBLK
  5
10A
330
107
100
AcDbEntity
  8
0
100
AcDbBlockEnd
  0
BLOCK
  5
15C
330
15A
100
AcDbEntity
  8
0
100
AcDbBlockBegin
  2
block 5
 70
     0
 10
0.0
 20
0.0
 30
0.0
  3
block 5
  1

  0
POLYLINE
  5
15E
330
15A
100
AcDbEntity
  8
_U+30EC_U+30A4_U+30E4_U+30FC 1
 62
     1
420
 16711680
370
    25
100
AcDb2dPolyline
 66
     1
 10
0.0
 20
0.0
 30
0.0
  0
VERTEX
  5
15F
330
15E
100
AcDbEntity
  8
_U+30EC_U+30A4_U+30E4_U+30FC 1
 62
     1
420
 16711680
370
    25
100
AcDbVertex
100
AcDb2dVertex
 10
170.6694483945834
 20
72.00185263221627
 30
0.0
  0
VERTEX
  5
160
330
15E
100
AcDbEntity
  8
_U+30EC_U+30A4_U+30E4_U+30FC 1
 62
     1
420
 16711680
370
    25
100
AcDbVertex
100
AcDb2dVertex
 10
175.2894483190846
 20
72.00185263221627
 30
0.0
  0
VERTEX
  5
161
330
15E
100
AcDbEntity
  8
_U+30EC_U+30A4_U+30E4_U+30FC 1
 62
     1
420
 16711680
370
    25
100
AcDbVertex
100
AcDb2dVertex
 10
175.2894483190846
 20
70.00185278782212
 30
0.0
  0
VERTEX
  5
162
330
15E
100
AcDbEntity
  8
_U+30EC_U+30A4_U+30E4_U+30FC 1
 62
     1
420
 16711680
370
    25
100
AcDbVertex
100
AcDb2dVertex
 10
181.6694478751855
 20
70.00185278782212
 30
0.0
  0
VERTEX
  5
163
330
15E
100
AcDbEntity
  8
_U+30EC_U+30A4_U+30E4_U+30FC 1
 62
     1
420
 16711680
370
    25
100
AcDbVertex
100
AcDb2dVertex
 10
181.6694478751855
 20
72.00185263221627
 30
0.0
  0
VERTEX
  5
164
330
15E
100
AcDbEntity
  8
_U+30EC_U+30A4_U+30E4_U+30FC 1
 62
     1
420
 16711680
370
    25
100
AcDbVertex
100
AcDb2dVertex
 10
185.7894479395183
 20
72.00185263221627
 30
0.0
  0
VERTEX
  5
165
330
15E
100
AcDbEntity
  8
_U+30EC_U+30A4_U+30E4_U+30FC 1
 62
     1
420
 16711680
370
    25
100
AcDbVertex
100
AcDb2dVertex
 10
185.7894479395183
 20
70.00185278782212
 30
0.0
  0
VERTEX
  5
166
330
15E
100
AcDbEntity
  8
_U+30EC_U+30A4_U+30E4_U+30FC 1
 62
     1
420
 16711680
370
    25
100
AcDbVertex
100
AcDb2dVertex
 10
189.6694467144659
 20
70.00185278782212
 30
0.0
  0
VERTEX
  5
167
330
15E
100
AcDbEntity
  8
_U+30EC_U+30A4_U+30E4_U+30FC 1
 62
     1
420
 16711680
370
    25
100
AcDbVertex
100
AcDb2dVertex
 10
189.6694467144659
 20
72.00185263221627
 30
0.0
  0
VERTEX
  5
168
330
15E
100
AcDbEntity
  8
_U+30EC_U+30A4_U+30E4_U+30FC 1
 62
     1
420
 16711680
370
    25
100
AcDbVertex
100
AcDb2dVertex
 10
193.7894478553899
 20
72.00185263221627
 30
0.0
  0
VERTEX
  5
169
330
15E
100
AcDbEntity
  8
_U+30EC_U+30A4_U+30E4_U+30FC 1
 62
     1
420
 16711680
370
    25
100
AcDbVertex
100
AcDb2dVertex
 10
193.7894478553899
 20
70.00185278782212
 30
0.0
  0
VERTEX
  5
16A
330
15E
100
AcDbEntity
  8
_U+30EC_U+30A4_U+30E4_U+30FC 1
 62
     1
420
 16711680
370
    25
100
AcDbVertex
100
AcDb2dVertex
 10
197.6694466303375
 20
70.00185278782212
 30
0.0
  0
VERTEX
  5
16B
330
15E
100
AcDbEntity
  8
_U+30EC_U+30A4_U+30E4_U+30FC 1
 62
     1
420
 16711680
370
    25
100
AcDbVertex
100
AcDb2dVertex
 10
197.6694466303375
 20
72.00185263221627
 30
0.0
  0
VERTEX
  5
16C
330
15E
100
AcDbEntity
  8
_U+30EC_U+30A4_U+30E4_U+30FC 1
 62
     1
420
 16711680
370
    25
100
AcDbVertex
100
AcDb2dVertex
 10
201.7894456180796
 20
72.00185263221627
 30
0.0
  0
VERTEX
  5
16D
330
15E
100
AcDbEntity
  8
_U+30EC_U+30A4_U+30E4_U+30FC 1
 62
     1
420
 16711680
370
    25
100
AcDbVertex
100
AcDb2dVertex
 10
201.7894456180796
 20
70.00185278782212
 30
0.0
  0
VERTEX
  5
16E
330
15E
100
AcDbEntity
  8
_U+30EC_U+30A4_U+30E4_U+30FC 1
 62
     1
420
 16711680
370
    25
100
AcDbVertex
100
AcDb2dVertex
 10
205.6694443930271
 20
70.00185278782212
 30
0.0
  0
VERTEX
  5
16F
330
15E
100
AcDbEntity
  8
_U+30EC_U+30A4_U+30E4_U+30FC 1
 62
     1
420
 16711680
370
    25
100
AcDbVertex
100
AcDb2dVertex
 10
205.6694443930271
 20
72.00185263221627
 30
0.0
  0
VERTEX
  5
170
330
15E
100
AcDbEntity
  8
_U+30EC_U+30A4_U+30E4_U+30FC 1
 62
     1
420
 16711680
370
    25
100
AcDbVertex
100
AcDb2dVertex
 10
209.7894476871345
 20
72.00185263221627
 30
0.0
  0
VERTEX
  5
171
330
15E
100
AcDbEntity
  8
_U+30EC_U+30A4_U+30E4_U+30FC 1
 62
     1
420
 16711680
370
    25
100
AcDbVertex
100
AcDb2dVertex
 10
209.7894476871345
 20
70.00185278782212
 30
0.0
  0
VERTEX
  5
172
330
15E
100
AcDbEntity
  8
_U+30EC_U+30A4_U+30E4_U+30FC 1
 62
     1
420
 16711680
370
    25
100
AcDbVertex
100
AcDb2dVertex
 10
213.6694443088987
 20
70.00185278782212
 30
0.0
  0
VERTEX
  5
173
330
15E
100
AcDbEntity
  8
_U+30EC_U+30A4_U+30E4_U+30FC 1
 62
     1
420
 16711680
370
    25
100
AcDbVertex
100
AcDb2dVertex
 10
213.6694443088987
 20
72.00185263221627
 30
0.0
  0
VERTEX
  5
174
330
15E
100
AcDbEntity
  8
_U+30EC_U+30A4_U+30E4_U+30FC 1
 62
     1
420
 16711680
370
    25
100
AcDbVertex
100
AcDb2dVertex
 10
217.7894476030061
 20
72.00185263221627
 30
0.0
  0
VERTEX
  5
175
330
15E
100
AcDbEntity
  8
_U+30EC_U+30A4_U+30E4_U+30FC 1
 62
     1
420
 16711680
370
    25
100
AcDbVertex
100
AcDb2dVertex
 10
217.7894476030061
 20
70.00185278782212
 30
0.0
  0
VERTEX
  5
176
330
15E
100
AcDbEntity
  8
_U+30EC_U+30A4_U+30E4_U+30FC 1
 62
     1
420
 16711680
370
    25
100
AcDbVertex
100
AcDb2dVertex
 10
221.6694442247703
 20
70.00185278782212
 30
0.0
  0
VERTEX
  5
177
330
15E
100
AcDbEntity
  8
_U+30EC_U+30A4_U+30E4_U+30FC 1
 62
     1
420
 16711680
370
    25
100
AcDbVertex
100
AcDb2dVertex
 10
221.6694442247703
 20
72.00185263221627
 30
0.0
  0
VERTEX
  5
178
330
15E
100
AcDbEntity
  8
_U+30EC_U+30A4_U+30E4_U+30FC 1
 62
     1
420
 16711680
370
    25
100
AcDbVertex
100
AcDb2dVertex
 10
225.7894432125124
 20
72.00185263221627
 30
0.0
  0
VERTEX
  5
179
330
15E
100
AcDbEntity
  8
_U+30EC_U+30A4_U+30E4_U+30FC 1
 62
     1
420
 16711680
370
    25
100
AcDbVertex
100
AcDb2dVertex
 10
225.7894432125124
 20
70.00185278782212
 30
0.0
  0
VERTEX
  5
17A
330
15E
100
AcDbEntity
  8
_U+30EC_U+30A4_U+30E4_U+30FC 1
 62
     1
420
 16711680
370
    25
100
AcDbVertex
100
AcDb2dVertex
 10
232.1694443835004
 20
70.00185278782212
 30
0.0
  0
VERTEX
  5
17B
330
15E
100
AcDbEntity
  8
_U+30EC_U+30A4_U+30E4_U+30FC 1
 62
     1
420
 16711680
370
    25
100
AcDbVertex
100
AcDb2dVertex
 10
232.1694443835004
 20
72.00185263221627
 30
0.0
  0
VERTEX
  5
17C
330
15E
100
AcDbEntity
  8
_U+30EC_U+30A4_U+30E4_U+30FC 1
 62
     1
420
 16711680
370
    25
100
AcDbVertex
100
AcDb2dVertex
 10
236.7894425585407
 20
72.00185263221627
 30
0.0
  0
VERTEX
  5
17D
330
15E
100
AcDbEntity
  8
_U+30EC_U+30A4_U+30E4_U+30FC 1
 62
     1
420
 16711680
370
    25
100
AcDbVertex
100
AcDb2dVertex
 10
236.7894425585407
 20
67.60185294763461
 30
0.0
  0
VERTEX
  5
17E
330
15E
100
AcDbEntity
  8
_U+30EC_U+30A4_U+30E4_U+30FC 1
 62
     1
420
 16711680
370
    25
100
AcDbVertex
100
AcDb2dVertex
 10
238.7894436141003
 20
67.60185294763461
 30
0.0
  0
VERTEX
  5
17F
330
15E
100
AcDbEntity
  8
_U+30EC_U+30A4_U+30E4_U+30FC 1
 62
     1
420
 16711680
370
    25
100
AcDbVertex
100
AcDb2dVertex
 10
238.7894436141003
 20
63.08185315665566
 30
0.0
  0
VERTEX
  5
180
330
15E
100
AcDbEntity
  8
_U+30EC_U+30A4_U+30E4_U+30FC 1
 62
     1
420
 16711680
370
    25
100
AcDbVertex
100
AcDb2dVertex
 10
236.7894425585407
 20
63.08185315665566
 30
0.0
  0
VERTEX
  5
181
330
15E
100
AcDbEntity
  8
_U+30EC_U+30A4_U+30E4_U+30FC 1
 62
     1
420
 16711680
370
    25
100
AcDbVertex
100
AcDb2dVertex
 10
236.7894425585407
 20
58.80185384761914
 30
0.0
  0
VERTEX
  5
182
330
15E
100
AcDbEntity
  8
_U+30EC_U+30A4_U+30E4_U+30FC 1
 62
     1
420
 16711680
370
    25
100
AcDbVertex
100
AcDb2dVertex
 10
238.7894436141003
 20
58.80185384761914
 30
0.0
  0
VERTEX
  5
183
330
15E
100
AcDbEntity
  8
_U+30EC_U+30A4_U+30E4_U+30FC 1
 62
     1
420
 16711680
370
    25
100
AcDbVertex
100
AcDb2dVertex
 10
238.7894436141003
 20
54.28185378749203
 30
0.0
  0
VERTEX
  5
184
330
15E
100
AcDbEntity
  8
_U+30EC_U+30A4_U+30E4_U+30FC 1
 62
     1
420
 16711680
370
    25
100
AcDbVertex
100
AcDb2dVertex
 10
236.7894425585407
 20
54.28185378749203
 30
0.0
  0
VERTEX
  5
185
330
15E
100
AcDbEntity
  8
_U+30EC_U+30A4_U+30E4_U+30FC 1
 62
     1
420
 16711680
370
    25
100
AcDbVertex
100
AcDb2dVertex
 10
236.7894425585407
 20
49.88185491035418
 30
0.0
  0
VERTEX
  5
186
330
15E
100
AcDbEntity
  8
_U+30EC_U+30A4_U+30E4_U+30FC 1
 62
     1
420
 16711680
370
    25
100
AcDbVertex
100
AcDb2dVertex
 10
232.1694443835004
 20
49.88185491035418
 30
0.0
  0
VERTEX
  5
187
330
15E
100
AcDbEntity
  8
_U+30EC_U+30A4_U+30E4_U+30FC 1
 62
     1
420
 16711680
370
    25
100
AcDbVertex
100
AcDb2dVertex
 10
232.1694443835004
 20
51.88185381273061
 30
0.0
  0
VERTEX
  5
188
330
15E
100
AcDbEntity
  8
_U+30EC_U+30A4_U+30E4_U+30FC 1
 62
     1
420
 16711680
370
    25
100
AcDbVertex
100
AcDb2dVertex
 10
225.7894432125124
 20
51.88185381273061
 30
0.0
  0
VERTEX
  5
189
330
15E
100
AcDbEntity
  8
_U+30EC_U+30A4_U+30E4_U+30FC 1
 62
     1
420
 16711680
370
    25
100
AcDbVertex
100
AcDb2dVertex
 10
225.7894432125124
 20
49.88185491035418
 30
0.0
  0
VERTEX
  5
18A
330
15E
100
AcDbEntity
  8
_U+30EC_U+30A4_U+30E4_U+30FC 1
 62
     1
420
 16711680
370
    25
100
AcDbVertex
100
AcDb2dVertex
 10
221.6694442247703
 20
49.88185491035418
 30
0.0
  0
VERTEX
  5
18B
330
15E
100
AcDbEntity
  8
_U+30EC_U+30A4_U+30E4_U+30FC 1
 62
     1
420
 16711680
370
    25
100
AcDbVertex
100
AcDb2dVertex
 10
221.6694442247703
 20
51.88185381273061
 30
0.0
  0
VERTEX
  5
18C
330
15E
100
AcDbEntity
  8
_U+30EC_U+30A4_U+30E4_U+30FC 1
 62
     1
420
 16711680
370
    25
100
AcDbVertex
100
AcDb2dVertex
 10
217.7894476030061
 20
51.88185381273061
 30
0.0
  0
VERTEX
  5
18D
330
15E
100
AcDbEntity
  8
_U+30EC_U+30A4_U+30E4_U+30FC 1
 62
     1
420
 16711680
370
    25
100
AcDbVertex
100
AcDb2dVertex
 10
217.7894476030061
 20
49.88185491035418
 30
0.0
  0
VERTEX
  5
18E
330
15E
100
AcDbEntity
  8
_U+30EC_U+30A4_U+30E4_U+30FC 1
 62
     1
420
 16711680
370
    25
100
AcDbVertex
100
AcDb2dVertex
 10
213.6694443088987
 20
49.88185491035418
 30
0.0
  0
VERTEX
  5
18F
330
15E
100
AcDbEntity
  8
_U+30EC_U+30A4_U+30E4_U+30FC 1
 62
     1
420
 16711680
370
    25
100
AcDbVertex
100
AcDb2dVertex
 10
213.6694443088987
 20
51.88185381273061
 30
0.0
  0
VERTEX
  5
190
330
15E
100
AcDbEntity
  8
_U+30EC_U+30A4_U+30E4_U+30FC 1
 62
     1
420
 16711680
370
    25
100
AcDbVertex
100
AcDb2dVertex
 10
209.7894476871345
 20
51.88185381273061
 30
0.0
  0
VERTEX
  5
191
330
15E
100
AcDbEntity
  8
_U+30EC_U+30A4_U+30E4_U+30FC 1
 62
     1
420
 16711680
370
    25
100
AcDbVertex
100
AcDb2dVertex
 10
209.7894476871345
 20
49.88185491035418
 30
0.0
  0
VERTEX
  5
192
330
15E
100
AcDbEntity
  8
_U+30EC_U+30A4_U+30E4_U+30FC 1
 62
     1
420
 16711680
370
    25
100
AcDbVertex
100
AcDb2dVertex
 10
205.6694443930271
 20
49.88185491035418
 30
0.0
  0
VERTEX
  5
193
330
15E
100
AcDbEntity
  8
_U+30EC_U+30A4_U+30E4_U+30FC 1
 62
     1
420
 16711680
370
    25
100
AcDbVertex
100
AcDb2dVertex
 10
205.6694443930271
 20
51.88185381273061
 30
0.0
  0
VERTEX
  5
194
330
15E
100
AcDbEntity
  8
_U+30EC_U+30A4_U+30E4_U+30FC 1
 62
     1
420
 16711680
370
    25
100
AcDbVertex
100
AcDb2dVertex
 10
201.7894456180796
 20
51.88185381273061
 30
0.0
  0
VERTEX
  5
195
330
15E
100
AcDbEntity
  8
_U+30EC_U+30A4_U+30E4_U+30FC 1
 62
     1
420
 16711680
370
    25
100
AcDbVertex
100
AcDb2dVertex
 10
201.7894456180796
 20
49.88185491035418
 30
0.0
  0
VERTEX
  5
196
330
15E
100
AcDbEntity
  8
_U+30EC_U+30A4_U+30E4_U+30FC 1
 62
     1
420
 16711680
370
    25
100
AcDbVertex
100
AcDb2dVertex
 10
197.6694466303375
 20
49.88185491035418
 30
0.0
  0
VERTEX
  5
197
330
15E
100
AcDbEntity
  8
_U+30EC_U+30A4_U+30E4_U+30FC 1
 62
     1
420
 16711680
370
    25
100
AcDbVertex
100
AcDb2dVertex
 10
197.6694466303375
 20
51.88185381273061
 30
0.0
  0
VERTEX
  5
198
330
15E
100
AcDbEntity
  8
_U+30EC_U+30A4_U+30E4_U+30FC 1
 62
     1
420
 16711680
370
    25
100
AcDbVertex
100
AcDb2dVertex
 10
193.7894478553899
 20
51.88185381273061
 30
0.0
  0
VERTEX
  5
199
330
15E
100
AcDbEntity
  8
_U+30EC_U+30A4_U+30E4_U+30FC 1
 62
     1
420
 16711680
370
    25
100
AcDbVertex
100
AcDb2dVertex
 10
193.7894478553899
 20
49.88185491035418
 30
0.0
  0
VERTEX
  5
19A
330
15E
100
AcDbEntity
  8
_U+30EC_U+30A4_U+30E4_U+30FC 1
 62
     1
420
 16711680
370
    25
100
AcDbVertex
100
AcDb2dVertex
 10
189.6694467144659
 20
49.88185491035418
 30
0.0
  0
VERTEX
  5
19B
330
15E
100
AcDbEntity
  8
_U+30EC_U+30A4_U+30E4_U+30FC 1
 62
     1
420
 16711680
370
    25
100
AcDbVertex
100
AcDb2dVertex
 10
189.6694467144659
 20
51.88185381273061
 30
0.0
  0
VERTEX
  5
19C
330
15E
100
AcDbEntity
  8
_U+30EC_U+30A4_U+30E4_U+30FC 1
 62
     1
420
 16711680
370
    25
100
AcDbVertex
100
AcDb2dVertex
 10
185.7894479395183
 20
51.88185381273061
 30
0.0
  0
VERTEX
  5
19D
330
15E
100
AcDbEntity
  8
_U+30EC_U+30A4_U+30E4_U+30FC 1
 62
     1
420
 16711680
370
    25
100
AcDbVertex
100
AcDb2dVertex
 10
185.7894479395183
 20
49.88185491035418
 30
0.0
  0
VERTEX
  5
19E
330
15E
100
AcDbEntity
  8
_U+30EC_U+30A4_U+30E4_U+30FC 1
 62
     1
420
 16711680
370
    25
100
AcDbVertex
100
AcDb2dVertex
 10
181.6694478751855
 20
49.88185491035418
 30
0.0
  0
VERTEX
  5
19F
330
15E
100
AcDbEntity
  8
_U+30EC_U+30A4_U+30E4_U+30FC 1
 62
     1
420
 16711680
370
    25
100
AcDbVertex
100
AcDb2dVertex
 10
181.6694478751855
 20
51.88185381273061
 30
0.0
  0
VERTEX
  5
1A0
330
15E
100
AcDbEntity
  8
_U+30EC_U+30A4_U+30E4_U+30FC 1
 62
     1
420
 16711680
370
    25
100
AcDbVertex
100
AcDb2dVertex
 10
175.2894483190846
 20
51.88185381273061
 30
0.0
  0
VERTEX
  5
1A1
330
15E
100
AcDbEntity
  8
_U+30EC_U+30A4_U+30E4_U+30FC 1
 62
     1
420
 16711680
370
    25
100
AcDbVertex
100
AcDb2dVertex
 10
175.2894483190846
 20
49.88185491035418
 30
0.0
  0
VERTEX
  5
1A2
330
15E
100
AcDbEntity
  8
_U+30EC_U+30A4_U+30E4_U+30FC 1
 62
     1
420
 16711680
370
    25
100
AcDbVertex
100
AcDb2dVertex
 10
170.6694483945834
 20
49.88185491035418
 30
0.0
  0
VERTEX
  5
1A3
330
15E
100
AcDbEntity
  8
_U+30EC_U+30A4_U+30E4_U+30FC 1
 62
     1
420
 16711680
370
    25
100
AcDbVertex
100
AcDb2dVertex
 10
170.6694483945834
 20
54.28185378749203
 30
0.0
  0
VERTEX
  5
1A4
330
15E
100
AcDbEntity
  8
_U+30EC_U+30A4_U+30E4_U+30FC 1
 62
     1
420
 16711680
370
    25
100
AcDbVertex
100
AcDb2dVertex
 10
168.6694485501889
 20
54.28185378749203
 30
0.0
  0
VERTEX
  5
1A5
330
15E
100
AcDbEntity
  8
_U+30EC_U+30A4_U+30E4_U+30FC 1
 62
     1
420
 16711680
370
    25
100
AcDbVertex
100
AcDb2dVertex
 10
168.6694485501889
 20
58.80185384761914
 30
0.0
  0
VERTEX
  5
1A6
330
15E
100
AcDbEntity
  8
_U+30EC_U+30A4_U+30E4_U+30FC 1
 62
     1
420
 16711680
370
    25
100
AcDbVertex
100
AcDb2dVertex
 10
170.6694483945834
 20
58.80185384761914
 30
0.0
  0
VERTEX
  5
1A7
330
15E
100
AcDbEntity
  8
_U+30EC_U+30A4_U+30E4_U+30FC 1
 62
     1
420
 16711680
370
    25
100
AcDbVertex
100
AcDb2dVertex
 10
170.6694483945834
 20
63.08185315665566
 30
0.0
  0
VERTEX
  5
1A8
330
15E
100
AcDbEntity
  8
_U+30EC_U+30A4_U+30E4_U+30FC 1
 62
     1
420
 16711680
370
    25
100
AcDbVertex
100
AcDb2dVertex
 10
168.6694485501889
 20
63.08185315665566
 30
0.0
  0
VERTEX
  5
1A9
330
15E
100
AcDbEntity
  8
_U+30EC_U+30A4_U+30E4_U+30FC 1
 62
     1
420
 16711680
370
    25
100
AcDbVertex
100
AcDb2dVertex
 10
168.6694485501889
 20
67.60185294763461
 30
0.0
  0
VERTEX
  5
1AA
330
15E
100
AcDbEntity
  8
_U+30EC_U+30A4_U+30E4_U+30FC 1
 62
     1
420
 16711680
370
    25
100
AcDbVertex
100
AcDb2dVertex
 10
170.6694483945834
 20
67.60185294763461
 30
0.0
  0
VERTEX
  5
1AB
330
15E
100
AcDbEntity
  8
_U+30EC_U+30A4_U+30E4_U+30FC 1
 62
     1
420
 16711680
370
    25
100
AcDbVertex
100
AcDb2dVertex
 10
170.6694483945834
 20
72.00185263221627
 30
0.0
  0
SEQEND
  5
1AC
330
15E
100
AcDbEntity
  8
_U+30EC_U+30A4_U+30E4_U+30FC 1
 62
     1
420
 16711680
370
    25
  0
ENDBLK
  5
15D
330
15A
100
AcDbEntity
  8
0
100
AcDbBlockEnd
  0
BLOCK
  5
1AF
330
1AD
100
AcDbEntity
  8
0
100
AcDbBlockBegin
  2
block 6
 70
     0
 10
0.0
 20
0.0
 30
0.0
  3
block 6
  1

  0
POLYLINE
  5
1B1
330
1AD
100
AcDbEntity
  8
_U+30EC_U+30A4_U+30E4_U+30FC 1
 62
     1
420
 16711680
370
    25
100
AcDb2dPolyline
 66
     1
 10
0.0
 20
0.0
 30
0.0
  0
VERTEX
  5
1B2
330
1B1
100
AcDbEntity
  8
_U+30EC_U+30A4_U+30E4_U+30FC 1
 62
     1
420
 16711680
370
    25
100
AcDbVertex
100
AcDb2dVertex
 10
4.469998714913352
 20
74.23000051168455
 30
0.0
  0
VERTEX
  5
1B3
330
1B1
100
AcDbEntity
  8
_U+30EC_U+30A4_U+30E4_U+30FC 1
 62
     1
420
 16711680
370
    25
100
AcDbVertex
100
AcDb2dVertex
 10
7.469998817939201
 20
74.23000051168455
 30
0.0
  0
VERTEX
  5
1B4
330
1B1
100
AcDbEntity
  8
_U+30EC_U+30A4_U+30E4_U+30FC 1
 62
     1
420
 16711680
370
    25
100
AcDbVertex
100
AcDb2dVertex
 10
7.469998817939201
 20
76.23000035607869
 30
0.0
  0
VERTEX
  5
1B5
330
1B1
100
AcDbEntity
  8
_U+30EC_U+30A4_U+30E4_U+30FC 1
 62
     1
420
 16711680
370
    25
100
AcDbVertex
100
AcDb2dVertex
 10
12.58999779516487
 20
76.23000035607869
 30
0.0
  0
VERTEX
  5
1B6
330
1B1
100
AcDbEntity
  8
_U+30EC_U+30A4_U+30E4_U+30FC 1
 62
     1
420
 16711680
370
    25
100
AcDbVertex
100
AcDb2dVertex
 10
12.58999779516487
 20
74.23000051168455
 30
0.0
  0
VERTEX
  5
1B7
330
1B1
100
AcDbEntity
  8
_U+30EC_U+30A4_U+30E4_U+30FC 1
 62
     1
420
 16711680
370
    25
100
AcDbVertex
100
AcDb2dVertex
 10
16.46999764670369
 20
74.23000051168455
 30
0.0
  0
VERTEX
  5
1B8
330
1B1
100
AcDbEntity
  8
_U+30EC_U+30A4_U+30E4_U+30FC 1
 62
     1
420
 16711680
370
    25
100
AcDbVertex
100
AcDb2dVertex
 10
16.46999764670369
 20
76.23000035607869
 30
0.0
  0
VERTEX
  5
1B9
330
1B1
100
AcDbEntity
  8
_U+30EC_U+30A4_U+30E4_U+30FC 1
 62
     1
420
 16711680
370
    25
100
AcDbVertex
100
AcDb2dVertex
 10
20.58999878762843
 20
76.23000035607869
 30
0.0
  0
VERTEX
  5
1BA
330
1B1
100
AcDbEntity
  8
_U+30EC_U+30A4_U+30E4_U+30FC 1
 62
     1
420
 16711680
370
    25
100
AcDbVertex
100
AcDb2dVertex
 10
20.58999878762843
 20
74.23000051168455
 30
0.0
  0
VERTEX
  5
1BB
330
1B1
100
AcDbEntity
  8
_U+30EC_U+30A4_U+30E4_U+30FC 1
 62
     1
420
 16711680
370
    25
100
AcDbVertex
100
AcDb2dVertex
 10
24.46999756257563
 20
74.23000051168455
 30
0.0
  0
VERTEX
  5
1BC
330
1B1
100
AcDbEntity
  8
_U+30EC_U+30A4_U+30E4_U+30FC 1
 62
     1
420
 16711680
370
    25
100
AcDbVertex
100
AcDb2dVertex
 10
24.46999756257563
 20
76.23000035607869
 30
0.0
  0
VERTEX
  5
1BD
330
1B1
100
AcDbEntity
  8
_U+30EC_U+30A4_U+30E4_U+30FC 1
 62
     1
420
 16711680
370
    25
100
AcDbVertex
100
AcDb2dVertex
 10
28.58999655031742
 20
76.23000035607869
 30
0.0
  0
VERTEX
  5
1BE
330
1B1
100
AcDbEntity
  8
_U+30EC_U+30A4_U+30E4_U+30FC 1
 62
     1
420
 16711680
370
    25
100
AcDbVertex
100
AcDb2dVertex
 10
28.58999655031742
 20
74.23000051168455
 30
0.0
  0
VERTEX
  5
1BF
330
1B1
100
AcDbEntity
  8
_U+30EC_U+30A4_U+30E4_U+30FC 1
 62
     1
420
 16711680
370
    25
100
AcDbVertex
100
AcDb2dVertex
 10
32.46999747844756
 20
74.23000051168455
 30
0.0
  0
VERTEX
  5
1C0
330
1B1
100
AcDbEntity
  8
_U+30EC_U+30A4_U+30E4_U+30FC 1
 62
     1
420
 16711680
370
    25
100
AcDbVertex
100
AcDb2dVertex
 10
32.46999747844756
 20
76.23000035607869
 30
0.0
  0
VERTEX
  5
1C1
330
1B1
100
AcDbEntity
  8
_U+30EC_U+30A4_U+30E4_U+30FC 1
 62
     1
420
 16711680
370
    25
100
AcDbVertex
100
AcDb2dVertex
 10
36.58999646618935
 20
76.23000035607869
 30
0.0
  0
VERTEX
  5
1C2
330
1B1
100
AcDbEntity
  8
_U+30EC_U+30A4_U+30E4_U+30FC 1
 62
     1
420
 16711680
370
    25
100
AcDbVertex
100
AcDb2dVertex
 10
36.58999646618935
 20
74.23000051168455
 30
0.0
  0
VERTEX
  5
1C3
330
1B1
100
AcDbEntity
  8
_U+30EC_U+30A4_U+30E4_U+30FC 1
 62
     1
420
 16711680
370
    25
100
AcDbVertex
100
AcDb2dVertex
 10
40.4699973943195
 20
74.23000051168455
 30
0.0
  0
VERTEX
  5
1C4
330
1B1
100
AcDbEntity
  8
_U+30EC_U+30A4_U+30E4_U+30FC 1
 62
     1
420
 16711680
370
    25
100
AcDbVertex
100
AcDb2dVertex
 10
40.4699973943195
 20
76.23000035607869
 30
0.0
  0
VERTEX
  5
1C5
330
1B1
100
AcDbEntity
  8
_U+30EC_U+30A4_U+30E4_U+30FC 1
 62
     1
420
 16711680
370
    25
100
AcDbVertex
100
AcDb2dVertex
 10
44.58999638206129
 20
76.23000035607869
 30
0.0
  0
VERTEX
  5
1C6
330
1B1
100
AcDbEntity
  8
_U+30EC_U+30A4_U+30E4_U+30FC 1
 62
     1
420
 16711680
370
    25
100
AcDbVertex
100
AcDb2dVertex
 10
44.58999638206129
 20
74.23000051168455
 30
0.0
  0
VERTEX
  5
1C7
330
1B1
100
AcDbEntity
  8
_U+30EC_U+30A4_U+30E4_U+30FC 1
 62
     1
420
 16711680
370
    25
100
AcDbVertex
100
AcDb2dVertex
 10
48.46999731019143
 20
74.23000051168455
 30
0.0
  0
VERTEX
  5
1C8
330
1B1
100
AcDbEntity
  8
_U+30EC_U+30A4_U+30E4_U+30FC 1
 62
     1
420
 16711680
370
    25
100
AcDbVertex
100
AcDb2dVertex
 10
48.46999731019143
 20
76.23000035607869
 30
0.0
  0
VERTEX
  5
1C9
330
1B1
100
AcDbEntity
  8
_U+30EC_U+30A4_U+30E4_U+30FC 1
 62
     1
420
 16711680
370
    25
100
AcDbVertex
100
AcDb2dVertex
 10
52.58999629793323
 20
76.23000035607869
 30
0.0
  0
VERTEX
  5
1CA
330
1B1
100
AcDbEntity
  8
_U+30EC_U+30A4_U+30E4_U+30FC 1
 62
     1
420
 16711680
370
    25
100
AcDbVertex
100
AcDb2dVertex
 10
52.58999629793323
 20
74.23000051168455
 30
0.0
  0
VERTEX
  5
1CB
330
1B1
100
AcDbEntity
  8
_U+30EC_U+30A4_U+30E4_U+30FC 1
 62
     1
420
 16711680
370
    25
100
AcDbVertex
100
AcDb2dVertex
 10
56.46999722606336
 20
74.23000051168455
 30
0.0
  0
VERTEX
  5
1CC
330
1B1
100
AcDbEntity
  8
_U+30EC_U+30A4_U+30E4_U+30FC 1
 62
     1
420
 16711680
370
    25
100
AcDbVertex
100
AcDb2dVertex
 10
56.46999722606336
 20
76.23000035607869
 30
0.0
  0
VERTEX
  5
1CD
330
1B1
100
AcDbEntity
  8
_U+30EC_U+30A4_U+30E4_U+30FC 1
 62
     1
420
 16711680
370
    25
100
AcDbVertex
100
AcDb2dVertex
 10
60.58999621380516
 20
76.23000035607869
 30
0.0
  0
VERTEX
  5
1CE
330
1B1
100
AcDbEntity
  8
_U+30EC_U+30A4_U+30E4_U+30FC 1
 62
     1
420
 16711680
370
    25
100
AcDbVertex
100
AcDb2dVertex
 10
60.58999621380516
 20
74.23000051168455
 30
0.0
  0
VERTEX
  5
1CF
330
1B1
100
AcDbEntity
  8
_U+30EC_U+30A4_U+30E4_U+30FC 1
 62
     1
420
 16711680
370
    25
100
AcDbVertex
100
AcDb2dVertex
 10
64.4699971419353
 20
74.23000051168455
 30
0.0
  0
VERTEX
  5
1D0
330
1B1
100
AcDbEntity
  8
_U+30EC_U+30A4_U+30E4_U+30FC 1
 62
     1
420
 16711680
370
    25
100
AcDbVertex
100
AcDb2dVertex
 10
64.4699971419353
 20
76.23000035607869
 30
0.0
  0
VERTEX
  5
1D1
330
1B1
100
AcDbEntity
  8
_U+30EC_U+30A4_U+30E4_U+30FC 1
 62
     1
420
 16711680
370
    25
100
AcDbVertex
100
AcDb2dVertex
 10
68.58999612967709
 20
76.23000035607869
 30
0.0
  0
VERTEX
  5
1D2
330
1B1
100
AcDbEntity
  8
_U+30EC_U+30A4_U+30E4_U+30FC 1
 62
     1
420
 16711680
370
    25
100
AcDbVertex
100
AcDb2dVertex
 10
68.58999612967709
 20
74.23000051168455
 30
0.0
  0
VERTEX
  5
1D3
330
1B1
100
AcDbEntity
  8
_U+30EC_U+30A4_U+30E4_U+30FC 1
 62
     1
420
 16711680
370
    25
100
AcDbVertex
100
AcDb2dVertex
 10
72.46999275144167
 20
74.23000051168455
 30
0.0
  0
VERTEX
  5
1D4
330
1B1
100
AcDbEntity
  8
_U+30EC_U+30A4_U+30E4_U+30FC 1
 62
     1
420
 16711680
370
    25
100
AcDbVertex
100
AcDb2dVertex
 10
72.46999275144167
 20
76.23000035607869
 30
0.0
  0
VERTEX
  5
1D5
330
1B1
100
AcDbEntity
  8
_U+30EC_U+30A4_U+30E4_U+30FC 1
 62
     1
420
 16711680
370
    25
100
AcDbVertex
100
AcDb2dVertex
 10
77.5899987265115
 20
76.23000035607869
 30
0.0
  0
VERTEX
  5
1D6
330
1B1
100
AcDbEntity
  8
_U+30EC_U+30A4_U+30E4_U+30FC 1
 62
     1
420
 16711680
370
    25
100
AcDbVertex
100
AcDb2dVertex
 10
77.5899987265115
 20
74.23000051168455
 30
0.0
  0
VERTEX
  5
1D7
330
1B1
100
AcDbEntity
  8
_U+30EC_U+30A4_U+30E4_U+30FC 1
 62
     1
420
 16711680
370
    25
100
AcDbVertex
100
AcDb2dVertex
 10
80.5899938503022
 20
74.23000051168455
 30
0.0
  0
VERTEX
  5
1D8
330
1B1
100
AcDbEntity
  8
_U+30EC_U+30A4_U+30E4_U+30FC 1
 62
     1
420
 16711680
370
    25
100
AcDbVertex
100
AcDb2dVertex
 10
80.5899938503022
 20
69.73000069358072
 30
0.0
  0
VERTEX
  5
1D9
330
1B1
100
AcDbEntity
  8
_U+30EC_U+30A4_U+30E4_U+30FC 1
 62
     1
420
 16711680
370
    25
100
AcDbVertex
100
AcDb2dVertex
 10
82.58999059949602
 20
69.73000069358072
 30
0.0
  0
VERTEX
  5
1DA
330
1B1
100
AcDbEntity
  8
_U+30EC_U+30A4_U+30E4_U+30FC 1
 62
     1
420
 16711680
370
    25
100
AcDbVertex
100
AcDb2dVertex
 10
82.58999059949602
 20
63.11000092468512
 30
0.0
  0
VERTEX
  5
1DB
330
1B1
100
AcDbEntity
  8
_U+30EC_U+30A4_U+30E4_U+30FC 1
 62
     1
420
 16711680
370
    25
100
AcDbVertex
100
AcDb2dVertex
 10
80.5899938503022
 20
63.11000092468512
 30
0.0
  0
VERTEX
  5
1DC
330
1B1
100
AcDbEntity
  8
_U+30EC_U+30A4_U+30E4_U+30FC 1
 62
     1
420
 16711680
370
    25
100
AcDbVertex
100
AcDb2dVertex
 10
80.5899938503022
 20
59.23000107314661
 30
0.0
  0
VERTEX
  5
1DD
330
1B1
100
AcDbEntity
  8
_U+30EC_U+30A4_U+30E4_U+30FC 1
 62
     1
420
 16711680
370
    25
100
AcDbVertex
100
AcDb2dVertex
 10
82.58999059949602
 20
59.23000107314661
 30
0.0
  0
VERTEX
  5
1DE
330
1B1
100
AcDbEntity
  8
_U+30EC_U+30A4_U+30E4_U+30FC 1
 62
     1
420
 16711680
370
    25
100
AcDbVertex
100
AcDb2dVertex
 10
82.58999059949602
 20
55.11000100881351
 30
0.0
  0
VERTEX
  5
1DF
330
1B1
100
AcDbEntity
  8
_U+30EC_U+30A4_U+30E4_U+30FC 1
 62
     1
420
 16711680
370
    25
100
AcDbVertex
100
AcDb2dVertex
 10
80.5899938503022
 20
55.11000100881351
 30
0.0
  0
VERTEX
  5
1E0
330
1B1
100
AcDbEntity
  8
_U+30EC_U+30A4_U+30E4_U+30FC 1
 62
     1
420
 16711680
370
    25
100
AcDbVertex
100
AcDb2dVertex
 10
80.5899938503022
 20
51.23000223386599
 30
0.0
  0
VERTEX
  5
1E1
330
1B1
100
AcDbEntity
  8
_U+30EC_U+30A4_U+30E4_U+30FC 1
 62
     1
420
 16711680
370
    25
100
AcDbVertex
100
AcDb2dVertex
 10
82.58999059949602
 20
51.23000223386599
 30
0.0
  0
VERTEX
  5
1E2
330
1B1
100
AcDbEntity
  8
_U+30EC_U+30A4_U+30E4_U+30FC 1
 62
     1
420
 16711680
370
    25
100
AcDbVertex
100
AcDb2dVertex
 10
82.58999059949602
 20
47.11000109294125
 30
0.0
  0
VERTEX
  5
1E3
330
1B1
100
AcDbEntity
  8
_U+30EC_U+30A4_U+30E4_U+30FC 1
 62
     1
420
 16711680
370
    25
100
AcDbVertex
100
AcDb2dVertex
 10
80.5899938503022
 20
47.11000109294125
 30
0.0
  0
VERTEX
  5
1E4
330
1B1
100
AcDbEntity
  8
_U+30EC_U+30A4_U+30E4_U+30FC 1
 62
     1
420
 16711680
370
    25
100
AcDbVertex
100
AcDb2dVertex
 10
80.5899938503022
 20
43.23000231799438
 30
0.0
  0
VERTEX
  5
1E5
330
1B1
100
AcDbEntity
  8
_U+30EC_U+30A4_U+30E4_U+30FC 1
 62
     1
420
 16711680
370
    25
100
AcDbVertex
100
AcDb2dVertex
 10
82.58999059949602
 20
43.23000231799438
 30
0.0
  0
VERTEX
  5
1E6
330
1B1
100
AcDbEntity
  8
_U+30EC_U+30A4_U+30E4_U+30FC 1
 62
     1
420
 16711680
370
    25
100
AcDbVertex
100
AcDb2dVertex
 10
82.58999059949602
 20
39.11000333025226
 30
0.0
  0
VERTEX
  5
1E7
330
1B1
100
AcDbEntity
  8
_U+30EC_U+30A4_U+30E4_U+30FC 1
 62
     1
420
 16711680
370
    25
100
AcDbVertex
100
AcDb2dVertex
 10
80.5899938503022
 20
39.11000333025226
 30
0.0
  0
VERTEX
  5
1E8
330
1B1
100
AcDbEntity
  8
_U+30EC_U+30A4_U+30E4_U+30FC 1
 62
     1
420
 16711680
370
    25
100
AcDbVertex
100
AcDb2dVertex
 10
80.5899938503022
 20
35.23000240212212
 30
0.0
  0
VERTEX
  5
1E9
330
1B1
100
AcDbEntity
  8
_U+30EC_U+30A4_U+30E4_U+30FC 1
 62
     1
420
 16711680
370
    25
100
AcDbVertex
100
AcDb2dVertex
 10
82.58999059949602
 20
35.23000240212212
 30
0.0
  0
VERTEX
  5
1EA
330
1B1
100
AcDbEntity
  8
_U+30EC_U+30A4_U+30E4_U+30FC 1
 62
     1
420
 16711680
370
    25
100
AcDbVertex
100
AcDb2dVertex
 10
82.58999059949602
 20
31.11000341438001
 30
0.0
  0
VERTEX
  5
1EB
330
1B1
100
AcDbEntity
  8
_U+30EC_U+30A4_U+30E4_U+30FC 1
 62
     1
420
 16711680
370
    25
100
AcDbVertex
100
AcDb2dVertex
 10
80.5899938503022
 20
31.11000341438001
 30
0.0
  0
VERTEX
  5
1EC
330
1B1
100
AcDbEntity
  8
_U+30EC_U+30A4_U+30E4_U+30FC 1
 62
     1
420
 16711680
370
    25
100
AcDbVertex
100
AcDb2dVertex
 10
80.5899938503022
 20
27.23000248624987
 30
0.0
  0
VERTEX
  5
1ED
330
1B1
100
AcDbEntity
  8
_U+30EC_U+30A4_U+30E4_U+30FC 1
 62
     1
420
 16711680
370
    25
100
AcDbVertex
100
AcDb2dVertex
 10
82.58999059949602
 20
27.23000248624987
 30
0.0
  0
VERTEX
  5
1EE
330
1B1
100
AcDbEntity
  8
_U+30EC_U+30A4_U+30E4_U+30FC 1
 62
     1
420
 16711680
370
    25
100
AcDbVertex
100
AcDb2dVertex
 10
82.58999059949602
 20
23.1100034985084
 30
0.0
  0
VERTEX
  5
1EF
330
1B1
100
AcDbEntity
  8
_U+30EC_U+30A4_U+30E4_U+30FC 1
 62
     1
420
 16711680
370
    25
100
AcDbVertex
100
AcDb2dVertex
 10
80.5899938503022
 20
23.1100034985084
 30
0.0
  0
VERTEX
  5
1F0
330
1B1
100
AcDbEntity
  8
_U+30EC_U+30A4_U+30E4_U+30FC 1
 62
     1
420
 16711680
370
    25
100
AcDbVertex
100
AcDb2dVertex
 10
80.5899938503022
 20
19.23000257037825
 30
0.0
  0
VERTEX
  5
1F1
330
1B1
100
AcDbEntity
  8
_U+30EC_U+30A4_U+30E4_U+30FC 1
 62
     1
420
 16711680
370
    25
100
AcDbVertex
100
AcDb2dVertex
 10
82.58999059949602
 20
19.23000257037825
 30
0.0
  0
VERTEX
  5
1F2
330
1B1
100
AcDbEntity
  8
_U+30EC_U+30A4_U+30E4_U+30FC 1
 62
     1
420
 16711680
370
    25
100
AcDbVertex
100
AcDb2dVertex
 10
82.58999059949602
 20
12.61000333977896
 30
0.0
  0
VERTEX
  5
1F3
330
1B1
100
AcDbEntity
  8
_U+30EC_U+30A4_U+30E4_U+30FC 1
 62
     1
420
 16711680
370
    25
100
AcDbVertex
100
AcDb2dVertex
 10
80.5899938503022
 20
12.61000333977896
 30
0.0
  0
VERTEX
  5
1F4
330
1B1
100
AcDbEntity
  8
_U+30EC_U+30A4_U+30E4_U+30FC 1
 62
     1
420
 16711680
370
    25
100
AcDbVertex
100
AcDb2dVertex
 10
80.5899938503022
 20
8.110006347727323
 30
0.0
  0
VERTEX
  5
1F5
330
1B1
100
AcDbEntity
  8
_U+30EC_U+30A4_U+30E4_U+30FC 1
 62
     1
420
 16711680
370
    25
100
AcDbVertex
100
AcDb2dVertex
 10
77.5899987265115
 20
8.110006347727323
 30
0.0
  0
VERTEX
  5
1F6
330
1B1
100
AcDbEntity
  8
_U+30EC_U+30A4_U+30E4_U+30FC 1
 62
     1
420
 16711680
370
    25
100
AcDbVertex
100
AcDb2dVertex
 10
77.5899987265115
 20
6.110005292167625
 30
0.0
  0
VERTEX
  5
1F7
330
1B1
100
AcDbEntity
  8
_U+30EC_U+30A4_U+30E4_U+30FC 1
 62
     1
420
 16711680
370
    25
100
AcDbVertex
100
AcDb2dVertex
 10
72.46999275144167
 20
6.110005292167625
 30
0.0
  0
VERTEX
  5
1F8
330
1B1
100
AcDbEntity
  8
_U+30EC_U+30A4_U+30E4_U+30FC 1
 62
     1
420
 16711680
370
    25
100
AcDbVertex
100
AcDb2dVertex
 10
72.46999275144167
 20
8.110006347727323
 30
0.0
  0
VERTEX
  5
1F9
330
1B1
100
AcDbEntity
  8
_U+30EC_U+30A4_U+30E4_U+30FC 1
 62
     1
420
 16711680
370
    25
100
AcDbVertex
100
AcDb2dVertex
 10
68.58999612967709
 20
8.110006347727323
 30
0.0
  0
VERTEX
  5
1FA
330
1B1
100
AcDbEntity
  8
_U+30EC_U+30A4_U+30E4_U+30FC 1
 62
     1
420
 16711680
370
    25
100
AcDbVertex
100
AcDb2dVertex
 10
68.58999612967709
 20
6.110005292167625
 30
0.0
  0
VERTEX
  5
1FB
330
1B1
100
AcDbEntity
  8
_U+30EC_U+30A4_U+30E4_U+30FC 1
 62
     1
420
 16711680
370
    25
100
AcDbVertex
100
AcDb2dVertex
 10
64.4699971419353
 20
6.110005292167625
 30
0.0
  0
VERTEX
  5
1FC
330
1B1
100
AcDbEntity
  8
_U+30EC_U+30A4_U+30E4_U+30FC 1
 62
     1
420
 16711680
370
    25
100
AcDbVertex
100
AcDb2dVertex
 10
64.4699971419353
 20
8.110006347727323
 30
0.0
  0
VERTEX
  5
1FD
330
1B1
100
AcDbEntity
  8
_U+30EC_U+30A4_U+30E4_U+30FC 1
 62
     1
420
 16711680
370
    25
100
AcDbVertex
100
AcDb2dVertex
 10
60.58999621380516
 20
8.110006347727323
 30
0.0
  0
VERTEX
  5
1FE
330
1B1
100
AcDbEntity
  8
_U+30EC_U+30A4_U+30E4_U+30FC 1
 62
     1
420
 16711680
370
    25
100
AcDbVertex
100
AcDb2dVertex
 10
60.58999621380516
 20
6.110005292167625
 30
0.0
  0
VERTEX
  5
1FF
330
1B1
100
AcDbEntity
  8
_U+30EC_U+30A4_U+30E4_U+30FC 1
 62
     1
420
 16711680
370
    25
100
AcDbVertex
100
AcDb2dVertex
 10
56.46999722606336
 20
6.110005292167625
 30
0.0
  0
VERTEX
  5
200
330
1B1
100
AcDbEntity
  8
_U+30EC_U+30A4_U+30E4_U+30FC 1
 62
     1
420
 16711680
370
    25
100
AcDbVertex
100
AcDb2dVertex
 10
56.46999722606336
 20
8.110006347727323
 30
0.0
  0
VERTEX
  5
201
330
1B1
100
AcDbEntity
  8
_U+30EC_U+30A4_U+30E4_U+30FC 1
 62
     1
420
 16711680
370
    25
100
AcDbVertex
100
AcDb2dVertex
 10
52.58999629793323
 20
8.110006347727323
 30
0.0
  0
VERTEX
  5
202
330
1B1
100
AcDbEntity
  8
_U+30EC_U+30A4_U+30E4_U+30FC 1
 62
     1
420
 16711680
370
    25
100
AcDbVertex
100
AcDb2dVertex
 10
52.58999629793323
 20
6.110005292167625
 30
0.0
  0
VERTEX
  5
203
330
1B1
100
AcDbEntity
  8
_U+30EC_U+30A4_U+30E4_U+30FC 1
 62
     1
420
 16711680
370
    25
100
AcDbVertex
100
AcDb2dVertex
 10
48.46999731019143
 20
6.110005292167625
 30
0.0
  0
VERTEX
  5
204
330
1B1
100
AcDbEntity
  8
_U+30EC_U+30A4_U+30E4_U+30FC 1
 62
     1
420
 16711680
370
    25
100
AcDbVertex
100
AcDb2dVertex
 10
48.46999731019143
 20
8.110006347727323
 30
0.0
  0
VERTEX
  5
205
330
1B1
100
AcDbEntity
  8
_U+30EC_U+30A4_U+30E4_U+30FC 1
 62
     1
420
 16711680
370
    25
100
AcDbVertex
100
AcDb2dVertex
 10
44.58999638206129
 20
8.110006347727323
 30
0.0
  0
VERTEX
  5
206
330
1B1
100
AcDbEntity
  8
_U+30EC_U+30A4_U+30E4_U+30FC 1
 62
     1
420
 16711680
370
    25
100
AcDbVertex
100
AcDb2dVertex
 10
44.58999638206129
 20
6.110005292167625
 30
0.0
  0
VERTEX
  5
207
330
1B1
100
AcDbEntity
  8
_U+30EC_U+30A4_U+30E4_U+30FC 1
 62
     1
420
 16711680
370
    25
100
AcDbVertex
100
AcDb2dVertex
 10
40.4699973943195
 20
6.110005292167625
 30
0.0
  0
VERTEX
  5
208
330
1B1
100
AcDbEntity
  8
_U+30EC_U+30A4_U+30E4_U+30FC 1
 62
     1
420
 16711680
370
    25
100
AcDbVertex
100
AcDb2dVertex
 10
40.4699973943195
 20
8.110006347727323
 30
0.0
  0
VERTEX
  5
209
330
1B1
100
AcDbEntity
  8
_U+30EC_U+30A4_U+30E4_U+30FC 1
 62
     1
420
 16711680
370
    25
100
AcDbVertex
100
AcDb2dVertex
 10
36.58999646618935
 20
8.110006347727323
 30
0.0
  0
VERTEX
  5
20A
330
1B1
100
AcDbEntity
  8
_U+30EC_U+30A4_U+30E4_U+30FC 1
 62
     1
420
 16711680
370
    25
100
AcDbVertex
100
AcDb2dVertex
 10
36.58999646618935
 20
6.110005292167625
 30
0.0
  0
VERTEX
  5
20B
330
1B1
100
AcDbEntity
  8
_U+30EC_U+30A4_U+30E4_U+30FC 1
 62
     1
420
 16711680
370
    25
100
AcDbVertex
100
AcDb2dVertex
 10
32.46999747844756
 20
6.110005292167625
 30
0.0
  0
VERTEX
  5
20C
330
1B1
100
AcDbEntity
  8
_U+30EC_U+30A4_U+30E4_U+30FC 1
 62
     1
420
 16711680
370
    25
100
AcDbVertex
100
AcDb2dVertex
 10
32.46999747844756
 20
8.110006347727323
 30
0.0
  0
VERTEX
  5
20D
330
1B1
100
AcDbEntity
  8
_U+30EC_U+30A4_U+30E4_U+30FC 1
 62
     1
420
 16711680
370
    25
100
AcDbVertex
100
AcDb2dVertex
 10
28.58999655031742
 20
8.110006347727323
 30
0.0
  0
VERTEX
  5
20E
330
1B1
100
AcDbEntity
  8
_U+30EC_U+30A4_U+30E4_U+30FC 1
 62
     1
420
 16711680
370
    25
100
AcDbVertex
100
AcDb2dVertex
 10
28.58999655031742
 20
6.110005292167625
 30
0.0
  0
VERTEX
  5
20F
330
1B1
100
AcDbEntity
  8
_U+30EC_U+30A4_U+30E4_U+30FC 1
 62
     1
420
 16711680
370
    25
100
AcDbVertex
100
AcDb2dVertex
 10
24.46999756257563
 20
6.110005292167625
 30
0.0
  0
VERTEX
  5
210
330
1B1
100
AcDbEntity
  8
_U+30EC_U+30A4_U+30E4_U+30FC 1
 62
     1
420
 16711680
370
    25
100
AcDbVertex
100
AcDb2dVertex
 10
24.46999756257563
 20
8.110006347727323
 30
0.0
  0
VERTEX
  5
211
330
1B1
100
AcDbEntity
  8
_U+30EC_U+30A4_U+30E4_U+30FC 1
 62
     1
420
 16711680
370
    25
100
AcDbVertex
100
AcDb2dVertex
 10
20.58999878762843
 20
8.110006347727323
 30
0.0
  0
VERTEX
  5
212
330
1B1
100
AcDbEntity
  8
_U+30EC_U+30A4_U+30E4_U+30FC 1
 62
     1
420
 16711680
370
    25
100
AcDbVertex
100
AcDb2dVertex
 10
20.58999878762843
 20
6.110005292167625
 30
0.0
  0
VERTEX
  5
213
330
1B1
100
AcDbEntity
  8
_U+30EC_U+30A4_U+30E4_U+30FC 1
 62
     1
420
 16711680
370
    25
100
AcDbVertex
100
AcDb2dVertex
 10
16.46999764670369
 20
6.110005292167625
 30
0.0
  0
VERTEX
  5
214
330
1B1
100
AcDbEntity
  8
_U+30EC_U+30A4_U+30E4_U+30FC 1
 62
     1
420
 16711680
370
    25
100
AcDbVertex
100
AcDb2dVertex
 10
16.46999764670369
 20
8.110006347727323
 30
0.0
  0
VERTEX
  5
215
330
1B1
100
AcDbEntity
  8
_U+30EC_U+30A4_U+30E4_U+30FC 1
 62
     1
420
 16711680
370
    25
100
AcDbVertex
100
AcDb2dVertex
 10
12.58999779516487
 20
8.110006347727323
 30
0.0
  0
VERTEX
  5
216
330
1B1
100
AcDbEntity
  8
_U+30EC_U+30A4_U+30E4_U+30FC 1
 62
     1
420
 16711680
370
    25
100
AcDbVertex
100
AcDb2dVertex
 10
12.58999779516487
 20
6.110005292167625
 30
0.0
  0
VERTEX
  5
217
330
1B1
100
AcDbEntity
  8
_U+30EC_U+30A4_U+30E4_U+30FC 1
 62
     1
420
 16711680
370
    25
100
AcDbVertex
100
AcDb2dVertex
 10
7.469998817939201
 20
6.110005292167625
 30
0.0
  0
VERTEX
  5
218
330
1B1
100
AcDbEntity
  8
_U+30EC_U+30A4_U+30E4_U+30FC 1
 62
     1
420
 16711680
370
    25
100
AcDbVertex
100
AcDb2dVertex
 10
7.469998817939201
 20
8.110006347727323
 30
0.0
  0
VERTEX
  5
219
330
1B1
100
AcDbEntity
  8
_U+30EC_U+30A4_U+30E4_U+30FC 1
 62
     1
420
 16711680
370
    25
100
AcDbVertex
100
AcDb2dVertex
 10
4.469998714913352
 20
8.110006347727323
 30
0.0
  0
VERTEX
  5
21A
330
1B1
100
AcDbEntity
  8
_U+30EC_U+30A4_U+30E4_U+30FC 1
 62
     1
420
 16711680
370
    25
100
AcDbVertex
100
AcDb2dVertex
 10
4.469998714913352
 20
12.61000333977896
 30
0.0
  0
VERTEX
  5
21B
330
1B1
100
AcDbEntity
  8
_U+30EC_U+30A4_U+30E4_U+30FC 1
 62
     1
420
 16711680
370
    25
100
AcDbVertex
100
AcDb2dVertex
 10
2.469998870519202
 20
12.61000333977896
 30
0.0
  0
VERTEX
  5
21C
330
1B1
100
AcDbEntity
  8
_U+30EC_U+30A4_U+30E4_U+30FC 1
 62
     1
420
 16711680
370
    25
100
AcDbVertex
100
AcDb2dVertex
 10
2.469998870519202
 20
19.23000257037825
 30
0.0
  0
VERTEX
  5
21D
330
1B1
100
AcDbEntity
  8
_U+30EC_U+30A4_U+30E4_U+30FC 1
 62
     1
420
 16711680
370
    25
100
AcDbVertex
100
AcDb2dVertex
 10
4.469998714913352
 20
19.23000257037825
 30
0.0
  0
VERTEX
  5
21E
330
1B1
100
AcDbEntity
  8
_U+30EC_U+30A4_U+30E4_U+30FC 1
 62
     1
420
 16711680
370
    25
100
AcDbVertex
100
AcDb2dVertex
 10
4.469998714913352
 20
23.1100034985084
 30
0.0
  0
VERTEX
  5
21F
330
1B1
100
AcDbEntity
  8
_U+30EC_U+30A4_U+30E4_U+30FC 1
 62
     1
420
 16711680
370
    25
100
AcDbVertex
100
AcDb2dVertex
 10
2.469998870519202
 20
23.1100034985084
 30
0.0
  0
VERTEX
  5
220
330
1B1
100
AcDbEntity
  8
_U+30EC_U+30A4_U+30E4_U+30FC 1
 62
     1
420
 16711680
370
    25
100
AcDbVertex
100
AcDb2dVertex
 10
2.469998870519202
 20
27.23000248624987
 30
0.0
  0
VERTEX
  5
221
330
1B1
100
AcDbEntity
  8
_U+30EC_U+30A4_U+30E4_U+30FC 1
 62
     1
420
 16711680
370
    25
100
AcDbVertex
100
AcDb2dVertex
 10
4.469998714913352
 20
27.23000248624987
 30
0.0
  0
VERTEX
  5
222
330
1B1
100
AcDbEntity
  8
_U+30EC_U+30A4_U+30E4_U+30FC 1
 62
     1
420
 16711680
370
    25
100
AcDbVertex
100
AcDb2dVertex
 10
4.469998714913352
 20
31.11000341438001
 30
0.0
  0
VERTEX
  5
223
330
1B1
100
AcDbEntity
  8
_U+30EC_U+30A4_U+30E4_U+30FC 1
 62
     1
420
 16711680
370
    25
100
AcDbVertex
100
AcDb2dVertex
 10
2.469998870519202
 20
31.11000341438001
 30
0.0
  0
VERTEX
  5
224
330
1B1
100
AcDbEntity
  8
_U+30EC_U+30A4_U+30E4_U+30FC 1
 62
     1
420
 16711680
370
    25
100
AcDbVertex
100
AcDb2dVertex
 10
2.469998870519202
 20
35.23000240212212
 30
0.0
  0
VERTEX
  5
225
330
1B1
100
AcDbEntity
  8
_U+30EC_U+30A4_U+30E4_U+30FC 1
 62
     1
420
 16711680
370
    25
100
AcDbVertex
100
AcDb2dVertex
 10
4.469998714913352
 20
35.23000240212212
 30
0.0
  0
VERTEX
  5
226
330
1B1
100
AcDbEntity
  8
_U+30EC_U+30A4_U+30E4_U+30FC 1
 62
     1
420
 16711680
370
    25
100
AcDbVertex
100
AcDb2dVertex
 10
4.469998714913352
 20
39.11000333025226
 30
0.0
  0
VERTEX
  5
227
330
1B1
100
AcDbEntity
  8
_U+30EC_U+30A4_U+30E4_U+30FC 1
 62
     1
420
 16711680
370
    25
100
AcDbVertex
100
AcDb2dVertex
 10
2.469998870519202
 20
39.11000333025226
 30
0.0
  0
VERTEX
  5
228
330
1B1
100
AcDbEntity
  8
_U+30EC_U+30A4_U+30E4_U+30FC 1
 62
     1
420
 16711680
370
    25
100
AcDbVertex
100
AcDb2dVertex
 10
2.469998870519202
 20
43.23000231799438
 30
0.0
  0
VERTEX
  5
229
330
1B1
100
AcDbEntity
  8
_U+30EC_U+30A4_U+30E4_U+30FC 1
 62
     1
420
 16711680
370
    25
100
AcDbVertex
100
AcDb2dVertex
 10
4.469998714913352
 20
43.23000231799438
 30
0.0
  0
VERTEX
  5
22A
330
1B1
100
AcDbEntity
  8
_U+30EC_U+30A4_U+30E4_U+30FC 1
 62
     1
420
 16711680
370
    25
100
AcDbVertex
100
AcDb2dVertex
 10
4.469998714913352
 20
47.11000109294125
 30
0.0
  0
VERTEX
  5
22B
330
1B1
100
AcDbEntity
  8
_U+30EC_U+30A4_U+30E4_U+30FC 1
 62
     1
420
 16711680
370
    25
100
AcDbVertex
100
AcDb2dVertex
 10
2.469998870519202
 20
47.11000109294125
 30
0.0
  0
VERTEX
  5
22C
330
1B1
100
AcDbEntity
  8
_U+30EC_U+30A4_U+30E4_U+30FC 1
 62
     1
420
 16711680
370
    25
100
AcDbVertex
100
AcDb2dVertex
 10
2.469998870519202
 20
51.23000223386599
 30
0.0
  0
VERTEX
  5
22D
330
1B1
100
AcDbEntity
  8
_U+30EC_U+30A4_U+30E4_U+30FC 1
 62
     1
420
 16711680
370
    25
100
AcDbVertex
100
AcDb2dVertex
 10
4.469998714913352
 20
51.23000223386599
 30
0.0
  0
VERTEX
  5
22E
330
1B1
100
AcDbEntity
  8
_U+30EC_U+30A4_U+30E4_U+30FC 1
 62
     1
420
 16711680
370
    25
100
AcDbVertex
100
AcDb2dVertex
 10
4.469998714913352
 20
55.11000100881351
 30
0.0
  0
VERTEX
  5
22F
330
1B1
100
AcDbEntity
  8
_U+30EC_U+30A4_U+30E4_U+30FC 1
 62
     1
420
 16711680
370
    25
100
AcDbVertex
100
AcDb2dVertex
 10
2.469998870519202
 20
55.11000100881351
 30
0.0
  0
VERTEX
  5
230
330
1B1
100
AcDbEntity
  8
_U+30EC_U+30A4_U+30E4_U+30FC 1
 62
     1
420
 16711680
370
    25
100
AcDbVertex
100
AcDb2dVertex
 10
2.469998870519202
 20
59.23000107314661
 30
0.0
  0
VERTEX
  5
231
330
1B1
100
AcDbEntity
  8
_U+30EC_U+30A4_U+30E4_U+30FC 1
 62
     1
420
 16711680
370
    25
100
AcDbVertex
100
AcDb2dVertex
 10
4.469998714913352
 20
59.23000107314661
 30
0.0
  0
VERTEX
  5
232
330
1B1
100
AcDbEntity
  8
_U+30EC_U+30A4_U+30E4_U+30FC 1
 62
     1
420
 16711680
370
    25
100
AcDbVertex
100
AcDb2dVertex
 10
4.469998714913352
 20
63.11000092468512
 30
0.0
  0
VERTEX
  5
233
330
1B1
100
AcDbEntity
  8
_U+30EC_U+30A4_U+30E4_U+30FC 1
 62
     1
420
 16711680
370
    25
100
AcDbVertex
100
AcDb2dVertex
 10
2.469998870519202
 20
63.11000092468512
 30
0.0
  0
VERTEX
  5
234
330
1B1
100
AcDbEntity
  8
_U+30EC_U+30A4_U+30E4_U+30FC 1
 62
     1
420
 16711680
370
    25
100
AcDbVertex
100
AcDb2dVertex
 10
2.469998870519202
 20
69.73000069358072
 30
0.0
  0
VERTEX
  5
235
330
1B1
100
AcDbEntity
  8
_U+30EC_U+30A4_U+30E4_U+30FC 1
 62
     1
420
 16711680
370
    25
100
AcDbVertex
100
AcDb2dVertex
 10
4.469998714913352
 20
69.73000069358072
 30
0.0
  0
VERTEX
  5
236
330
1B1
100
AcDbEntity
  8
_U+30EC_U+30A4_U+30E4_U+30FC 1
 62
     1
420
 16711680
370
    25
100
AcDbVertex
100
AcDb2dVertex
 10
4.469998714913352
 20
74.23000051168455
 30
0.0
  0
SEQEND
  5
237
330
1B1
100
AcDbEntity
  8
_U+30EC_U+30A4_U+30E4_U+30FC 1
 62
     1
420
 16711680
370
    25
  0
ENDBLK
  5
1B0
330
1AD
100
AcDbEntity
  8
0
100
AcDbBlockEnd
  0
BLOCK
  5
23A
330
238
100
AcDbEntity
  8
0
100
AcDbBlockBegin
  2
block 7
 70
     0
 10
0.0
 20
0.0
 30
0.0
  3
block 7
  1

  0
POLYLINE
  5
23C
330
238
100
AcDbEntity
  8
_U+30EC_U+30A4_U+30E4_U+30FC 1
 62
     1
420
 16711680
370
    25
100
AcDb2dPolyline
 66
     1
 10
0.0
 20
0.0
 30
0.0
  0
VERTEX
  5
23D
330
23C
100
AcDbEntity
  8
_U+30EC_U+30A4_U+30E4_U+30FC 1
 62
     1
420
 16711680
370
    25
100
AcDbVertex
100
AcDb2dVertex
 10
88.46999460179457
 20
74.23000051168455
 30
0.0
  0
VERTEX
  5
23E
330
23C
100
AcDbEntity
  8
_U+30EC_U+30A4_U+30E4_U+30FC 1
 62
     1
420
 16711680
370
    25
100
AcDbVertex
100
AcDb2dVertex
 10
91.46999470482041
 20
74.23000051168455
 30
0.0
  0
VERTEX
  5
23F
330
23C
100
AcDbEntity
  8
_U+30EC_U+30A4_U+30E4_U+30FC 1
 62
     1
420
 16711680
370
    25
100
AcDbVertex
100
AcDb2dVertex
 10
91.46999470482041
 20
76.23000035607869
 30
0.0
  0
VERTEX
  5
240
330
23C
100
AcDbEntity
  8
_U+30EC_U+30A4_U+30E4_U+30FC 1
 62
     1
420
 16711680
370
    25
100
AcDbVertex
100
AcDb2dVertex
 10
96.58999368204607
 20
76.23000035607869
 30
0.0
  0
VERTEX
  5
241
330
23C
100
AcDbEntity
  8
_U+30EC_U+30A4_U+30E4_U+30FC 1
 62
     1
420
 16711680
370
    25
100
AcDbVertex
100
AcDb2dVertex
 10
96.58999368204607
 20
74.23000051168455
 30
0.0
  0
VERTEX
  5
242
330
23C
100
AcDbEntity
  8
_U+30EC_U+30A4_U+30E4_U+30FC 1
 62
     1
420
 16711680
370
    25
100
AcDbVertex
100
AcDb2dVertex
 10
100.4699935335849
 20
74.23000051168455
 30
0.0
  0
VERTEX
  5
243
330
23C
100
AcDbEntity
  8
_U+30EC_U+30A4_U+30E4_U+30FC 1
 62
     1
420
 16711680
370
    25
100
AcDbVertex
100
AcDb2dVertex
 10
100.4699935335849
 20
76.23000035607869
 30
0.0
  0
VERTEX
  5
244
330
23C
100
AcDbEntity
  8
_U+30EC_U+30A4_U+30E4_U+30FC 1
 62
     1
420
 16711680
370
    25
100
AcDbVertex
100
AcDb2dVertex
 10
104.5899946745093
 20
76.23000035607869
 30
0.0
  0
VERTEX
  5
245
330
23C
100
AcDbEntity
  8
_U+30EC_U+30A4_U+30E4_U+30FC 1
 62
     1
420
 16711680
370
    25
100
AcDbVertex
100
AcDb2dVertex
 10
104.5899946745093
 20
74.23000051168455
 30
0.0
  0
VERTEX
  5
246
330
23C
100
AcDbEntity
  8
_U+30EC_U+30A4_U+30E4_U+30FC 1
 62
     1
420
 16711680
370
    25
100
AcDbVertex
100
AcDb2dVertex
 10
108.4699934494568
 20
74.23000051168455
 30
0.0
  0
VERTEX
  5
247
330
23C
100
AcDbEntity
  8
_U+30EC_U+30A4_U+30E4_U+30FC 1
 62
     1
420
 16711680
370
    25
100
AcDbVertex
100
AcDb2dVertex
 10
108.4699934494568
 20
76.23000035607869
 30
0.0
  0
VERTEX
  5
248
330
23C
100
AcDbEntity
  8
_U+30EC_U+30A4_U+30E4_U+30FC 1
 62
     1
420
 16711680
370
    25
100
AcDbVertex
100
AcDb2dVertex
 10
112.5899924371986
 20
76.23000035607869
 30
0.0
  0
VERTEX
  5
249
330
23C
100
AcDbEntity
  8
_U+30EC_U+30A4_U+30E4_U+30FC 1
 62
     1
420
 16711680
370
    25
100
AcDbVertex
100
AcDb2dVertex
 10
112.5899924371986
 20
74.23000051168455
 30
0.0
  0
VERTEX
  5
24A
330
23C
100
AcDbEntity
  8
_U+30EC_U+30A4_U+30E4_U+30FC 1
 62
     1
420
 16711680
370
    25
100
AcDbVertex
100
AcDb2dVertex
 10
116.4699933653288
 20
74.23000051168455
 30
0.0
  0
VERTEX
  5
24B
330
23C
100
AcDbEntity
  8
_U+30EC_U+30A4_U+30E4_U+30FC 1
 62
     1
420
 16711680
370
    25
100
AcDbVertex
100
AcDb2dVertex
 10
116.4699933653288
 20
76.23000035607869
 30
0.0
  0
VERTEX
  5
24C
330
23C
100
AcDbEntity
  8
_U+30EC_U+30A4_U+30E4_U+30FC 1
 62
     1
420
 16711680
370
    25
100
AcDbVertex
100
AcDb2dVertex
 10
120.5899923530706
 20
76.23000035607869
 30
0.0
  0
VERTEX
  5
24D
330
23C
100
AcDbEntity
  8
_U+30EC_U+30A4_U+30E4_U+30FC 1
 62
     1
420
 16711680
370
    25
100
AcDbVertex
100
AcDb2dVertex
 10
120.5899923530706
 20
74.23000051168455
 30
0.0
  0
VERTEX
  5
24E
330
23C
100
AcDbEntity
  8
_U+30EC_U+30A4_U+30E4_U+30FC 1
 62
     1
420
 16711680
370
    25
100
AcDbVertex
100
AcDb2dVertex
 10
124.4699932812007
 20
74.23000051168455
 30
0.0
  0
VERTEX
  5
24F
330
23C
100
AcDbEntity
  8
_U+30EC_U+30A4_U+30E4_U+30FC 1
 62
     1
420
 16711680
370
    25
100
AcDbVertex
100
AcDb2dVertex
 10
124.4699932812007
 20
76.23000035607869
 30
0.0
  0
VERTEX
  5
250
330
23C
100
AcDbEntity
  8
_U+30EC_U+30A4_U+30E4_U+30FC 1
 62
     1
420
 16711680
370
    25
100
AcDbVertex
100
AcDb2dVertex
 10
128.5899922689422
 20
76.23000035607869
 30
0.0
  0
VERTEX
  5
251
330
23C
100
AcDbEntity
  8
_U+30EC_U+30A4_U+30E4_U+30FC 1
 62
     1
420
 16711680
370
    25
100
AcDbVertex
100
AcDb2dVertex
 10
128.5899922689422
 20
74.23000051168455
 30
0.0
  0
VERTEX
  5
252
330
23C
100
AcDbEntity
  8
_U+30EC_U+30A4_U+30E4_U+30FC 1
 62
     1
420
 16711680
370
    25
100
AcDbVertex
100
AcDb2dVertex
 10
132.4699931970723
 20
74.23000051168455
 30
0.0
  0
VERTEX
  5
253
330
23C
100
AcDbEntity
  8
_U+30EC_U+30A4_U+30E4_U+30FC 1
 62
     1
420
 16711680
370
    25
100
AcDbVertex
100
AcDb2dVertex
 10
132.4699931970723
 20
76.23000035607869
 30
0.0
  0
VERTEX
  5
254
330
23C
100
AcDbEntity
  8
_U+30EC_U+30A4_U+30E4_U+30FC 1
 62
     1
420
 16711680
370
    25
100
AcDbVertex
100
AcDb2dVertex
 10
136.5899921848144
 20
76.23000035607869
 30
0.0
  0
VERTEX
  5
255
330
23C
100
AcDbEntity
  8
_U+30EC_U+30A4_U+30E4_U+30FC 1
 62
     1
420
 16711680
370
    25
100
AcDbVertex
100
AcDb2dVertex
 10
136.5899921848144
 20
74.23000051168455
 30
0.0
  0
VERTEX
  5
256
330
23C
100
AcDbEntity
  8
_U+30EC_U+30A4_U+30E4_U+30FC 1
 62
     1
420
 16711680
370
    25
100
AcDbVertex
100
AcDb2dVertex
 10
140.4699931129446
 20
74.23000051168455
 30
0.0
  0
VERTEX
  5
257
330
23C
100
AcDbEntity
  8
_U+30EC_U+30A4_U+30E4_U+30FC 1
 62
     1
420
 16711680
370
    25
100
AcDbVertex
100
AcDb2dVertex
 10
140.4699931129446
 20
76.23000035607869
 30
0.0
  0
VERTEX
  5
258
330
23C
100
AcDbEntity
  8
_U+30EC_U+30A4_U+30E4_U+30FC 1
 62
     1
420
 16711680
370
    25
100
AcDbVertex
100
AcDb2dVertex
 10
144.5899921006867
 20
76.23000035607869
 30
0.0
  0
VERTEX
  5
259
330
23C
100
AcDbEntity
  8
_U+30EC_U+30A4_U+30E4_U+30FC 1
 62
     1
420
 16711680
370
    25
100
AcDbVertex
100
AcDb2dVertex
 10
144.5899921006867
 20
74.23000051168455
 30
0.0
  0
VERTEX
  5
25A
330
23C
100
AcDbEntity
  8
_U+30EC_U+30A4_U+30E4_U+30FC 1
 62
     1
420
 16711680
370
    25
100
AcDbVertex
100
AcDb2dVertex
 10
148.4699930288168
 20
74.23000051168455
 30
0.0
  0
VERTEX
  5
25B
330
23C
100
AcDbEntity
  8
_U+30EC_U+30A4_U+30E4_U+30FC 1
 62
     1
420
 16711680
370
    25
100
AcDbVertex
100
AcDb2dVertex
 10
148.4699930288168
 20
76.23000035607869
 30
0.0
  0
VERTEX
  5
25C
330
23C
100
AcDbEntity
  8
_U+30EC_U+30A4_U+30E4_U+30FC 1
 62
     1
420
 16711680
370
    25
100
AcDbVertex
100
AcDb2dVertex
 10
152.5899920165583
 20
76.23000035607869
 30
0.0
  0
VERTEX
  5
25D
330
23C
100
AcDbEntity
  8
_U+30EC_U+30A4_U+30E4_U+30FC 1
 62
     1
420
 16711680
370
    25
100
AcDbVertex
100
AcDb2dVertex
 10
152.5899920165583
 20
74.23000051168455
 30
0.0
  0
VERTEX
  5
25E
330
23C
100
AcDbEntity
  8
_U+30EC_U+30A4_U+30E4_U+30FC 1
 62
     1
420
 16711680
370
    25
100
AcDbVertex
100
AcDb2dVertex
 10
156.4699886383225
 20
74.23000051168455
 30
0.0
  0
VERTEX
  5
25F
330
23C
100
AcDbEntity
  8
_U+30EC_U+30A4_U+30E4_U+30FC 1
 62
     1
420
 16711680
370
    25
100
AcDbVertex
100
AcDb2dVertex
 10
156.4699886383225
 20
76.23000035607869
 30
0.0
  0
VERTEX
  5
260
330
23C
100
AcDbEntity
  8
_U+30EC_U+30A4_U+30E4_U+30FC 1
 62
     1
420
 16711680
370
    25
100
AcDbVertex
100
AcDb2dVertex
 10
161.5899946133927
 20
76.23000035607869
 30
0.0
  0
VERTEX
  5
261
330
23C
100
AcDbEntity
  8
_U+30EC_U+30A4_U+30E4_U+30FC 1
 62
     1
420
 16711680
370
    25
100
AcDbVertex
100
AcDb2dVertex
 10
161.5899946133927
 20
74.23000051168455
 30
0.0
  0
VERTEX
  5
262
330
23C
100
AcDbEntity
  8
_U+30EC_U+30A4_U+30E4_U+30FC 1
 62
     1
420
 16711680
370
    25
100
AcDbVertex
100
AcDb2dVertex
 10
164.5899897371834
 20
74.23000051168455
 30
0.0
  0
VERTEX
  5
263
330
23C
100
AcDbEntity
  8
_U+30EC_U+30A4_U+30E4_U+30FC 1
 62
     1
420
 16711680
370
    25
100
AcDbVertex
100
AcDb2dVertex
 10
164.5899897371834
 20
69.73000069358072
 30
0.0
  0
VERTEX
  5
264
330
23C
100
AcDbEntity
  8
_U+30EC_U+30A4_U+30E4_U+30FC 1
 62
     1
420
 16711680
370
    25
100
AcDbVertex
100
AcDb2dVertex
 10
166.5899864863772
 20
69.73000069358072
 30
0.0
  0
VERTEX
  5
265
330
23C
100
AcDbEntity
  8
_U+30EC_U+30A4_U+30E4_U+30FC 1
 62
     1
420
 16711680
370
    25
100
AcDbVertex
100
AcDb2dVertex
 10
166.5899864863772
 20
63.11000092468512
 30
0.0
  0
VERTEX
  5
266
330
23C
100
AcDbEntity
  8
_U+30EC_U+30A4_U+30E4_U+30FC 1
 62
     1
420
 16711680
370
    25
100
AcDbVertex
100
AcDb2dVertex
 10
164.5899897371834
 20
63.11000092468512
 30
0.0
  0
VERTEX
  5
267
330
23C
100
AcDbEntity
  8
_U+30EC_U+30A4_U+30E4_U+30FC 1
 62
     1
420
 16711680
370
    25
100
AcDbVertex
100
AcDb2dVertex
 10
164.5899897371834
 20
59.23000107314661
 30
0.0
  0
VERTEX
  5
268
330
23C
100
AcDbEntity
  8
_U+30EC_U+30A4_U+30E4_U+30FC 1
 62
     1
420
 16711680
370
    25
100
AcDbVertex
100
AcDb2dVertex
 10
166.5899864863772
 20
59.23000107314661
 30
0.0
  0
VERTEX
  5
269
330
23C
100
AcDbEntity
  8
_U+30EC_U+30A4_U+30E4_U+30FC 1
 62
     1
420
 16711680
370
    25
100
AcDbVertex
100
AcDb2dVertex
 10
166.5899864863772
 20
55.11000100881351
 30
0.0
  0
VERTEX
  5
26A
330
23C
100
AcDbEntity
  8
_U+30EC_U+30A4_U+30E4_U+30FC 1
 62
     1
420
 16711680
370
    25
100
AcDbVertex
100
AcDb2dVertex
 10
164.5899897371834
 20
55.11000100881351
 30
0.0
  0
VERTEX
  5
26B
330
23C
100
AcDbEntity
  8
_U+30EC_U+30A4_U+30E4_U+30FC 1
 62
     1
420
 16711680
370
    25
100
AcDbVertex
100
AcDb2dVertex
 10
164.5899897371834
 20
51.23000223386599
 30
0.0
  0
VERTEX
  5
26C
330
23C
100
AcDbEntity
  8
_U+30EC_U+30A4_U+30E4_U+30FC 1
 62
     1
420
 16711680
370
    25
100
AcDbVertex
100
AcDb2dVertex
 10
166.5899864863772
 20
51.23000223386599
 30
0.0
  0
VERTEX
  5
26D
330
23C
100
AcDbEntity
  8
_U+30EC_U+30A4_U+30E4_U+30FC 1
 62
     1
420
 16711680
370
    25
100
AcDbVertex
100
AcDb2dVertex
 10
166.5899864863772
 20
47.11000109294125
 30
0.0
  0
VERTEX
  5
26E
330
23C
100
AcDbEntity
  8
_U+30EC_U+30A4_U+30E4_U+30FC 1
 62
     1
420
 16711680
370
    25
100
AcDbVertex
100
AcDb2dVertex
 10
164.5899897371834
 20
47.11000109294125
 30
0.0
  0
VERTEX
  5
26F
330
23C
100
AcDbEntity
  8
_U+30EC_U+30A4_U+30E4_U+30FC 1
 62
     1
420
 16711680
370
    25
100
AcDbVertex
100
AcDb2dVertex
 10
164.5899897371834
 20
43.23000231799438
 30
0.0
  0
VERTEX
  5
270
330
23C
100
AcDbEntity
  8
_U+30EC_U+30A4_U+30E4_U+30FC 1
 62
     1
420
 16711680
370
    25
100
AcDbVertex
100
AcDb2dVertex
 10
166.5899864863772
 20
43.23000231799438
 30
0.0
  0
VERTEX
  5
271
330
23C
100
AcDbEntity
  8
_U+30EC_U+30A4_U+30E4_U+30FC 1
 62
     1
420
 16711680
370
    25
100
AcDbVertex
100
AcDb2dVertex
 10
166.5899864863772
 20
39.11000333025226
 30
0.0
  0
VERTEX
  5
272
330
23C
100
AcDbEntity
  8
_U+30EC_U+30A4_U+30E4_U+30FC 1
 62
     1
420
 16711680
370
    25
100
AcDbVertex
100
AcDb2dVertex
 10
164.5899897371834
 20
39.11000333025226
 30
0.0
  0
VERTEX
  5
273
330
23C
100
AcDbEntity
  8
_U+30EC_U+30A4_U+30E4_U+30FC 1
 62
     1
420
 16711680
370
    25
100
AcDbVertex
100
AcDb2dVertex
 10
164.5899897371834
 20
35.23000240212212
 30
0.0
  0
VERTEX
  5
274
330
23C
100
AcDbEntity
  8
_U+30EC_U+30A4_U+30E4_U+30FC 1
 62
     1
420
 16711680
370
    25
100
AcDbVertex
100
AcDb2dVertex
 10
166.5899864863772
 20
35.23000240212212
 30
0.0
  0
VERTEX
  5
275
330
23C
100
AcDbEntity
  8
_U+30EC_U+30A4_U+30E4_U+30FC 1
 62
     1
420
 16711680
370
    25
100
AcDbVertex
100
AcDb2dVertex
 10
166.5899864863772
 20
31.11000341438001
 30
0.0
  0
VERTEX
  5
276
330
23C
100
AcDbEntity
  8
_U+30EC_U+30A4_U+30E4_U+30FC 1
 62
     1
420
 16711680
370
    25
100
AcDbVertex
100
AcDb2dVertex
 10
164.5899897371834
 20
31.11000341438001
 30
0.0
  0
VERTEX
  5
277
330
23C
100
AcDbEntity
  8
_U+30EC_U+30A4_U+30E4_U+30FC 1
 62
     1
420
 16711680
370
    25
100
AcDbVertex
100
AcDb2dVertex
 10
164.5899897371834
 20
27.23000248624987
 30
0.0
  0
VERTEX
  5
278
330
23C
100
AcDbEntity
  8
_U+30EC_U+30A4_U+30E4_U+30FC 1
 62
     1
420
 16711680
370
    25
100
AcDbVertex
100
AcDb2dVertex
 10
166.5899864863772
 20
27.23000248624987
 30
0.0
  0
VERTEX
  5
279
330
23C
100
AcDbEntity
  8
_U+30EC_U+30A4_U+30E4_U+30FC 1
 62
     1
420
 16711680
370
    25
100
AcDbVertex
100
AcDb2dVertex
 10
166.5899864863772
 20
23.1100034985084
 30
0.0
  0
VERTEX
  5
27A
330
23C
100
AcDbEntity
  8
_U+30EC_U+30A4_U+30E4_U+30FC 1
 62
     1
420
 16711680
370
    25
100
AcDbVertex
100
AcDb2dVertex
 10
164.5899897371834
 20
23.1100034985084
 30
0.0
  0
VERTEX
  5
27B
330
23C
100
AcDbEntity
  8
_U+30EC_U+30A4_U+30E4_U+30FC 1
 62
     1
420
 16711680
370
    25
100
AcDbVertex
100
AcDb2dVertex
 10
164.5899897371834
 20
19.23000257037825
 30
0.0
  0
VERTEX
  5
27C
330
23C
100
AcDbEntity
  8
_U+30EC_U+30A4_U+30E4_U+30FC 1
 62
     1
420
 16711680
370
    25
100
AcDbVertex
100
AcDb2dVertex
 10
166.5899864863772
 20
19.23000257037825
 30
0.0
  0
VERTEX
  5
27D
330
23C
100
AcDbEntity
  8
_U+30EC_U+30A4_U+30E4_U+30FC 1
 62
     1
420
 16711680
370
    25
100
AcDbVertex
100
AcDb2dVertex
 10
166.5899864863772
 20
12.61000333977896
 30
0.0
  0
VERTEX
  5
27E
330
23C
100
AcDbEntity
  8
_U+30EC_U+30A4_U+30E4_U+30FC 1
 62
     1
420
 16711680
370
    25
100
AcDbVertex
100
AcDb2dVertex
 10
164.5899897371834
 20
12.61000333977896
 30
0.0
  0
VERTEX
  5
27F
330
23C
100
AcDbEntity
  8
_U+30EC_U+30A4_U+30E4_U+30FC 1
 62
     1
420
 16711680
370
    25
100
AcDbVertex
100
AcDb2dVertex
 10
164.5899897371834
 20
8.110006347727323
 30
0.0
  0
VERTEX
  5
280
330
23C
100
AcDbEntity
  8
_U+30EC_U+30A4_U+30E4_U+30FC 1
 62
     1
420
 16711680
370
    25
100
AcDbVertex
100
AcDb2dVertex
 10
161.5899946133927
 20
8.110006347727323
 30
0.0
  0
VERTEX
  5
281
330
23C
100
AcDbEntity
  8
_U+30EC_U+30A4_U+30E4_U+30FC 1
 62
     1
420
 16711680
370
    25
100
AcDbVertex
100
AcDb2dVertex
 10
161.5899946133927
 20
6.110005292167625
 30
0.0
  0
VERTEX
  5
282
330
23C
100
AcDbEntity
  8
_U+30EC_U+30A4_U+30E4_U+30FC 1
 62
     1
420
 16711680
370
    25
100
AcDbVertex
100
AcDb2dVertex
 10
156.4699886383225
 20
6.110005292167625
 30
0.0
  0
VERTEX
  5
283
330
23C
100
AcDbEntity
  8
_U+30EC_U+30A4_U+30E4_U+30FC 1
 62
     1
420
 16711680
370
    25
100
AcDbVertex
100
AcDb2dVertex
 10
156.4699886383225
 20
8.110006347727323
 30
0.0
  0
VERTEX
  5
284
330
23C
100
AcDbEntity
  8
_U+30EC_U+30A4_U+30E4_U+30FC 1
 62
     1
420
 16711680
370
    25
100
AcDbVertex
100
AcDb2dVertex
 10
152.5899920165583
 20
8.110006347727323
 30
0.0
  0
VERTEX
  5
285
330
23C
100
AcDbEntity
  8
_U+30EC_U+30A4_U+30E4_U+30FC 1
 62
     1
420
 16711680
370
    25
100
AcDbVertex
100
AcDb2dVertex
 10
152.5899920165583
 20
6.110005292167625
 30
0.0
  0
VERTEX
  5
286
330
23C
100
AcDbEntity
  8
_U+30EC_U+30A4_U+30E4_U+30FC 1
 62
     1
420
 16711680
370
    25
100
AcDbVertex
100
AcDb2dVertex
 10
148.4699930288168
 20
6.110005292167625
 30
0.0
  0
VERTEX
  5
287
330
23C
100
AcDbEntity
  8
_U+30EC_U+30A4_U+30E4_U+30FC 1
 62
     1
420
 16711680
370
    25
100
AcDbVertex
100
AcDb2dVertex
 10
148.4699930288168
 20
8.110006347727323
 30
0.0
  0
VERTEX
  5
288
330
23C
100
AcDbEntity
  8
_U+30EC_U+30A4_U+30E4_U+30FC 1
 62
     1
420
 16711680
370
    25
100
AcDbVertex
100
AcDb2dVertex
 10
144.5899921006867
 20
8.110006347727323
 30
0.0
  0
VERTEX
  5
289
330
23C
100
AcDbEntity
  8
_U+30EC_U+30A4_U+30E4_U+30FC 1
 62
     1
420
 16711680
370
    25
100
AcDbVertex
100
AcDb2dVertex
 10
144.5899921006867
 20
6.110005292167625
 30
0.0
  0
VERTEX
  5
28A
330
23C
100
AcDbEntity
  8
_U+30EC_U+30A4_U+30E4_U+30FC 1
 62
     1
420
 16711680
370
    25
100
AcDbVertex
100
AcDb2dVertex
 10
140.4699931129446
 20
6.110005292167625
 30
0.0
  0
VERTEX
  5
28B
330
23C
100
AcDbEntity
  8
_U+30EC_U+30A4_U+30E4_U+30FC 1
 62
     1
420
 16711680
370
    25
100
AcDbVertex
100
AcDb2dVertex
 10
140.4699931129446
 20
8.110006347727323
 30
0.0
  0
VERTEX
  5
28C
330
23C
100
AcDbEntity
  8
_U+30EC_U+30A4_U+30E4_U+30FC 1
 62
     1
420
 16711680
370
    25
100
AcDbVertex
100
AcDb2dVertex
 10
136.5899921848144
 20
8.110006347727323
 30
0.0
  0
VERTEX
  5
28D
330
23C
100
AcDbEntity
  8
_U+30EC_U+30A4_U+30E4_U+30FC 1
 62
     1
420
 16711680
370
    25
100
AcDbVertex
100
AcDb2dVertex
 10
136.5899921848144
 20
6.110005292167625
 30
0.0
  0
VERTEX
  5
28E
330
23C
100
AcDbEntity
  8
_U+30EC_U+30A4_U+30E4_U+30FC 1
 62
     1
420
 16711680
370
    25
100
AcDbVertex
100
AcDb2dVertex
 10
132.4699931970723
 20
6.110005292167625
 30
0.0
  0
VERTEX
  5
28F
330
23C
100
AcDbEntity
  8
_U+30EC_U+30A4_U+30E4_U+30FC 1
 62
     1
420
 16711680
370
    25
100
AcDbVertex
100
AcDb2dVertex
 10
132.4699931970723
 20
8.110006347727323
 30
0.0
  0
VERTEX
  5
290
330
23C
100
AcDbEntity
  8
_U+30EC_U+30A4_U+30E4_U+30FC 1
 62
     1
420
 16711680
370
    25
100
AcDbVertex
100
AcDb2dVertex
 10
128.5899922689422
 20
8.110006347727323
 30
0.0
  0
VERTEX
  5
291
330
23C
100
AcDbEntity
  8
_U+30EC_U+30A4_U+30E4_U+30FC 1
 62
     1
420
 16711680
370
    25
100
AcDbVertex
100
AcDb2dVertex
 10
128.5899922689422
 20
6.110005292167625
 30
0.0
  0
VERTEX
  5
292
330
23C
100
AcDbEntity
  8
_U+30EC_U+30A4_U+30E4_U+30FC 1
 62
     1
420
 16711680
370
    25
100
AcDbVertex
100
AcDb2dVertex
 10
124.4699932812007
 20
6.110005292167625
 30
0.0
  0
VERTEX
  5
293
330
23C
100
AcDbEntity
  8
_U+30EC_U+30A4_U+30E4_U+30FC 1
 62
     1
420
 16711680
370
    25
100
AcDbVertex
100
AcDb2dVertex
 10
124.4699932812007
 20
8.110006347727323
 30
0.0
  0
VERTEX
  5
294
330
23C
100
AcDbEntity
  8
_U+30EC_U+30A4_U+30E4_U+30FC 1
 62
     1
420
 16711680
370
    25
100
AcDbVertex
100
AcDb2dVertex
 10
120.5899923530706
 20
8.110006347727323
 30
0.0
  0
VERTEX
  5
295
330
23C
100
AcDbEntity
  8
_U+30EC_U+30A4_U+30E4_U+30FC 1
 62
     1
420
 16711680
370
    25
100
AcDbVertex
100
AcDb2dVertex
 10
120.5899923530706
 20
6.110005292167625
 30
0.0
  0
VERTEX
  5
296
330
23C
100
AcDbEntity
  8
_U+30EC_U+30A4_U+30E4_U+30FC 1
 62
     1
420
 16711680
370
    25
100
AcDbVertex
100
AcDb2dVertex
 10
116.4699933653288
 20
6.110005292167625
 30
0.0
  0
VERTEX
  5
297
330
23C
100
AcDbEntity
  8
_U+30EC_U+30A4_U+30E4_U+30FC 1
 62
     1
420
 16711680
370
    25
100
AcDbVertex
100
AcDb2dVertex
 10
116.4699933653288
 20
8.110006347727323
 30
0.0
  0
VERTEX
  5
298
330
23C
100
AcDbEntity
  8
_U+30EC_U+30A4_U+30E4_U+30FC 1
 62
     1
420
 16711680
370
    25
100
AcDbVertex
100
AcDb2dVertex
 10
112.5899924371986
 20
8.110006347727323
 30
0.0
  0
VERTEX
  5
299
330
23C
100
AcDbEntity
  8
_U+30EC_U+30A4_U+30E4_U+30FC 1
 62
     1
420
 16711680
370
    25
100
AcDbVertex
100
AcDb2dVertex
 10
112.5899924371986
 20
6.110005292167625
 30
0.0
  0
VERTEX
  5
29A
330
23C
100
AcDbEntity
  8
_U+30EC_U+30A4_U+30E4_U+30FC 1
 62
     1
420
 16711680
370
    25
100
AcDbVertex
100
AcDb2dVertex
 10
108.4699934494568
 20
6.110005292167625
 30
0.0
  0
VERTEX
  5
29B
330
23C
100
AcDbEntity
  8
_U+30EC_U+30A4_U+30E4_U+30FC 1
 62
     1
420
 16711680
370
    25
100
AcDbVertex
100
AcDb2dVertex
 10
108.4699934494568
 20
8.110006347727323
 30
0.0
  0
VERTEX
  5
29C
330
23C
100
AcDbEntity
  8
_U+30EC_U+30A4_U+30E4_U+30FC 1
 62
     1
420
 16711680
370
    25
100
AcDbVertex
100
AcDb2dVertex
 10
104.5899946745093
 20
8.110006347727323
 30
0.0
  0
VERTEX
  5
29D
330
23C
100
AcDbEntity
  8
_U+30EC_U+30A4_U+30E4_U+30FC 1
 62
     1
420
 16711680
370
    25
100
AcDbVertex
100
AcDb2dVertex
 10
104.5899946745093
 20
6.110005292167625
 30
0.0
  0
VERTEX
  5
29E
330
23C
100
AcDbEntity
  8
_U+30EC_U+30A4_U+30E4_U+30FC 1
 62
     1
420
 16711680
370
    25
100
AcDbVertex
100
AcDb2dVertex
 10
100.4699935335849
 20
6.110005292167625
 30
0.0
  0
VERTEX
  5
29F
330
23C
100
AcDbEntity
  8
_U+30EC_U+30A4_U+30E4_U+30FC 1
 62
     1
420
 16711680
370
    25
100
AcDbVertex
100
AcDb2dVertex
 10
100.4699935335849
 20
8.110006347727323
 30
0.0
  0
VERTEX
  5
2A0
330
23C
100
AcDbEntity
  8
_U+30EC_U+30A4_U+30E4_U+30FC 1
 62
     1
420
 16711680
370
    25
100
AcDbVertex
100
AcDb2dVertex
 10
96.58999368204607
 20
8.110006347727323
 30
0.0
  0
VERTEX
  5
2A1
330
23C
100
AcDbEntity
  8
_U+30EC_U+30A4_U+30E4_U+30FC 1
 62
     1
420
 16711680
370
    25
100
AcDbVertex
100
AcDb2dVertex
 10
96.58999368204607
 20
6.110005292167625
 30
0.0
  0
VERTEX
  5
2A2
330
23C
100
AcDbEntity
  8
_U+30EC_U+30A4_U+30E4_U+30FC 1
 62
     1
420
 16711680
370
    25
100
AcDbVertex
100
AcDb2dVertex
 10
91.46999470482041
 20
6.110005292167625
 30
0.0
  0
VERTEX
  5
2A3
330
23C
100
AcDbEntity
  8
_U+30EC_U+30A4_U+30E4_U+30FC 1
 62
     1
420
 16711680
370
    25
100
AcDbVertex
100
AcDb2dVertex
 10
91.46999470482041
 20
8.110006347727323
 30
0.0
  0
VERTEX
  5
2A4
330
23C
100
AcDbEntity
  8
_U+30EC_U+30A4_U+30E4_U+30FC 1
 62
     1
420
 16711680
370
    25
100
AcDbVertex
100
AcDb2dVertex
 10
88.46999460179457
 20
8.110006347727323
 30
0.0
  0
VERTEX
  5
2A5
330
23C
100
AcDbEntity
  8
_U+30EC_U+30A4_U+30E4_U+30FC 1
 62
     1
420
 16711680
370
    25
100
AcDbVertex
100
AcDb2dVertex
 10
88.46999460179457
 20
12.61000333977896
 30
0.0
  0
VERTEX
  5
2A6
330
23C
100
AcDbEntity
  8
_U+30EC_U+30A4_U+30E4_U+30FC 1
 62
     1
420
 16711680
370
    25
100
AcDbVertex
100
AcDb2dVertex
 10
86.46999475740041
 20
12.61000333977896
 30
0.0
  0
VERTEX
  5
2A7
330
23C
100
AcDbEntity
  8
_U+30EC_U+30A4_U+30E4_U+30FC 1
 62
     1
420
 16711680
370
    25
100
AcDbVertex
100
AcDb2dVertex
 10
86.46999475740041
 20
19.23000257037825
 30
0.0
  0
VERTEX
  5
2A8
330
23C
100
AcDbEntity
  8
_U+30EC_U+30A4_U+30E4_U+30FC 1
 62
     1
420
 16711680
370
    25
100
AcDbVertex
100
AcDb2dVertex
 10
88.46999460179457
 20
19.23000257037825
 30
0.0
  0
VERTEX
  5
2A9
330
23C
100
AcDbEntity
  8
_U+30EC_U+30A4_U+30E4_U+30FC 1
 62
     1
420
 16711680
370
    25
100
AcDbVertex
100
AcDb2dVertex
 10
88.46999460179457
 20
23.1100034985084
 30
0.0
  0
VERTEX
  5
2AA
330
23C
100
AcDbEntity
  8
_U+30EC_U+30A4_U+30E4_U+30FC 1
 62
     1
420
 16711680
370
    25
100
AcDbVertex
100
AcDb2dVertex
 10
86.46999475740041
 20
23.1100034985084
 30
0.0
  0
VERTEX
  5
2AB
330
23C
100
AcDbEntity
  8
_U+30EC_U+30A4_U+30E4_U+30FC 1
 62
     1
420
 16711680
370
    25
100
AcDbVertex
100
AcDb2dVertex
 10
86.46999475740041
 20
27.23000248624987
 30
0.0
  0
VERTEX
  5
2AC
330
23C
100
AcDbEntity
  8
_U+30EC_U+30A4_U+30E4_U+30FC 1
 62
     1
420
 16711680
370
    25
100
AcDbVertex
100
AcDb2dVertex
 10
88.46999460179457
 20
27.23000248624987
 30
0.0
  0
VERTEX
  5
2AD
330
23C
100
AcDbEntity
  8
_U+30EC_U+30A4_U+30E4_U+30FC 1
 62
     1
420
 16711680
370
    25
100
AcDbVertex
100
AcDb2dVertex
 10
88.46999460179457
 20
31.11000341438001
 30
0.0
  0
VERTEX
  5
2AE
330
23C
100
AcDbEntity
  8
_U+30EC_U+30A4_U+30E4_U+30FC 1
 62
     1
420
 16711680
370
    25
100
AcDbVertex
100
AcDb2dVertex
 10
86.46999475740041
 20
31.11000341438001
 30
0.0
  0
VERTEX
  5
2AF
330
23C
100
AcDbEntity
  8
_U+30EC_U+30A4_U+30E4_U+30FC 1
 62
     1
420
 16711680
370
    25
100
AcDbVertex
100
AcDb2dVertex
 10
86.46999475740041
 20
35.23000240212212
 30
0.0
  0
VERTEX
  5
2B0
330
23C
100
AcDbEntity
  8
_U+30EC_U+30A4_U+30E4_U+30FC 1
 62
     1
420
 16711680
370
    25
100
AcDbVertex
100
AcDb2dVertex
 10
88.46999460179457
 20
35.23000240212212
 30
0.0
  0
VERTEX
  5
2B1
330
23C
100
AcDbEntity
  8
_U+30EC_U+30A4_U+30E4_U+30FC 1
 62
     1
420
 16711680
370
    25
100
AcDbVertex
100
AcDb2dVertex
 10
88.46999460179457
 20
39.11000333025226
 30
0.0
  0
VERTEX
  5
2B2
330
23C
100
AcDbEntity
  8
_U+30EC_U+30A4_U+30E4_U+30FC 1
 62
     1
420
 16711680
370
    25
100
AcDbVertex
100
AcDb2dVertex
 10
86.46999475740041
 20
39.11000333025226
 30
0.0
  0
VERTEX
  5
2B3
330
23C
100
AcDbEntity
  8
_U+30EC_U+30A4_U+30E4_U+30FC 1
 62
     1
420
 16711680
370
    25
100
AcDbVertex
100
AcDb2dVertex
 10
86.46999475740041
 20
43.23000231799438
 30
0.0
  0
VERTEX
  5
2B4
330
23C
100
AcDbEntity
  8
_U+30EC_U+30A4_U+30E4_U+30FC 1
 62
     1
420
 16711680
370
    25
100
AcDbVertex
100
AcDb2dVertex
 10
88.46999460179457
 20
43.23000231799438
 30
0.0
  0
VERTEX
  5
2B5
330
23C
100
AcDbEntity
  8
_U+30EC_U+30A4_U+30E4_U+30FC 1
 62
     1
420
 16711680
370
    25
100
AcDbVertex
100
AcDb2dVertex
 10
88.46999460179457
 20
47.11000109294125
 30
0.0
  0
VERTEX
  5
2B6
330
23C
100
AcDbEntity
  8
_U+30EC_U+30A4_U+30E4_U+30FC 1
 62
     1
420
 16711680
370
    25
100
AcDbVertex
100
AcDb2dVertex
 10
86.46999475740041
 20
47.11000109294125
 30
0.0
  0
VERTEX
  5
2B7
330
23C
100
AcDbEntity
  8
_U+30EC_U+30A4_U+30E4_U+30FC 1
 62
     1
420
 16711680
370
    25
100
AcDbVertex
100
AcDb2dVertex
 10
86.46999475740041
 20
51.23000223386599
 30
0.0
  0
VERTEX
  5
2B8
330
23C
100
AcDbEntity
  8
_U+30EC_U+30A4_U+30E4_U+30FC 1
 62
     1
420
 16711680
370
    25
100
AcDbVertex
100
AcDb2dVertex
 10
88.46999460179457
 20
51.23000223386599
 30
0.0
  0
VERTEX
  5
2B9
330
23C
100
AcDbEntity
  8
_U+30EC_U+30A4_U+30E4_U+30FC 1
 62
     1
420
 16711680
370
    25
100
AcDbVertex
100
AcDb2dVertex
 10
88.46999460179457
 20
55.11000100881351
 30
0.0
  0
VERTEX
  5
2BA
330
23C
100
AcDbEntity
  8
_U+30EC_U+30A4_U+30E4_U+30FC 1
 62
     1
420
 16711680
370
    25
100
AcDbVertex
100
AcDb2dVertex
 10
86.46999475740041
 20
55.11000100881351
 30
0.0
  0
VERTEX
  5
2BB
330
23C
100
AcDbEntity
  8
_U+30EC_U+30A4_U+30E4_U+30FC 1
 62
     1
420
 16711680
370
    25
100
AcDbVertex
100
AcDb2dVertex
 10
86.46999475740041
 20
59.23000107314661
 30
0.0
  0
VERTEX
  5
2BC
330
23C
100
AcDbEntity
  8
_U+30EC_U+30A4_U+30E4_U+30FC 1
 62
     1
420
 16711680
370
    25
100
AcDbVertex
100
AcDb2dVertex
 10
88.46999460179457
 20
59.23000107314661
 30
0.0
  0
VERTEX
  5
2BD
330
23C
100
AcDbEntity
  8
_U+30EC_U+30A4_U+30E4_U+30FC 1
 62
     1
420
 16711680
370
    25
100
AcDbVertex
100
AcDb2dVertex
 10
88.46999460179457
 20
63.11000092468512
 30
0.0
  0
VERTEX
  5
2BE
330
23C
100
AcDbEntity
  8
_U+30EC_U+30A4_U+30E4_U+30FC 1
 62
     1
420
 16711680
370
    25
100
AcDbVertex
100
AcDb2dVertex
 10
86.46999475740041
 20
63.11000092468512
 30
0.0
  0
VERTEX
  5
2BF
330
23C
100
AcDbEntity
  8
_U+30EC_U+30A4_U+30E4_U+30FC 1
 62
     1
420
 16711680
370
    25
100
AcDbVertex
100
AcDb2dVertex
 10
86.46999475740041
 20
69.73000069358072
 30
0.0
  0
VERTEX
  5
2C0
330
23C
100
AcDbEntity
  8
_U+30EC_U+30A4_U+30E4_U+30FC 1
 62
     1
420
 16711680
370
    25
100
AcDbVertex
100
AcDb2dVertex
 10
88.46999460179457
 20
69.73000069358072
 30
0.0
  0
VERTEX
  5
2C1
330
23C
100
AcDbEntity
  8
_U+30EC_U+30A4_U+30E4_U+30FC 1
 62
     1
420
 16711680
370
    25
100
AcDbVertex
100
AcDb2dVertex
 10
88.46999460179457
 20
74.23000051168455
 30
0.0
  0
SEQEND
  5
2C2
330
23C
100
AcDbEntity
  8
_U+30EC_U+30A4_U+30E4_U+30FC 1
 62
     1
420
 16711680
370
    25
  0
ENDBLK
  5
23B
330
238
100
AcDbEntity
  8
0
100
AcDbBlockEnd
  0
ENDSEC
  0
SECTION
  2
ENTITIES
  0
INSERT
  5
42
330
1F
100
AcDbEntity
  8
_U+30EC_U+30A4_U+30E4_U+30FC 1
100
AcDbBlockReference
  2
block 2
 10
0.0
 20
0.0
 30
0.0
  0
INSERT
  5
A5
330
1F
100
AcDbEntity
  8
_U+30EC_U+30A4_U+30E4_U+30FC 1
100
AcDbBlockReference
  2
block 3
 10
0.0
 20
0.0
 30
0.0
  0
INSERT
  5
108
330
1F
100
AcDbEntity
  8
_U+30EC_U+30A4_U+30E4_U+30FC 1
100
AcDbBlockReference
  2
block 4
 10
0.0
 20
0.0
 30
0.0
  0
INSERT
  5
15B
330
1F
100
AcDbEntity
  8
_U+30EC_U+30A4_U+30E4_U+30FC 1
100
AcDbBlockReference
  2
block 5
 10
0.0
 20
0.0
 30
0.0
  0
INSERT
  5
1AE
330
1F
100
AcDbEntity
  8
_U+30EC_U+30A4_U+30E4_U+30FC 1
100
AcDbBlockReference
  2
block 6
 10
0.0
 20
0.0
 30
0.0
  0
INSERT
  5
239
330
1F
100
AcDbEntity
  8
_U+30EC_U+30A4_U+30E4_U+30FC 1
100
AcDbBlockReference
  2
block 7
 10
0.0
 20
0.0
 30
0.0
  0
SPLINE
  5
2C3
330
1F
100
AcDbEntity
  8
_U+30EC_U+30A4_U+30E4_U+30FC 1
 62
     1
420
 16711680
370
    25
100
AcDbSpline
210
0.0
220
0.0
230
1.0
 70
    11
 71
     3
 72
    17
 73
    13
 74
     0
 42
0.0000000001
 43
0.0000000001
 12
1.0
 22
0.0
 32
0.0
 13
1.0
 23
0.0
 33
0.0
 40
0.0
 40
0.0
 40
0.0
 40
0.0
 40
1.0
 40
1.0
 40
1.0
 40
2.0
 40
2.0
 40
2.0
 40
3.0
 40
3.0
 40
3.0
 40
4.0
 40
4.0
 40
4.0
 40
4.0
 10
187.7694485454138
 20
60.94229935203384
 30
0.0
 10
187.7694485454138
 20
58.67793187841963
 30
0.0
 10
185.9338160200523
 20
56.84229935305881
 30
0.0
 10
183.6694485464388
 20
56.84229935305881
 30
0.0
 10
181.4050810728245
 20
56.84229935305881
 30
0.0
 10
179.5694485474637
 20
58.67793187841963
 30
0.0
 10
179.5694485474637
 20
60.94229935203384
 30
0.0
 10
179.5694485474637
 20
63.2066668256474
 30
0.0
 10
181.4050810728245
 20
65.04229935100823
 30
0.0
 10
183.6694485464388
 20
65.04229935100823
 30
0.0
 10
185.9338160200523
 20
65.04229935100823
 30
0.0
 10
187.7694485454138
 20
63.2066668256474
 30
0.0
 10
187.7694485454138
 20
60.94229935203384
 30
0.0
  0
SPLINE
  5
2C4
330
1F
100
AcDbEntity
  8
_U+30EC_U+30A4_U+30E4_U+30FC 1
 62
     1
420
 16711680
370
    25
100
AcDbSpline
210
0.0
220
0.0
230
1.0
 70
    11
 71
     3
 72
    17
 73
    13
 74
     0
 42
0.0000000001
 43
0.0000000001
 12
1.0
 22
0.0
 32
0.0
 13
1.0
 23
0.0
 33
0.0
 40
0.0
 40
0.0
 40
0.0
 40
0.0
 40
1.0
 40
1.0
 40
1.0
 40
2.0
 40
2.0
 40
2.0
 40
3.0
 40
3.0
 40
3.0
 40
4.0
 40
4.0
 40
4.0
 40
4.0
 10
187.7694485454138
 20
89.29000013799536
 30
0.0
 10
187.7694485454138
 20
87.02563266438148
 30
0.0
 10
185.9338160200523
 20
85.19000013902033
 30
0.0
 10
183.6694485464388
 20
85.19000013902033
 30
0.0
 10
181.4050810728245
 20
85.19000013902033
 30
0.0
 10
179.5694485474637
 20
87.02563266438148
 30
0.0
 10
179.5694485474637
 20
89.29000013799536
 30
0.0
 10
179.5694485474637
 20
91.55436761160925
 30
0.0
 10
181.4050810728245
 20
93.3900001369704
 30
0.0
 10
183.6694485464388
 20
93.3900001369704
 30
0.0
 10
185.9338160200523
 20
93.3900001369704
 30
0.0
 10
187.7694485454138
 20
91.55436761160925
 30
0.0
 10
187.7694485454138
 20
89.29000013799536
 30
0.0
  0
SPLINE
  5
2C5
330
1F
100
AcDbEntity
  8
_U+30EC_U+30A4_U+30E4_U+30FC 1
 62
     1
420
 16711680
370
    25
100
AcDbSpline
210
0.0
220
0.0
230
1.0
 70
    11
 71
     3
 72
    17
 73
    13
 74
     0
 42
0.0000000001
 43
0.0000000001
 12
1.0
 22
0.0
 32
0.0
 13
1.0
 23
0.0
 33
0.0
 40
0.0
 40
0.0
 40
0.0
 40
0.0
 40
1.0
 40
1.0
 40
1.0
 40
2.0
 40
2.0
 40
2.0
 40
3.0
 40
3.0
 40
3.0
 40
4.0
 40
4.0
 40
4.0
 40
4.0
 10
140.0299947440106
 20
89.29000013799569
 30
0.0
 10
140.0299947440106
 20
87.35700351417867
 30
0.0
 10
138.4629913687024
 20
85.79000013887052
 30
0.0
 10
136.529994744886
 20
85.79000013887052
 30
0.0
 10
134.596998121069
 20
85.79000013887052
 30
0.0
 10
133.0299947457609
 20
87.35700351417867
 30
0.0
 10
133.0299947457609
 20
89.29000013799569
 30
0.0
 10
133.0299947457609
 20
91.22299676181206
 30
0.0
 10
134.596998121069
 20
92.79000013712022
 30
0.0
 10
136.529994744886
 20
92.79000013712022
 30
0.0
 10
138.4629913687024
 20
92.79000013712022
 30
0.0
 10
140.0299947440106
 20
91.22299676181206
 30
0.0
 10
140.0299947440106
 20
89.29000013799569
 30
0.0
  0
POLYLINE
  5
2C6
330
1F
100
AcDbEntity
  8
_U+30EC_U+30A4_U+30E4_U+30FC 1
 62
     1
420
 16711680
370
    25
100
AcDb2dPolyline
 66
     1
 10
0.0
 20
0.0
 30
0.0
  0
VERTEX
  5
2C7
330
2C6
100
AcDbEntity
  8
_U+30EC_U+30A4_U+30E4_U+30FC 1
 62
     1
420
 16711680
370
    25
100
AcDbVertex
100
AcDb2dVertex
 10
155.589994740121
 20
17.11041047410275
 30
0.0
  0
VERTEX
  5
2C8
330
2C6
100
AcDbEntity
  8
_U+30EC_U+30A4_U+30E4_U+30FC 1
 62
     1
420
 16711680
370
    25
100
AcDbVertex
100
AcDb2dVertex
 10
150.5899947413702
 20
17.11041047410275
 30
0.0
  0
VERTEX
  5
2C9
330
2C6
100
AcDbEntity
  8
_U+30EC_U+30A4_U+30E4_U+30FC 1
 62
     1
420
 16711680
370
    25
100
AcDbVertex
100
AcDb2dVertex
 10
150.5899947413702
 20
26.11041047185263
 30
0.0
  0
VERTEX
  5
2CA
330
2C6
100
AcDbEntity
  8
_U+30EC_U+30A4_U+30E4_U+30FC 1
 62
     1
420
 16711680
370
    25
100
AcDbVertex
100
AcDb2dVertex
 10
155.589994740121
 20
26.11041047185263
 30
0.0
  0
VERTEX
  5
2CB
330
2C6
100
AcDbEntity
  8
_U+30EC_U+30A4_U+30E4_U+30FC 1
 62
     1
420
 16711680
370
    25
100
AcDbVertex
100
AcDb2dVertex
 10
155.589994740121
 20
17.11041047410275
 30
0.0
  0
SEQEND
  5
2CC
330
2C6
100
AcDbEntity
  8
_U+30EC_U+30A4_U+30E4_U+30FC 1
 62
     1
420
 16711680
370
    25
  0
ENDSEC
  0
SECTION
  2
OBJECTS
  0
DICTIONARY
  5
C
330
0
100
AcDbDictionary
281
     1
  3
ACAD_GROUP
350
D
  3
ACAD_LAYOUT
350
1A
  3
ACAD_MATERIAL
350
3B
  3
ACAD_MLEADERSTYLE
350
2CE
  3
ACAD_MLINESTYLE
350
17
  3
ACAD_PLOTSETTINGS
350
19
  3
ACAD_PLOTSTYLENAME
350
E
  3
ACAD_TABLESTYLE
350
2CD
  3
ACAD_VISUALSTYLE
350
2A
  0
SUN
  5
3F
330
29
100
AcDbSun
 90
        1
290
     0
 63
     7
421
 16777215
 40
1.0
291
     1
 91
  2455826
 92
 54000000
292
     0
 70
     2
 71
   256
280
     1
  0
DICTIONARY
  5
D
102
{ACAD_REACTORS
330
C
102
}
330
C
100
AcDbDictionary
281
     1
  0
DICTIONARY
  5
1A
102
{ACAD_REACTORS
330
C
102
}
330
C
100
AcDbDictionary
281
     1
  3
Layout1
350
1E
  3
Layout2
350
26
  3
Model
350
22
  0
DICTIONARY
  5
3B
102
{ACAD_REACTORS
330
C
102
}
330
C
100
AcDbDictionary
281
     1
  3
ByBlock
350
3D
  3
ByLayer
350
3C
  3
Global
350
3E
  0
DICTIONARY
  5
2CE
102
{ACAD_REACTORS
330
C
102
}
330
C
100
AcDbDictionary
281
     1
  0
DICTIONARY
  5
17
102
{ACAD_REACTORS
330
C
102
}
330
C
100
AcDbDictionary
281
     1
  3
Standard
350
18
  0
DICTIONARY
  5
19
102
{ACAD_REACTORS
330
C
102
}
330
C
100
AcDbDictionary
281
     1
  0
ACDBDICTIONARYWDFLT
  5
E
102
{ACAD_REACTORS
330
C
102
}
330
C
100
AcDbDictionary
281
     1
  3
Normal
350
F
100
AcDbDictionaryWithDefault
340
F
  0
DICTIONARY
  5
2CD
102
{ACAD_REACTORS
330
C
102
}
330
C
100
AcDbDictionary
281
     1
  0
DICTIONARY
  5
2A
102
{ACAD_REACTORS
330
C
102
}
330
C
100
AcDbDictionary
281
     1
  3
2dWireframe
350
2F
  3
3D Hidden
350
31
  3
3dWireframe
350
30
  3
Basic
350
32
  3
Brighten
350
36
  3
ColorChange
350
3A
  3
Conceptual
350
34
  3
Dim
350
35
  3
Facepattern
350
39
  3
Flat
350
2B
  3
FlatWithEdges
350
2C
  3
Gouraud
350
2D
  3
GouraudWithEdges
350
2E
  3
Linepattern
350
38
  3
Realistic
350
33
  3
Thicken
350
37
  0
LAYOUT
  5
1E
102
{ACAD_REACTORS
330
1A
102
}
330
1A
100
AcDbPlotSettings
  1

  2
none_device
  4

  6

 40
0.0
 41
0.0
 42
0.0
 43
0.0
 44
0.0
 45
0.0
 46
0.0
 47
0.0
 48
0.0
 49
0.0
140
0.0
141
0.0
142
1.0
143
1.0
 70
   688
 72
     0
 73
     0
 74
     5
  7

 75
    16
 76
     0
 77
     2
 78
   300
147
1.0
148
0.0
149
0.0
100
AcDbLayout
  1
Layout1
 70
     1
 71
     1
 10
0.0
 20
0.0
 11
12.0
 21
9.0
 12
0.0
 22
0.0
 32
0.0
 14
1.000000000000000E+20
 24
1.000000000000000E+20
 34
1.000000000000000E+20
 15
-1.000000000000000E+20
 25
-1.000000000000000E+20
 35
-1.000000000000000E+20
146
0.0
 13
0.0
 23
0.0
 33
0.0
 16
1.0
 26
0.0
 36
0.0
 17
0.0
 27
1.0
 37
0.0
 76
     0
330
1B
  0
LAYOUT
  5
26
102
{ACAD_REACTORS
330
1A
102
}
330
1A
100
AcDbPlotSettings
  1

  2
none_device
  4

  6

 40
0.0
 41
0.0
 42
0.0
 43
0.0
 44
0.0
 45
0.0
 46
0.0
 47
0.0
 48
0.0
 49
0.0
140
0.0
141
0.0
142
1.0
143
1.0
 70
   688
 72
     0
 73
     0
 74
     5
  7

 75
    16
 76
     0
 77
     2
 78
   300
147
1.0
148
0.0
149
0.0
100
AcDbLayout
  1
Layout2
 70
     1
 71
     2
 10
0.0
 20
0.0
 11
0.0
 21
0.0
 12
0.0
 22
0.0
 32
0.0
 14
0.0
 24
0.0
 34
0.0
 15
0.0
 25
0.0
 35
0.0
146
0.0
 13
0.0
 23
0.0
 33
0.0
 16
1.0
 26
0.0
 36
0.0
 17
0.0
 27
1.0
 37
0.0
 76
     0
330
23
  0
LAYOUT
  5
22
102
{ACAD_REACTORS
330
1A
102
}
330
1A
100
AcDbPlotSettings
  1

  2
none_device
  4

  6

 40
0.0
 41
0.0
 42
0.0
 43
0.0
 44
0.0
 45
0.0
 46
0.0
 47
0.0
 48
0.0
 49
0.0
140
0.0
141
0.0
142
1.0
143
1.0
 70
  1712
 72
     0
 73
     0
 74
     0
  7

 75
     0
 76
     0
 77
     2
 78
   300
147
1.0
148
0.0
149
0.0
100
AcDbLayout
  1
Model
 70
     1
 71
     0
 10
0.0
 20
0.0
 11
12.0
 21
9.0
 12
0.0
 22
0.0
 32
0.0
 14
1.000000000000000E+20
 24
1.000000000000000E+20
 34
1.000000000000000E+20
 15
-1.000000000000000E+20
 25
-1.000000000000000E+20
 35
-1.000000000000000E+20
146
0.0
 13
0.0
 23
0.0
 33
0.0
 16
1.0
 26
0.0
 36
0.0
 17
0.0
 27
1.0
 37
0.0
 76
     0
330
1F
331
29
  0
MATERIAL
  5
3D
102
{ACAD_REACTORS
330
3B
102
}
330
3B
100
AcDbMaterial
  1
ByBlock
 72
     1
 94
      127
  0
MATERIAL
  5
3C
102
{ACAD_REACTORS
330
3B
102
}
330
3B
100
AcDbMaterial
  1
ByLayer
 72
     1
 94
      127
  0
MATERIAL
  5
3E
102
{ACAD_REACTORS
330
3B
102
}
330
3B
100
AcDbMaterial
  1
Global
 72
     1
 94
      127
  0
MLINESTYLE
  5
18
102
{ACAD_REACTORS
330
17
102
}
330
17
100
AcDbMlineStyle
  2
Standard
 70
     0
  3

 62
   256
 51
90.0
 52
90.0
 71
     2
 49
0.5
 62
   256
  6
BYLAYER
 49
-0.5
 62
   256
  6
BYLAYER
  0
ACDBPLACEHOLDER
  5
F
102
{ACAD_REACTORS
330
E
102
}
330
E
  0
VISUALSTYLE
  5
2F
102
{ACAD_REACTORS
330
2A
102
}
330
2A
100
AcDbVisualStyle
  2
2dWireframe
 70
     4
177
     2
291
     0
 71
     0
176
     1
 72
     2
176
     1
 73
     0
176
     1
 90
        0
176
     1
 40
-0.6
176
     1
 41
-30.0
176
     1
 62
     5
 63
     7
421
 16777215
176
     1
 74
     1
176
     1
 91
        4
176
     1
 64
     7
176
     1
 65
   257
176
     1
 75
     1
176
     1
175
     1
176
     1
 42
1.0
176
     1
 92
        0
176
     1
 66
   257
176
     1
 43
1.0
176
     1
 76
     1
176
     1
 77
     6
176
     1
 78
     2
176
     1
 67
     7
176
     1
 79
     5
176
     1
170
     0
176
     1
171
     0
176
     1
290
     0
176
     1
 93
        1
176
     1
 44
0.0
176
     1
173
     0
176
     1
  0
VISUALSTYLE
  5
31
102
{ACAD_REACTORS
330
2A
102
}
330
2A
100
AcDbVisualStyle
  2
3D Hidden
 70
     6
177
     2
291
     0
 71
     1
176
     1
 72
     2
176
     1
 73
     2
176
     1
 90
        0
176
     1
 40
-0.6
176
     1
 41
-30.0
176
     1
 62
     5
 63
     7
421
 16777215
176
     1
 74
     2
176
     1
 91
        2
176
     1
 64
     7
176
     1
 65
   257
176
     1
 75
     2
176
     1
175
     1
176
     1
 42
40.0
176
     1
 92
        0
176
     1
 66
   257
176
     1
 43
1.0
176
     1
 76
     1
176
     1
 77
     6
176
     1
 78
     2
176
     1
 67
     7
176
     1
 79
     3
176
     1
170
     0
176
     1
171
     0
176
     1
290
     0
176
     1
 93
        1
176
     1
 44
0.0
176
     1
173
     0
176
     1
  0
VISUALSTYLE
  5
30
102
{ACAD_REACTORS
330
2A
102
}
330
2A
100
AcDbVisualStyle
  2
3dWireframe
 70
     5
177
     2
291
     0
 71
     0
176
     1
 72
     2
176
     1
 73
     0
176
     1
 90
        0
176
     1
 40
-0.6
176
     1
 41
-30.0
176
     1
 62
     5
 63
     7
421
 16777215
176
     1
 74
     1
176
     1
 91
        4
176
     1
 64
     7
176
     1
 65
   257
176
     1
 75
     1
176
     1
175
     1
176
     1
 42
1.0
176
     1
 92
        0
176
     1
 66
   257
176
     1
 43
1.0
176
     1
 76
     1
176
     1
 77
     6
176
     1
 78
     2
176
     1
 67
     7
176
     1
 79
     5
176
     1
170
     0
176
     1
171
     0
176
     1
290
     0
176
     1
 93
        1
176
     1
 44
0.0
176
     1
173
     0
176
     1
  0
VISUALSTYLE
  5
32
102
{ACAD_REACTORS
330
2A
102
}
330
2A
100
AcDbVisualStyle
  2
Basic
 70
     7
177
     2
291
     1
 71
     1
176
     1
 72
     0
176
     1
 73
     1
176
     1
 90
        0
176
     1
 40
-0.6
176
     1
 41
-30.0
176
     1
 62
     5
 63
     7
421
 16777215
176
     1
 74
     0
176
     1
 91
        4
176
     1
 64
     7
176
     1
 65
   257
176
     1
 75
     1
176
     1
175
     1
176
     1
 42
1.0
176
     1
 92
        8
176
     1
 66
     7
176
     1
 43
1.0
176
     1
 76
     1
176
     1
 77
     6
176
     1
 78
     2
176
     1
 67
     7
176
     1
 79
     5
176
     1
170
     0
176
     1
171
     0
176
     1
290
     0
176
     1
 93
        1
176
     1
 44
0.0
176
     1
173
     0
176
     1
  0
VISUALSTYLE
  5
36
102
{ACAD_REACTORS
330
2A
102
}
330
2A
100
AcDbVisualStyle
  2
Brighten
 70
    12
177
     2
291
     1
 71
     2
176
     1
 72
     2
176
     1
 73
     0
176
     1
 90
        0
176
     1
 40
-0.6
176
     1
 41
-30.0
176
     1
 62
     5
 63
     7
421
 16777215
176
     1
 74
     1
176
     1
 91
        4
176
     1
 64
     7
176
     1
 65
   257
176
     1
 75
     1
176
     1
175
     1
176
     1
 42
1.0
176
     1
 92
        8
176
     1
 66
     7
176
     1
 43
1.0
176
     1
 76
     1
176
     1
 77
     6
176
     1
 78
     2
176
     1
 67
     7
176
     1
 79
     5
176
     1
170
     0
176
     1
171
     0
176
     1
290
     0
176
     1
 93
        1
176
     1
 44
50.0
176
     1
173
     0
176
     1
  0
VISUALSTYLE
  5
3A
102
{ACAD_REACTORS
330
2A
102
}
330
2A
100
AcDbVisualStyle
  2
ColorChange
 70
    16
177
     2
291
     1
 71
     2
176
     1
 72
     2
176
     1
 73
     3
176
     1
 90
        0
176
     1
 40
-0.6
176
     1
 41
-30.0
176
     1
 62
     5
 63
     8
421
  8421504
176
     1
 74
     1
176
     1
 91
        4
176
     1
 64
     7
176
     1
 65
   257
176
     1
 75
     1
176
     1
175
     1
176
     1
 42
1.0
176
     1
 92
        8
176
     1
 66
     8
424
  8421504
176
     1
 43
1.0
176
     1
 76
     1
176
     1
 77
     6
176
     1
 78
     2
176
     1
 67
     7
176
     1
 79
     5
176
     1
170
     0
176
     1
171
     0
176
     1
290
     0
176
     1
 93
        1
176
     1
 44
0.0
176
     1
173
     0
176
     1
  0
VISUALSTYLE
  5
34
102
{ACAD_REACTORS
330
2A
102
}
330
2A
100
AcDbVisualStyle
  2
Conceptual
 70
     9
177
     2
291
     0
 71
     3
176
     1
 72
     2
176
     1
 73
     0
176
     1
 90
        0
176
     1
 40
-0.6
176
     1
 41
-30.0
176
     1
 62
     5
 63
     7
421
 16777215
176
     1
 74
     2
176
     1
 91
        2
176
     1
 64
     7
176
     1
 65
   257
176
     1
 75
     1
176
     1
175
     1
176
     1
 42
40.0
176
     1
 92
        8
176
     1
 66
     7
176
     1
 43
1.0
176
     1
 76
     1
176
     1
 77
     6
176
     1
 78
     2
176
     1
 67
     7
176
     1
 79
     3
176
     1
170
     0
176
     1
171
     0
176
     1
290
     0
176
     1
 93
        1
176
     1
 44
0.0
176
     1
173
     0
176
     1
  0
VISUALSTYLE
  5
35
102
{ACAD_REACTORS
330
2A
102
}
330
2A
100
AcDbVisualStyle
  2
Dim
 70
    11
177
     2
291
     1
 71
     2
176
     1
 72
     2
176
     1
 73
     0
176
     1
 90
        0
176
     1
 40
-0.6
176
     1
 41
-30.0
176
     1
 62
     5
 63
     7
421
 16777215
176
     1
 74
     1
176
     1
 91
        4
176
     1
 64
     7
176
     1
 65
   257
176
     1
 75
     1
176
     1
175
     1
176
     1
 42
1.0
176
     1
 92
        8
176
     1
 66
     7
176
     1
 43
1.0
176
     1
 76
     1
176
     1
 77
     6
176
     1
 78
     2
176
     1
 67
     7
176
     1
 79
     5
176
     1
170
     0
176
     1
171
     0
176
     1
290
     0
176
     1
 93
        1
176
     1
 44
-50.0
176
     1
173
     0
176
     1
  0
VISUALSTYLE
  5
39
102
{ACAD_REACTORS
330
2A
102
}
330
2A
100
AcDbVisualStyle
  2
Facepattern
 70
    15
177
     2
291
     1
 71
     2
176
     1
 72
     2
176
     1
 73
     0
176
     1
 90
        0
176
     1
 40
-0.6
176
     1
 41
-30.0
176
     1
 62
     5
 63
     7
421
 16777215
176
     1
 74
     1
176
     1
 91
        4
176
     1
 64
     7
176
     1
 65
   257
176
     1
 75
     1
176
     1
175
     1
176
     1
 42
1.0
176
     1
 92
        8
176
     1
 66
     7
176
     1
 43
1.0
176
     1
 76
     1
176
     1
 77
     6
176
     1
 78
     2
176
     1
 67
     7
176
     1
 79
     5
176
     1
170
     0
176
     1
171
     0
176
     1
290
     0
176
     1
 93
        1
176
     1
 44
0.0
176
     1
173
     0
176
     1
  0
VISUALSTYLE
  5
2B
102
{ACAD_REACTORS
330
2A
102
}
330
2A
100
AcDbVisualStyle
  2
Flat
 70
     0
177
     2
291
     1
 71
     2
176
     1
 72
     1
176
     1
 73
     1
176
     1
 90
        2
176
     1
 40
-0.6
176
     1
 41
30.0
176
     1
 62
     5
 63
     7
421
 16777215
176
     1
 74
     0
176
     1
 91
        4
176
     1
 64
     7
176
     1
 65
   257
176
     1
 75
     1
176
     1
175
     1
176
     1
 42
1.0
176
     1
 92
        8
176
     1
 66
     7
176
     1
 43
1.0
176
     1
 76
     1
176
     1
 77
     6
176
     1
 78
     2
176
     1
 67
     7
176
     1
 79
     5
176
     1
170
     0
176
     1
171
     0
176
     1
290
     0
176
     1
 93
       13
176
     1
 44
0.0
176
     1
173
     0
176
     1
  0
VISUALSTYLE
  5
2C
102
{ACAD_REACTORS
330
2A
102
}
330
2A
100
AcDbVisualStyle
  2
FlatWithEdges
 70
     1
177
     2
291
     1
 71
     2
176
     1
 72
     1
176
     1
 73
     1
176
     1
 90
        2
176
     1
 40
-0.6
176
     1
 41
30.0
176
     1
 62
     5
 63
     7
421
 16777215
176
     1
 74
     1
176
     1
 91
        4
176
     1
 64
     7
176
     1
 65
   257
176
     1
 75
     1
176
     1
175
     1
176
     1
 42
1.0
176
     1
 92
        0
176
     1
 66
   257
176
     1
 43
1.0
176
     1
 76
     1
176
     1
 77
     6
176
     1
 78
     2
176
     1
 67
     7
176
     1
 79
     5
176
     1
170
     0
176
     1
171
     0
176
     1
290
     0
176
     1
 93
       13
176
     1
 44
0.0
176
     1
173
     0
176
     1
  0
VISUALSTYLE
  5
2D
102
{ACAD_REACTORS
330
2A
102
}
330
2A
100
AcDbVisualStyle
  2
Gouraud
 70
     2
177
     2
291
     1
 71
     2
176
     1
 72
     2
176
     1
 73
     1
176
     1
 90
        2
176
     1
 40
-0.6
176
     1
 41
30.0
176
     1
 62
     5
 63
     7
421
 16777215
176
     1
 74
     0
176
     1
 91
        4
176
     1
 64
     7
176
     1
 65
   257
176
     1
 75
     1
176
     1
175
     1
176
     1
 42
1.0
176
     1
 92
        0
176
     1
 66
     7
176
     1
 43
1.0
176
     1
 76
     1
176
     1
 77
     6
176
     1
 78
     2
176
     1
 67
     7
176
     1
 79
     5
176
     1
170
     0
176
     1
171
     0
176
     1
290
     0
176
     1
 93
       13
176
     1
 44
0.0
176
     1
173
     0
176
     1
  0
VISUALSTYLE
  5
2E
102
{ACAD_REACTORS
330
2A
102
}
330
2A
100
AcDbVisualStyle
  2
GouraudWithEdges
 70
     3
177
     2
291
     1
 71
     2
176
     1
 72
     2
176
     1
 73
     1
176
     1
 90
        2
176
     1
 40
-0.6
176
     1
 41
30.0
176
     1
 62
     5
 63
     7
421
 16777215
176
     1
 74
     1
176
     1
 91
        4
176
     1
 64
     7
176
     1
 65
   257
176
     1
 75
     1
176
     1
175
     1
176
     1
 42
1.0
176
     1
 92
        0
176
     1
 66
   257
176
     1
 43
1.0
176
     1
 76
     1
176
     1
 77
     6
176
     1
 78
     2
176
     1
 67
     7
176
     1
 79
     5
176
     1
170
     0
176
     1
171
     0
176
     1
290
     0
176
     1
 93
       13
176
     1
 44
0.0
176
     1
173
     0
176
     1
  0
VISUALSTYLE
  5
38
102
{ACAD_REACTORS
330
2A
102
}
330
2A
100
AcDbVisualStyle
  2
Linepattern
 70
    14
177
     2
291
     1
 71
     2
176
     1
 72
     2
176
     1
 73
     0
176
     1
 90
        0
176
     1
 40
-0.6
176
     1
 41
-30.0
176
     1
 62
     5
 63
     7
421
 16777215
176
     1
 74
     1
176
     1
 91
        4
176
     1
 64
     7
176
     1
 65
   257
176
     1
 75
     7
176
     1
175
     7
176
     1
 42
1.0
176
     1
 92
        8
176
     1
 66
     7
176
     1
 43
1.0
176
     1
 76
     1
176
     1
 77
     6
176
     1
 78
     2
176
     1
 67
     7
176
     1
 79
     5
176
     1
170
     0
176
     1
171
     0
176
     1
290
     0
176
     1
 93
        1
176
     1
 44
0.0
176
     1
173
     0
176
     1
  0
VISUALSTYLE
  5
33
102
{ACAD_REACTORS
330
2A
102
}
330
2A
100
AcDbVisualStyle
  2
Realistic
 70
     8
177
     2
291
     0
 71
     2
176
     1
 72
     2
176
     1
 73
     0
176
     1
 90
        0
176
     1
 40
-0.6
176
     1
 41
-30.0
176
     1
 62
     5
 63
     7
421
 16777215
176
     1
 74
     1
176
     1
 91
        0
176
     1
 64
     7
176
     1
 65
   257
176
     1
 75
     1
176
     1
175
     1
176
     1
 42
1.0
176
     1
 92
        8
176
     1
 66
     8
424
  7895160
176
     1
 43
1.0
176
     1
 76
     1
176
     1
 77
     6
176
     1
 78
     2
176
     1
 67
     7
176
     1
 79
     5
176
     1
170
     0
176
     1
171
     0
176
     1
290
     0
176
     1
 93
       13
176
     1
 44
0.0
176
     1
173
     0
176
     1
  0
VISUALSTYLE
  5
37
102
{ACAD_REACTORS
330
2A
102
}
330
2A
100
AcDbVisualStyle
  2
Thicken
 70
    13
177
     2
291
     1
 71
     2
176
     1
 72
     2
176
     1
 73
     0
176
     1
 90
        0
176
     1
 40
-0.6
176
     1
 41
-30.0
176
     1
 62
     5
 63
     7
421
 16777215
176
     1
 74
     1
176
     1
 91
        4
176
     1
 64
     7
176
     1
 65
   257
176
     1
 75
     1
176
     1
175
     1
176
     1
 42
1.0
176
     1
 92
       12
176
     1
 66
     7
176
     1
 43
1.0
176
     1
 76
     1
176
     1
 77
     6
176
     1
 78
     2
176
     1
 67
     7
176
     1
 79
     5
176
     1
170
     0
176
     1
171
     0
176
     1
290
     0
176
     1
 93
        1
176
     1
 44
0.0
176
     1
173
     0
176
     1
  0
ENDSEC
  0
EOF
